{"glyphs":{"0":{"ha":683,"x_min":63,"x_max":621,"o":"m 342 -17 q 136 104 210 -17 q 63 446 63 225 q 136 785 63 667 q 342 903 210 903 q 547 785 474 903 q 621 446 621 667 q 547 104 621 225 q 342 -17 474 -17 m 342 65 q 474 160 426 65 q 522 446 522 256 q 474 728 522 636 q 342 821 426 821 q 209 728 257 821 q 161 446 161 636 q 209 160 161 256 q 342 65 257 65 z "},"1":{"ha":626,"x_min":68,"x_max":558,"o":"m 68 85 l 272 85 l 272 758 l 111 758 l 111 824 q 296 886 224 843 l 374 886 l 374 85 l 558 85 l 558 0 l 68 0 l 68 85 z "},"2":{"ha":683,"x_min":50,"x_max":621,"o":"m 56 60 q 299 314 213 218 q 431 490 385 410 q 478 642 478 571 q 433 771 478 722 q 303 819 389 819 q 201 790 250 819 q 110 711 151 761 l 50 769 q 172 868 108 833 q 315 903 236 903 q 507 833 436 903 q 578 646 578 763 q 533 481 578 565 q 414 310 488 396 q 204 81 340 224 l 238 82 q 353 88 315 88 l 621 88 l 621 0 l 56 0 l 56 60 z "},"3":{"ha":683,"x_min":38,"x_max":614,"o":"m 326 -17 q 38 108 151 -17 l 89 175 q 192 97 138 125 q 321 68 247 68 q 458 115 406 68 q 511 239 511 161 q 221 422 511 422 l 221 501 q 418 549 357 501 q 479 674 479 596 q 436 780 479 740 q 319 819 393 819 q 126 728 214 819 l 71 793 q 322 903 188 903 q 510 844 438 903 q 582 681 582 785 q 538 549 582 603 q 418 468 494 496 l 418 463 q 559 383 504 443 q 614 236 614 324 q 576 102 614 160 q 472 14 538 44 q 326 -17 407 -17 z "},"4":{"ha":683,"x_min":24,"x_max":643,"o":"m 643 250 l 519 250 l 519 0 l 424 0 l 424 250 l 24 250 l 24 315 l 411 886 l 519 886 l 519 331 l 643 331 l 643 250 m 424 331 l 424 606 q 431 772 424 658 l 425 772 q 382 699 397 722 l 353 650 l 132 331 l 424 331 z "},"5":{"ha":683,"x_min":35,"x_max":617,"o":"m 322 -17 q 158 17 226 -17 q 35 104 89 50 l 86 171 q 187 96 133 124 q 314 68 240 68 q 415 94 369 68 q 488 169 461 121 q 514 279 514 217 q 461 428 514 374 q 319 482 408 482 q 241 469 275 482 q 164 428 207 457 l 108 463 l 138 886 l 572 886 l 572 799 l 226 799 l 201 522 q 269 551 236 542 q 343 561 303 561 q 540 491 464 561 q 617 283 617 421 q 576 124 617 192 q 467 19 535 56 q 322 -17 400 -17 z "},"6":{"ha":683,"x_min":68,"x_max":626,"o":"m 376 540 q 560 469 493 540 q 626 265 626 399 q 592 119 626 183 q 498 19 557 56 q 369 -17 439 -17 q 213 31 281 -17 q 106 175 144 79 q 68 407 68 271 q 114 690 68 579 q 235 852 160 801 q 403 903 310 903 q 610 811 525 903 l 553 747 q 487 799 525 781 q 406 818 449 818 q 233 724 300 818 q 164 424 167 631 q 264 509 207 478 q 376 540 321 540 m 371 64 q 485 121 439 64 q 531 265 531 178 q 488 410 531 358 q 360 463 444 463 q 262 433 313 463 q 167 340 211 403 q 229 135 178 207 q 371 64 281 64 z "},"7":{"ha":683,"x_min":61,"x_max":625,"o":"m 250 0 q 319 435 261 256 q 508 799 378 615 l 61 799 l 61 886 l 625 886 l 625 825 q 466 569 522 692 q 386 317 410 447 q 354 0 363 186 l 250 0 z "},"8":{"ha":683,"x_min":57,"x_max":626,"o":"m 344 -17 q 197 15 263 -17 q 94 101 132 46 q 57 226 57 157 q 106 368 57 307 q 226 468 154 429 l 226 474 q 101 678 101 561 q 133 795 101 744 q 222 874 165 846 q 347 903 278 903 q 528 838 461 903 q 596 668 596 772 q 558 547 596 604 q 472 451 521 489 l 472 446 q 585 351 544 403 q 626 219 626 300 q 591 100 626 154 q 492 15 556 46 q 344 -17 428 -17 m 407 478 q 507 664 507 565 q 464 781 507 735 q 346 826 421 826 q 238 785 281 826 q 196 678 196 744 q 250 561 196 604 q 407 478 304 518 m 347 60 q 478 105 428 60 q 529 221 529 150 q 497 316 529 278 q 417 378 464 354 q 281 436 369 401 q 185 347 221 399 q 149 235 149 296 q 206 110 149 160 q 347 60 263 60 z "},"9":{"ha":683,"x_min":56,"x_max":615,"o":"m 313 903 q 470 855 401 903 q 577 712 539 807 q 615 479 615 617 q 569 196 615 307 q 449 34 524 85 q 281 -17 374 -17 q 74 75 156 -17 l 131 139 q 197 87 158 106 q 276 68 235 68 q 449 161 382 68 q 518 461 515 254 q 419 376 475 407 q 307 346 363 346 q 122 416 189 346 q 56 621 56 486 q 90 766 56 701 q 184 867 125 831 q 313 903 243 903 m 324 424 q 420 453 369 424 q 515 544 471 482 q 454 750 506 678 q 313 822 403 822 q 199 766 244 822 q 153 621 153 710 q 196 476 153 528 q 324 424 239 424 z "}," ":{"ha":278,"x_min":0,"x_max":0,"o":""},"A":{"ha":749,"x_min":6,"x_max":743,"o":"m 543 288 l 203 288 l 110 0 l 6 0 l 318 913 l 432 913 l 743 0 l 635 0 l 543 288 m 517 369 l 469 517 q 375 826 414 690 l 369 826 q 276 517 324 658 l 229 369 l 517 369 z "},"Á":{"ha":749,"x_min":6,"x_max":743,"o":"m 543 288 l 203 288 l 110 0 l 6 0 l 318 913 l 432 913 l 743 0 l 635 0 l 543 288 m 517 369 l 469 517 q 375 826 414 690 l 369 826 q 276 517 324 658 l 229 369 l 517 369 m 303 1022 l 493 1199 l 551 1131 l 347 971 l 303 1022 z "},"Ă":{"ha":749,"x_min":6,"x_max":743,"o":"m 543 288 l 203 288 l 110 0 l 6 0 l 318 913 l 432 913 l 743 0 l 635 0 l 543 288 m 517 369 l 469 517 q 375 826 414 690 l 369 826 q 276 517 324 658 l 229 369 l 517 369 m 372 982 q 232 1032 282 982 q 174 1158 182 1082 l 236 1169 q 279 1081 244 1115 q 372 1047 314 1047 q 465 1081 431 1047 q 508 1169 500 1115 l 571 1158 q 513 1032 563 1082 q 372 982 463 982 z "},"Â":{"ha":749,"x_min":6,"x_max":743,"o":"m 543 288 l 203 288 l 110 0 l 6 0 l 318 913 l 432 913 l 743 0 l 635 0 l 543 288 m 517 369 l 469 517 q 375 826 414 690 l 369 826 q 276 517 324 658 l 229 369 l 517 369 m 172 1007 l 319 1164 l 425 1164 l 572 1007 l 528 974 l 375 1104 l 369 1104 l 217 974 l 172 1007 z "},"Ä":{"ha":749,"x_min":6,"x_max":743,"o":"m 543 288 l 203 288 l 110 0 l 6 0 l 318 913 l 432 913 l 743 0 l 635 0 l 543 288 m 517 369 l 469 517 q 375 826 414 690 l 369 826 q 276 517 324 658 l 229 369 l 517 369 m 232 997 q 186 1015 204 997 q 168 1061 168 1032 q 186 1106 168 1089 q 232 1124 204 1124 q 277 1106 260 1124 q 294 1061 294 1089 q 277 1015 294 1032 q 232 997 260 997 m 513 997 q 467 1015 485 997 q 450 1061 450 1032 q 467 1106 450 1089 q 513 1124 485 1124 q 558 1106 540 1124 q 576 1061 576 1089 q 558 1015 576 1032 q 513 997 540 997 z "},"Ạ":{"ha":749,"x_min":6,"x_max":743,"o":"m 543 288 l 203 288 l 110 0 l 6 0 l 318 913 l 432 913 l 743 0 l 635 0 l 543 288 m 517 369 l 469 517 q 375 826 414 690 l 369 826 q 276 517 324 658 l 229 369 l 517 369 m 372 -282 q 322 -262 342 -282 q 303 -211 303 -243 q 322 -162 303 -181 q 372 -143 342 -143 q 422 -162 403 -143 q 442 -211 442 -181 q 422 -262 442 -243 q 372 -282 403 -282 z "},"À":{"ha":749,"x_min":6,"x_max":743,"o":"m 543 288 l 203 288 l 110 0 l 6 0 l 318 913 l 432 913 l 743 0 l 635 0 l 543 288 m 517 369 l 469 517 q 375 826 414 690 l 369 826 q 276 517 324 658 l 229 369 l 517 369 m 193 1131 l 251 1199 l 442 1022 l 397 971 l 193 1131 z "},"Ā":{"ha":749,"x_min":6,"x_max":743,"o":"m 543 288 l 203 288 l 110 0 l 6 0 l 318 913 l 432 913 l 743 0 l 635 0 l 543 288 m 517 369 l 469 517 q 375 826 414 690 l 369 826 q 276 517 324 658 l 229 369 l 517 369 m 190 1096 l 554 1096 l 554 1024 l 190 1024 l 190 1096 z "},"Å":{"ha":749,"x_min":6,"x_max":743,"o":"m 543 288 l 203 288 l 110 0 l 6 0 l 318 913 l 432 913 l 743 0 l 635 0 l 543 288 m 517 369 l 469 517 q 375 826 414 690 l 369 826 q 276 517 324 658 l 229 369 l 517 369 m 372 971 q 277 1006 314 971 q 240 1094 240 1040 q 277 1185 240 1151 q 372 1219 314 1219 q 467 1185 429 1219 q 504 1094 504 1150 q 466 1006 504 1040 q 372 971 428 971 m 372 1018 q 424 1038 403 1018 q 444 1094 444 1058 q 424 1151 444 1129 q 372 1172 403 1172 q 319 1151 340 1172 q 299 1094 299 1131 q 319 1038 299 1058 q 372 1018 340 1018 z "},"Ã":{"ha":749,"x_min":6,"x_max":743,"o":"m 543 288 l 203 288 l 110 0 l 6 0 l 318 913 l 432 913 l 743 0 l 635 0 l 543 288 m 517 369 l 469 517 q 375 826 414 690 l 369 826 q 276 517 324 658 l 229 369 l 517 369 m 478 988 q 410 1003 439 988 q 350 1046 382 1018 q 308 1078 326 1068 q 269 1089 290 1089 q 223 1064 242 1089 q 200 994 204 1039 l 131 999 q 170 1120 133 1075 q 267 1165 207 1165 q 334 1150 306 1165 q 394 1107 363 1135 q 436 1074 418 1085 q 475 1064 454 1064 q 521 1089 503 1064 q 544 1160 539 1114 l 614 1154 q 574 1033 611 1078 q 478 988 538 988 z "},"Æ":{"ha":1138,"x_min":17,"x_max":1071,"o":"m 1071 88 l 1071 0 l 561 0 l 561 275 l 268 275 l 124 0 l 17 0 l 501 913 l 1057 913 l 1057 825 l 664 825 l 664 524 l 990 524 l 990 438 l 664 438 l 664 88 l 1071 88 m 561 357 l 561 831 l 556 831 l 493 708 l 400 526 l 311 357 l 561 357 z "},"B":{"ha":813,"x_min":128,"x_max":756,"o":"m 128 913 l 392 913 q 620 858 538 913 q 703 689 703 803 q 667 566 703 619 q 567 492 631 513 l 567 486 q 705 413 654 469 q 756 267 756 357 q 663 68 756 136 q 413 0 571 0 l 128 0 l 128 913 m 371 521 q 601 676 601 521 q 546 794 601 758 q 376 831 490 831 l 231 831 l 231 521 l 371 521 m 396 82 q 588 128 521 82 q 654 269 654 175 q 396 442 654 442 l 231 442 l 231 82 l 396 82 z "},"Ḇ":{"ha":813,"x_min":128,"x_max":756,"o":"m 128 913 l 392 913 q 620 858 538 913 q 703 689 703 803 q 667 566 703 619 q 567 492 631 513 l 567 486 q 705 413 654 469 q 756 267 756 357 q 663 68 756 136 q 413 0 571 0 l 128 0 l 128 913 m 371 521 q 601 676 601 521 q 546 794 601 758 q 376 831 490 831 l 231 831 l 231 521 l 371 521 m 396 82 q 588 128 521 82 q 654 269 654 175 q 396 442 654 442 l 231 442 l 231 82 l 396 82 m 236 -161 l 597 -161 l 597 -233 l 236 -233 l 236 -161 z "},"C":{"ha":790,"x_min":72,"x_max":744,"o":"m 467 -17 q 263 40 353 -17 q 123 204 174 97 q 72 456 72 311 q 124 706 72 599 q 267 872 175 814 q 474 929 358 929 q 614 897 550 929 q 721 818 678 865 l 664 750 q 475 839 585 839 q 319 792 386 839 q 216 660 253 746 q 179 458 179 575 q 215 255 179 342 q 316 121 250 168 q 471 74 382 74 q 587 100 535 74 q 688 179 639 126 l 744 115 q 621 17 689 50 q 467 -17 553 -17 z "},"Č":{"ha":790,"x_min":72,"x_max":744,"o":"m 467 -17 q 263 40 353 -17 q 123 204 174 97 q 72 456 72 311 q 124 706 72 599 q 267 872 175 814 q 474 929 358 929 q 614 897 550 929 q 721 818 678 865 l 664 750 q 475 839 585 839 q 319 792 386 839 q 216 660 253 746 q 179 458 179 575 q 215 255 179 342 q 316 121 250 168 q 471 74 382 74 q 587 100 535 74 q 688 179 639 126 l 744 115 q 621 17 689 50 q 467 -17 553 -17 m 254 1139 l 299 1172 l 451 1042 l 457 1042 l 610 1172 l 654 1139 l 507 982 l 401 982 l 254 1139 z "},"Ç":{"ha":790,"x_min":72,"x_max":744,"o":"m 467 -17 q 263 40 353 -17 q 123 204 174 97 q 72 456 72 311 q 124 706 72 599 q 267 872 175 814 q 474 929 358 929 q 614 897 550 929 q 721 818 678 865 l 664 750 q 475 839 585 839 q 319 792 386 839 q 216 660 253 746 q 179 458 179 575 q 215 255 179 342 q 316 121 250 168 q 471 74 382 74 q 587 100 535 74 q 688 179 639 126 l 744 115 q 621 17 689 50 q 467 -17 553 -17 z "},"D":{"ha":851,"x_min":128,"x_max":778,"o":"m 128 913 l 351 913 q 669 794 560 913 q 778 460 778 676 q 669 122 778 243 q 356 0 560 0 l 128 0 l 128 913 m 343 85 q 590 183 507 85 q 672 460 672 281 q 590 732 672 636 q 343 828 507 828 l 231 828 l 231 85 l 343 85 z "},"Ð":{"ha":881,"x_min":47,"x_max":808,"o":"m 382 913 q 699 794 590 913 q 808 460 808 676 q 699 122 808 243 q 386 0 590 0 l 158 0 l 158 449 l 47 449 l 47 506 l 158 510 l 158 913 l 382 913 m 374 85 q 620 183 538 85 q 703 460 703 281 q 620 732 703 636 q 374 828 538 828 l 261 828 l 261 510 l 472 510 l 472 449 l 261 449 l 261 85 l 374 85 z "},"Ḍ":{"ha":851,"x_min":128,"x_max":778,"o":"m 128 913 l 351 913 q 669 794 560 913 q 778 460 778 676 q 669 122 778 243 q 356 0 560 0 l 128 0 l 128 913 m 343 85 q 590 183 507 85 q 672 460 672 281 q 590 732 672 636 q 343 828 507 828 l 231 828 l 231 85 l 343 85 m 421 -282 q 371 -262 390 -282 q 351 -211 351 -243 q 371 -162 351 -181 q 421 -143 390 -143 q 471 -162 451 -143 q 490 -211 490 -181 q 471 -262 490 -243 q 421 -282 451 -282 z "},"Ḏ":{"ha":851,"x_min":128,"x_max":778,"o":"m 128 913 l 351 913 q 669 794 560 913 q 778 460 778 676 q 669 122 778 243 q 356 0 560 0 l 128 0 l 128 913 m 343 85 q 590 183 507 85 q 672 460 672 281 q 590 732 672 636 q 343 828 507 828 l 231 828 l 231 85 l 343 85 m 240 -161 l 601 -161 l 601 -233 l 240 -233 l 240 -161 z "},"E":{"ha":728,"x_min":128,"x_max":660,"o":"m 128 913 l 646 913 l 646 825 l 231 825 l 231 524 l 581 524 l 581 438 l 231 438 l 231 88 l 660 88 l 660 0 l 128 0 l 128 913 z "},"É":{"ha":728,"x_min":128,"x_max":660,"o":"m 128 913 l 646 913 l 646 825 l 231 825 l 231 524 l 581 524 l 581 438 l 231 438 l 231 88 l 660 88 l 660 0 l 128 0 l 128 913 m 325 1022 l 515 1199 l 574 1131 l 369 971 l 325 1022 z "},"Ĕ":{"ha":728,"x_min":128,"x_max":660,"o":"m 128 913 l 646 913 l 646 825 l 231 825 l 231 524 l 581 524 l 581 438 l 231 438 l 231 88 l 660 88 l 660 0 l 128 0 l 128 913 m 394 982 q 254 1032 304 982 q 196 1158 204 1082 l 258 1169 q 301 1081 267 1115 q 394 1047 336 1047 q 488 1081 453 1047 q 531 1169 522 1115 l 593 1158 q 535 1032 585 1082 q 394 982 485 982 z "},"Ê":{"ha":728,"x_min":128,"x_max":660,"o":"m 128 913 l 646 913 l 646 825 l 231 825 l 231 524 l 581 524 l 581 438 l 231 438 l 231 88 l 660 88 l 660 0 l 128 0 l 128 913 m 194 1007 l 342 1164 l 447 1164 l 594 1007 l 550 974 l 397 1104 l 392 1104 l 239 974 l 194 1007 z "},"Ë":{"ha":728,"x_min":128,"x_max":660,"o":"m 128 913 l 646 913 l 646 825 l 231 825 l 231 524 l 581 524 l 581 438 l 231 438 l 231 88 l 660 88 l 660 0 l 128 0 l 128 913 m 254 997 q 208 1015 226 997 q 190 1061 190 1032 q 208 1106 190 1089 q 254 1124 226 1124 q 299 1106 282 1124 q 317 1061 317 1089 q 299 1015 317 1032 q 254 997 282 997 m 535 997 q 490 1015 507 997 q 472 1061 472 1032 q 490 1106 472 1089 q 535 1124 507 1124 q 581 1106 563 1124 q 599 1061 599 1089 q 581 1015 599 1032 q 535 997 563 997 z "},"Ẹ":{"ha":728,"x_min":128,"x_max":660,"o":"m 128 913 l 646 913 l 646 825 l 231 825 l 231 524 l 581 524 l 581 438 l 231 438 l 231 88 l 660 88 l 660 0 l 128 0 l 128 913 m 403 -282 q 353 -262 372 -282 q 333 -211 333 -243 q 353 -162 333 -181 q 403 -143 372 -143 q 453 -162 433 -143 q 472 -211 472 -181 q 453 -262 472 -243 q 403 -282 433 -282 z "},"È":{"ha":728,"x_min":128,"x_max":660,"o":"m 128 913 l 646 913 l 646 825 l 231 825 l 231 524 l 581 524 l 581 438 l 231 438 l 231 88 l 660 88 l 660 0 l 128 0 l 128 913 m 215 1131 l 274 1199 l 464 1022 l 419 971 l 215 1131 z "},"Ē":{"ha":728,"x_min":128,"x_max":660,"o":"m 128 913 l 646 913 l 646 825 l 231 825 l 231 524 l 581 524 l 581 438 l 231 438 l 231 88 l 660 88 l 660 0 l 128 0 l 128 913 m 213 1096 l 576 1096 l 576 1024 l 213 1024 l 213 1096 z "},"Ę":{"ha":728,"x_min":128,"x_max":681,"o":"m 575 -292 q 483 -260 519 -292 q 447 -172 447 -229 q 477 -74 447 -119 q 550 0 507 -28 l 128 0 l 128 913 l 646 913 l 646 825 l 231 825 l 231 524 l 581 524 l 581 438 l 231 438 l 231 88 l 660 88 l 660 0 l 656 0 q 567 -52 607 -7 q 528 -151 528 -97 q 547 -201 528 -183 q 594 -218 567 -218 q 651 -199 625 -218 l 681 -254 q 631 -281 661 -269 q 575 -292 601 -292 z "},"F":{"ha":681,"x_min":128,"x_max":646,"o":"m 128 913 l 646 913 l 646 825 l 231 825 l 231 503 l 582 503 l 582 417 l 231 417 l 231 0 l 128 0 l 128 913 z "},"G":{"ha":853,"x_min":72,"x_max":758,"o":"m 479 -17 q 267 40 360 -17 q 124 204 175 97 q 72 456 72 311 q 125 707 72 600 q 272 872 178 814 q 488 929 367 929 q 747 818 639 929 l 690 750 q 490 839 607 839 q 326 792 396 839 q 217 660 256 746 q 179 458 179 575 q 261 177 179 281 q 489 74 343 74 q 588 90 540 74 q 664 132 635 106 l 664 381 l 464 381 l 464 467 l 758 467 l 758 89 q 640 12 713 40 q 479 -17 568 -17 z "},"Ǧ":{"ha":853,"x_min":72,"x_max":758,"o":"m 479 -17 q 267 40 360 -17 q 124 204 175 97 q 72 456 72 311 q 125 707 72 600 q 272 872 178 814 q 488 929 367 929 q 747 818 639 929 l 690 750 q 490 839 607 839 q 326 792 396 839 q 217 660 256 746 q 179 458 179 575 q 261 177 179 281 q 489 74 343 74 q 588 90 540 74 q 664 132 635 106 l 664 381 l 464 381 l 464 467 l 758 467 l 758 89 q 640 12 713 40 q 479 -17 568 -17 m 288 1139 l 332 1172 l 485 1042 l 490 1042 l 643 1172 l 688 1139 l 540 982 l 435 982 l 288 1139 z "},"Ġ":{"ha":853,"x_min":72,"x_max":758,"o":"m 479 -17 q 267 40 360 -17 q 124 204 175 97 q 72 456 72 311 q 125 707 72 600 q 272 872 178 814 q 488 929 367 929 q 747 818 639 929 l 690 750 q 490 839 607 839 q 326 792 396 839 q 217 660 256 746 q 179 458 179 575 q 261 177 179 281 q 489 74 343 74 q 588 90 540 74 q 664 132 635 106 l 664 381 l 464 381 l 464 467 l 758 467 l 758 89 q 640 12 713 40 q 479 -17 568 -17 m 488 994 q 435 1014 457 994 q 414 1065 414 1033 q 435 1114 414 1094 q 488 1133 457 1133 q 540 1114 518 1133 q 561 1065 561 1094 q 540 1014 561 1033 q 488 994 518 994 z "},"Ḡ":{"ha":853,"x_min":72,"x_max":758,"o":"m 479 -17 q 267 40 360 -17 q 124 204 175 97 q 72 456 72 311 q 125 707 72 600 q 272 872 178 814 q 488 929 367 929 q 747 818 639 929 l 690 750 q 490 839 607 839 q 326 792 396 839 q 217 660 256 746 q 179 458 179 575 q 261 177 179 281 q 489 74 343 74 q 588 90 540 74 q 664 132 635 106 l 664 381 l 464 381 l 464 467 l 758 467 l 758 89 q 640 12 713 40 q 479 -17 568 -17 m 306 1096 l 669 1096 l 669 1024 l 306 1024 l 306 1096 z "},"H":{"ha":900,"x_min":128,"x_max":774,"o":"m 128 913 l 231 913 l 231 526 l 671 526 l 671 913 l 774 913 l 774 0 l 671 0 l 671 436 l 231 436 l 231 0 l 128 0 l 128 913 z "},"Ħ":{"ha":949,"x_min":46,"x_max":903,"o":"m 903 683 l 801 683 l 801 0 l 699 0 l 699 436 l 258 436 l 258 0 l 156 0 l 156 683 l 46 683 l 46 738 l 156 744 l 156 913 l 258 913 l 258 744 l 699 744 l 699 913 l 801 913 l 801 744 l 903 744 l 903 683 m 699 683 l 258 683 l 258 526 l 699 526 l 699 683 z "},"Ḫ":{"ha":900,"x_min":128,"x_max":774,"o":"m 128 913 l 231 913 l 231 526 l 671 526 l 671 913 l 774 913 l 774 0 l 671 0 l 671 436 l 231 436 l 231 0 l 128 0 l 128 913 m 449 -321 q 294 -260 347 -321 q 235 -112 242 -199 l 300 -103 q 346 -208 308 -164 q 449 -251 383 -251 q 551 -208 514 -251 q 597 -103 589 -164 l 663 -112 q 603 -260 656 -199 q 449 -321 550 -321 z "},"Ḥ":{"ha":900,"x_min":128,"x_max":774,"o":"m 128 913 l 231 913 l 231 526 l 671 526 l 671 913 l 774 913 l 774 0 l 671 0 l 671 436 l 231 436 l 231 0 l 128 0 l 128 913 m 449 -282 q 399 -262 418 -282 q 379 -211 379 -243 q 399 -162 379 -181 q 449 -143 418 -143 q 499 -162 479 -143 q 518 -211 518 -181 q 499 -262 518 -243 q 449 -282 479 -282 z "},"I":{"ha":357,"x_min":128,"x_max":231,"o":"m 128 913 l 231 913 l 231 0 l 128 0 l 128 913 z "},"Í":{"ha":357,"x_min":110,"x_max":358,"o":"m 128 913 l 231 913 l 231 0 l 128 0 l 128 913 m 110 1022 l 300 1199 l 358 1131 l 154 971 l 110 1022 z "},"Î":{"ha":357,"x_min":-21,"x_max":379,"o":"m 128 913 l 231 913 l 231 0 l 128 0 l 128 913 m -21 1007 l 126 1164 l 232 1164 l 379 1007 l 335 974 l 182 1104 l 176 1104 l 24 974 l -21 1007 z "},"Ï":{"ha":357,"x_min":-25,"x_max":383,"o":"m 128 913 l 231 913 l 231 0 l 128 0 l 128 913 m 39 997 q -7 1015 11 997 q -25 1061 -25 1032 q -7 1106 -25 1089 q 39 1124 11 1124 q 84 1106 67 1124 q 101 1061 101 1089 q 84 1015 101 1032 q 39 997 67 997 m 319 997 q 274 1015 292 997 q 257 1061 257 1032 q 274 1106 257 1089 q 319 1124 292 1124 q 365 1106 347 1124 q 383 1061 383 1089 q 365 1015 383 1032 q 319 997 347 997 z "},"Ì":{"ha":357,"x_min":0,"x_max":249,"o":"m 128 913 l 231 913 l 231 0 l 128 0 l 128 913 m 0 1131 l 58 1199 l 249 1022 l 204 971 l 0 1131 z "},"Ī":{"ha":357,"x_min":-3,"x_max":361,"o":"m 128 913 l 231 913 l 231 0 l 128 0 l 128 913 m -3 1096 l 361 1096 l 361 1024 l -3 1024 l -3 1096 z "},"J":{"ha":660,"x_min":47,"x_max":536,"o":"m 292 -17 q 47 126 126 -17 l 121 178 q 192 99 151 124 q 283 74 232 74 q 397 122 360 74 q 433 274 433 169 l 433 913 l 536 913 l 536 264 q 476 61 536 139 q 292 -17 417 -17 z "},"K":{"ha":796,"x_min":128,"x_max":789,"o":"m 128 913 l 231 913 l 231 442 l 233 442 l 629 913 l 746 913 l 458 567 l 789 0 l 674 0 l 394 488 l 231 294 l 231 0 l 128 0 l 128 913 z "},"Ḳ":{"ha":796,"x_min":128,"x_max":789,"o":"m 128 913 l 231 913 l 231 442 l 233 442 l 629 913 l 746 913 l 458 567 l 789 0 l 674 0 l 394 488 l 231 294 l 231 0 l 128 0 l 128 913 m 454 -282 q 404 -262 424 -282 q 385 -211 385 -243 q 404 -162 385 -181 q 454 -143 424 -143 q 504 -162 485 -143 q 524 -211 524 -181 q 504 -262 524 -243 q 454 -282 485 -282 z "},"Ḵ":{"ha":796,"x_min":128,"x_max":789,"o":"m 128 913 l 231 913 l 231 442 l 233 442 l 629 913 l 746 913 l 458 567 l 789 0 l 674 0 l 394 488 l 231 294 l 231 0 l 128 0 l 128 913 m 274 -161 l 635 -161 l 635 -233 l 274 -233 l 274 -161 z "},"L":{"ha":668,"x_min":128,"x_max":633,"o":"m 128 913 l 231 913 l 231 88 l 633 88 l 633 0 l 128 0 l 128 913 z "},"Ł":{"ha":671,"x_min":-4,"x_max":640,"o":"m 640 88 l 640 0 l 135 0 l 135 339 l 33 283 l -4 349 l 135 425 l 135 913 l 238 913 l 238 471 l 485 603 l 522 536 l 238 386 l 238 88 l 640 88 z "},"M":{"ha":1001,"x_min":128,"x_max":875,"o":"m 128 913 l 254 913 l 433 413 l 500 219 l 506 219 q 532 299 515 246 q 571 413 554 365 l 747 913 l 875 913 l 875 0 l 779 0 l 779 528 q 792 792 779 611 l 786 792 l 714 585 l 536 94 l 464 94 l 285 585 l 213 792 l 207 792 l 210 757 q 221 528 221 610 l 221 0 l 128 0 l 128 913 z "},"N":{"ha":894,"x_min":128,"x_max":767,"o":"m 128 913 l 233 913 l 578 321 l 678 133 l 683 133 l 679 194 q 674 288 678 217 q 669 418 669 360 l 669 913 l 767 913 l 767 0 l 661 0 l 317 592 l 217 779 l 211 779 l 215 713 q 225 500 225 592 l 225 0 l 128 0 l 128 913 z "},"Ñ":{"ha":894,"x_min":128,"x_max":767,"o":"m 128 913 l 233 913 l 578 321 l 678 133 l 683 133 l 679 194 q 674 288 678 217 q 669 418 669 360 l 669 913 l 767 913 l 767 0 l 661 0 l 317 592 l 217 779 l 211 779 l 215 713 q 225 500 225 592 l 225 0 l 128 0 l 128 913 m 558 988 q 491 1003 519 988 q 431 1046 463 1018 q 389 1078 407 1068 q 350 1089 371 1089 q 303 1064 322 1089 q 281 994 285 1039 l 211 999 q 251 1120 214 1075 q 347 1165 288 1165 q 415 1150 386 1165 q 475 1107 443 1135 q 517 1074 499 1085 q 556 1064 535 1064 q 601 1089 583 1064 q 625 1160 619 1114 l 694 1154 q 655 1033 692 1078 q 558 988 618 988 z "},"O":{"ha":918,"x_min":72,"x_max":846,"o":"m 460 -17 q 258 42 346 -17 q 122 208 171 100 q 72 460 72 317 q 122 709 72 603 q 258 872 171 815 q 460 929 346 929 q 660 872 572 929 q 797 709 747 815 q 846 460 846 603 q 797 208 846 317 q 660 42 747 100 q 460 -17 572 -17 m 460 74 q 606 122 543 74 q 704 256 669 169 q 739 460 739 343 q 704 660 739 575 q 606 792 669 746 q 460 839 543 839 q 312 792 375 839 q 214 660 249 746 q 179 460 179 575 q 214 256 179 343 q 313 121 249 168 q 460 74 376 74 z "},"Ó":{"ha":918,"x_min":72,"x_max":846,"o":"m 460 -17 q 258 42 346 -17 q 122 208 171 100 q 72 460 72 317 q 122 709 72 603 q 258 872 171 815 q 460 929 346 929 q 660 872 572 929 q 797 709 747 815 q 846 460 846 603 q 797 208 846 317 q 660 42 747 100 q 460 -17 572 -17 m 460 74 q 606 122 543 74 q 704 256 669 169 q 739 460 739 343 q 704 660 739 575 q 606 792 669 746 q 460 839 543 839 q 312 792 375 839 q 214 660 249 746 q 179 460 179 575 q 214 256 179 343 q 313 121 249 168 q 460 74 376 74 m 390 1022 l 581 1199 l 639 1131 l 435 971 l 390 1022 z "},"Ŏ":{"ha":918,"x_min":72,"x_max":846,"o":"m 460 -17 q 258 42 346 -17 q 122 208 171 100 q 72 460 72 317 q 122 709 72 603 q 258 872 171 815 q 460 929 346 929 q 660 872 572 929 q 797 709 747 815 q 846 460 846 603 q 797 208 846 317 q 660 42 747 100 q 460 -17 572 -17 m 460 74 q 606 122 543 74 q 704 256 669 169 q 739 460 739 343 q 704 660 739 575 q 606 792 669 746 q 460 839 543 839 q 312 792 375 839 q 214 660 249 746 q 179 460 179 575 q 214 256 179 343 q 313 121 249 168 q 460 74 376 74 m 460 982 q 319 1032 369 982 q 261 1158 269 1082 l 324 1169 q 367 1081 332 1115 q 460 1047 401 1047 q 553 1081 518 1047 q 596 1169 588 1115 l 658 1158 q 600 1032 650 1082 q 460 982 550 982 z "},"Ô":{"ha":918,"x_min":72,"x_max":846,"o":"m 460 -17 q 258 42 346 -17 q 122 208 171 100 q 72 460 72 317 q 122 709 72 603 q 258 872 171 815 q 460 929 346 929 q 660 872 572 929 q 797 709 747 815 q 846 460 846 603 q 797 208 846 317 q 660 42 747 100 q 460 -17 572 -17 m 460 74 q 606 122 543 74 q 704 256 669 169 q 739 460 739 343 q 704 660 739 575 q 606 792 669 746 q 460 839 543 839 q 312 792 375 839 q 214 660 249 746 q 179 460 179 575 q 214 256 179 343 q 313 121 249 168 q 460 74 376 74 m 260 1007 l 407 1164 l 513 1164 l 660 1007 l 615 974 l 463 1104 l 457 1104 l 304 974 l 260 1007 z "},"Ö":{"ha":918,"x_min":72,"x_max":846,"o":"m 460 -17 q 258 42 346 -17 q 122 208 171 100 q 72 460 72 317 q 122 709 72 603 q 258 872 171 815 q 460 929 346 929 q 660 872 572 929 q 797 709 747 815 q 846 460 846 603 q 797 208 846 317 q 660 42 747 100 q 460 -17 572 -17 m 460 74 q 606 122 543 74 q 704 256 669 169 q 739 460 739 343 q 704 660 739 575 q 606 792 669 746 q 460 839 543 839 q 312 792 375 839 q 214 660 249 746 q 179 460 179 575 q 214 256 179 343 q 313 121 249 168 q 460 74 376 74 m 319 997 q 274 1015 292 997 q 256 1061 256 1032 q 274 1106 256 1089 q 319 1124 292 1124 q 365 1106 347 1124 q 382 1061 382 1089 q 365 1015 382 1032 q 319 997 347 997 m 600 997 q 555 1015 572 997 q 538 1061 538 1032 q 555 1106 538 1089 q 600 1124 572 1124 q 646 1106 628 1124 q 664 1061 664 1089 q 646 1015 664 1032 q 600 997 628 997 z "},"Ọ":{"ha":918,"x_min":72,"x_max":846,"o":"m 460 -17 q 258 42 346 -17 q 122 208 171 100 q 72 460 72 317 q 122 709 72 603 q 258 872 171 815 q 460 929 346 929 q 660 872 572 929 q 797 709 747 815 q 846 460 846 603 q 797 208 846 317 q 660 42 747 100 q 460 -17 572 -17 m 460 74 q 606 122 543 74 q 704 256 669 169 q 739 460 739 343 q 704 660 739 575 q 606 792 669 746 q 460 839 543 839 q 312 792 375 839 q 214 660 249 746 q 179 460 179 575 q 214 256 179 343 q 313 121 249 168 q 460 74 376 74 m 460 -282 q 410 -262 429 -282 q 390 -211 390 -243 q 410 -162 390 -181 q 460 -143 429 -143 q 510 -162 490 -143 q 529 -211 529 -181 q 510 -262 529 -243 q 460 -282 490 -282 z "},"Ò":{"ha":918,"x_min":72,"x_max":846,"o":"m 460 -17 q 258 42 346 -17 q 122 208 171 100 q 72 460 72 317 q 122 709 72 603 q 258 872 171 815 q 460 929 346 929 q 660 872 572 929 q 797 709 747 815 q 846 460 846 603 q 797 208 846 317 q 660 42 747 100 q 460 -17 572 -17 m 460 74 q 606 122 543 74 q 704 256 669 169 q 739 460 739 343 q 704 660 739 575 q 606 792 669 746 q 460 839 543 839 q 312 792 375 839 q 214 660 249 746 q 179 460 179 575 q 214 256 179 343 q 313 121 249 168 q 460 74 376 74 m 281 1131 l 339 1199 l 529 1022 l 485 971 l 281 1131 z "},"Ō":{"ha":918,"x_min":72,"x_max":846,"o":"m 460 -17 q 258 42 346 -17 q 122 208 171 100 q 72 460 72 317 q 122 709 72 603 q 258 872 171 815 q 460 929 346 929 q 660 872 572 929 q 797 709 747 815 q 846 460 846 603 q 797 208 846 317 q 660 42 747 100 q 460 -17 572 -17 m 460 74 q 606 122 543 74 q 704 256 669 169 q 739 460 739 343 q 704 660 739 575 q 606 792 669 746 q 460 839 543 839 q 312 792 375 839 q 214 660 249 746 q 179 460 179 575 q 214 256 179 343 q 313 121 249 168 q 460 74 376 74 m 278 1096 l 642 1096 l 642 1024 l 278 1024 l 278 1096 z "},"Ø":{"ha":918,"x_min":71,"x_max":851,"o":"m 757 783 q 826 641 803 724 q 850 460 850 558 q 801 208 850 317 q 664 42 751 100 q 464 -17 576 -17 q 218 78 319 -17 l 129 -39 l 71 6 l 168 133 q 76 460 76 263 q 126 709 76 603 q 263 872 175 815 q 464 929 350 929 q 707 839 608 929 l 793 951 l 851 907 l 757 783 m 183 460 q 235 219 183 318 l 647 760 q 464 839 575 839 q 316 792 379 839 q 218 660 253 746 q 183 460 183 575 m 743 460 q 692 697 743 601 l 278 156 q 464 74 351 74 q 610 122 547 74 q 708 256 674 169 q 743 460 743 343 z "},"Õ":{"ha":918,"x_min":72,"x_max":846,"o":"m 460 -17 q 258 42 346 -17 q 122 208 171 100 q 72 460 72 317 q 122 709 72 603 q 258 872 171 815 q 460 929 346 929 q 660 872 572 929 q 797 709 747 815 q 846 460 846 603 q 797 208 846 317 q 660 42 747 100 q 460 -17 572 -17 m 460 74 q 606 122 543 74 q 704 256 669 169 q 739 460 739 343 q 704 660 739 575 q 606 792 669 746 q 460 839 543 839 q 312 792 375 839 q 214 660 249 746 q 179 460 179 575 q 214 256 179 343 q 313 121 249 168 q 460 74 376 74 m 565 988 q 498 1003 526 988 q 438 1046 469 1018 q 396 1078 414 1068 q 357 1089 378 1089 q 310 1064 329 1089 q 288 994 292 1039 l 218 999 q 258 1120 221 1075 q 354 1165 294 1165 q 422 1150 393 1165 q 482 1107 450 1135 q 524 1074 506 1085 q 563 1064 542 1064 q 608 1089 590 1064 q 632 1160 626 1114 l 701 1154 q 662 1033 699 1078 q 565 988 625 988 z "},"Œ":{"ha":1172,"x_min":72,"x_max":1104,"o":"m 511 0 q 188 122 303 0 q 72 460 72 244 q 188 794 72 675 q 515 913 303 913 l 1090 913 l 1090 825 l 699 825 l 699 524 l 1025 524 l 1025 438 l 699 438 l 699 88 l 1104 88 l 1104 0 l 511 0 m 596 85 l 596 828 l 524 828 q 267 733 354 828 q 179 460 179 638 q 267 183 179 282 q 524 85 354 85 l 596 85 z "},"P":{"ha":781,"x_min":128,"x_max":719,"o":"m 128 913 l 381 913 q 631 851 543 913 q 719 647 719 789 q 631 440 719 510 q 386 369 542 369 l 231 369 l 231 0 l 128 0 l 128 913 m 371 454 q 557 501 497 454 q 617 647 617 547 q 556 788 617 747 q 365 829 494 829 l 231 829 l 231 454 l 371 454 z "},"Þ":{"ha":803,"x_min":128,"x_max":733,"o":"m 128 913 l 231 913 l 231 757 l 400 757 q 647 695 560 757 q 733 492 733 633 q 644 284 733 354 q 400 214 556 214 l 231 214 l 231 0 l 128 0 l 128 913 m 385 297 q 571 344 511 297 q 631 492 631 392 q 572 632 631 592 q 385 672 513 672 l 231 672 l 231 297 l 385 297 z "},"Q":{"ha":918,"x_min":72,"x_max":861,"o":"m 861 -207 q 736 -226 808 -226 q 532 -168 617 -226 q 407 -14 447 -110 q 232 60 308 -1 q 114 225 156 122 q 72 460 72 328 q 122 709 72 603 q 258 872 171 815 q 460 929 346 929 q 660 872 572 929 q 797 709 747 815 q 846 460 846 603 q 805 228 846 329 q 690 65 764 126 q 519 -12 617 3 q 608 -106 549 -74 q 746 -139 668 -139 q 840 -125 793 -139 l 861 -207 m 179 460 q 214 253 179 342 q 312 117 249 165 q 460 69 375 69 q 606 117 543 69 q 704 253 669 165 q 739 460 739 342 q 704 660 739 575 q 606 792 669 746 q 460 839 543 839 q 312 792 375 839 q 214 660 249 746 q 179 460 179 575 z "},"R":{"ha":782,"x_min":128,"x_max":746,"o":"m 629 0 l 403 394 l 231 394 l 231 0 l 128 0 l 128 913 l 407 913 q 721 660 721 913 q 665 490 721 556 q 508 404 608 425 l 746 0 l 629 0 m 231 478 l 390 478 q 560 524 501 478 q 618 660 618 569 q 561 790 618 750 q 390 829 504 829 l 231 829 l 231 478 z "},"S":{"ha":736,"x_min":60,"x_max":682,"o":"m 376 -17 q 201 19 282 -17 q 60 119 119 56 l 122 190 q 239 105 172 136 q 378 74 306 74 q 524 117 471 74 q 578 232 578 160 q 558 308 578 278 q 508 357 539 339 q 422 400 478 375 l 290 458 q 158 547 210 493 q 106 692 106 601 q 142 814 106 760 q 242 899 178 868 q 386 929 307 929 q 534 899 465 929 q 651 817 603 868 l 596 751 q 386 839 506 839 q 257 800 306 839 q 208 697 208 761 q 231 625 208 654 q 282 579 253 596 q 361 540 311 563 l 493 482 q 633 389 583 444 q 682 239 682 333 q 644 108 682 167 q 538 17 607 50 q 376 -17 468 -17 z "},"Ś":{"ha":736,"x_min":60,"x_max":682,"o":"m 376 -17 q 201 19 282 -17 q 60 119 119 56 l 122 190 q 239 105 172 136 q 378 74 306 74 q 524 117 471 74 q 578 232 578 160 q 558 308 578 278 q 508 357 539 339 q 422 400 478 375 l 290 458 q 158 547 210 493 q 106 692 106 601 q 142 814 106 760 q 242 899 178 868 q 386 929 307 929 q 534 899 465 929 q 651 817 603 868 l 596 751 q 386 839 506 839 q 257 800 306 839 q 208 697 208 761 q 231 625 208 654 q 282 579 253 596 q 361 540 311 563 l 493 482 q 633 389 583 444 q 682 239 682 333 q 644 108 682 167 q 538 17 607 50 q 376 -17 468 -17 m 314 1022 l 504 1199 l 563 1131 l 358 971 l 314 1022 z "},"Š":{"ha":736,"x_min":60,"x_max":682,"o":"m 376 -17 q 201 19 282 -17 q 60 119 119 56 l 122 190 q 239 105 172 136 q 378 74 306 74 q 524 117 471 74 q 578 232 578 160 q 558 308 578 278 q 508 357 539 339 q 422 400 478 375 l 290 458 q 158 547 210 493 q 106 692 106 601 q 142 814 106 760 q 242 899 178 868 q 386 929 307 929 q 534 899 465 929 q 651 817 603 868 l 596 751 q 386 839 506 839 q 257 800 306 839 q 208 697 208 761 q 231 625 208 654 q 282 579 253 596 q 361 540 311 563 l 493 482 q 633 389 583 444 q 682 239 682 333 q 644 108 682 167 q 538 17 607 50 q 376 -17 468 -17 m 183 1139 l 228 1172 l 381 1042 l 386 1042 l 539 1172 l 583 1139 l 436 982 l 331 982 l 183 1139 z "},"Ṣ":{"ha":736,"x_min":60,"x_max":682,"o":"m 376 -17 q 201 19 282 -17 q 60 119 119 56 l 122 190 q 239 105 172 136 q 378 74 306 74 q 524 117 471 74 q 578 232 578 160 q 558 308 578 278 q 508 357 539 339 q 422 400 478 375 l 290 458 q 158 547 210 493 q 106 692 106 601 q 142 814 106 760 q 242 899 178 868 q 386 929 307 929 q 534 899 465 929 q 651 817 603 868 l 596 751 q 386 839 506 839 q 257 800 306 839 q 208 697 208 761 q 231 625 208 654 q 282 579 253 596 q 361 540 311 563 l 493 482 q 633 389 583 444 q 682 239 682 333 q 644 108 682 167 q 538 17 607 50 q 376 -17 468 -17 m 378 -282 q 328 -262 347 -282 q 308 -211 308 -243 q 328 -162 308 -181 q 378 -143 347 -143 q 428 -162 408 -143 q 447 -211 447 -181 q 428 -262 447 -243 q 378 -282 408 -282 z "},"Ə":{"ha":910,"x_min":82,"x_max":838,"o":"m 458 929 q 738 806 638 929 q 838 458 838 683 q 790 203 838 310 q 656 40 743 96 q 453 -17 569 -17 q 254 41 338 -17 q 126 204 171 99 q 82 451 82 310 l 83 481 l 736 481 q 659 750 732 657 q 451 843 586 843 q 326 819 385 843 q 225 753 268 794 l 175 824 q 299 900 226 871 q 458 929 371 929 m 453 69 q 649 156 575 69 q 735 403 724 243 l 186 403 q 264 158 192 247 q 453 69 336 69 z "},"T":{"ha":740,"x_min":39,"x_max":701,"o":"m 319 825 l 39 825 l 39 913 l 701 913 l 701 825 l 422 825 l 422 0 l 319 0 l 319 825 z "},"Ṭ":{"ha":740,"x_min":39,"x_max":701,"o":"m 319 825 l 39 825 l 39 913 l 701 913 l 701 825 l 422 825 l 422 0 l 319 0 l 319 825 m 371 -282 q 321 -262 340 -282 q 301 -211 301 -243 q 321 -162 301 -181 q 371 -143 340 -143 q 421 -162 401 -143 q 440 -211 440 -181 q 421 -262 440 -243 q 371 -282 401 -282 z "},"Ṯ":{"ha":740,"x_min":39,"x_max":701,"o":"m 319 825 l 39 825 l 39 913 l 701 913 l 701 825 l 422 825 l 422 0 l 319 0 l 319 825 m 190 -161 l 551 -161 l 551 -233 l 190 -233 l 190 -161 z "},"U":{"ha":893,"x_min":124,"x_max":769,"o":"m 446 -17 q 211 74 299 -17 q 124 369 124 165 l 124 913 l 226 913 l 226 369 q 286 142 226 211 q 446 74 346 74 q 610 142 549 74 q 671 369 671 211 l 671 913 l 769 913 l 769 369 q 681 74 769 165 q 446 -17 593 -17 z "},"Ú":{"ha":893,"x_min":124,"x_max":769,"o":"m 446 -17 q 211 74 299 -17 q 124 369 124 165 l 124 913 l 226 913 l 226 369 q 286 142 226 211 q 446 74 346 74 q 610 142 549 74 q 671 369 671 211 l 671 913 l 769 913 l 769 369 q 681 74 769 165 q 446 -17 593 -17 m 376 1022 l 567 1199 l 625 1131 l 421 971 l 376 1022 z "},"Û":{"ha":893,"x_min":124,"x_max":769,"o":"m 446 -17 q 211 74 299 -17 q 124 369 124 165 l 124 913 l 226 913 l 226 369 q 286 142 226 211 q 446 74 346 74 q 610 142 549 74 q 671 369 671 211 l 671 913 l 769 913 l 769 369 q 681 74 769 165 q 446 -17 593 -17 m 246 1007 l 393 1164 l 499 1164 l 646 1007 l 601 974 l 449 1104 l 443 1104 l 290 974 l 246 1007 z "},"Ü":{"ha":893,"x_min":124,"x_max":769,"o":"m 446 -17 q 211 74 299 -17 q 124 369 124 165 l 124 913 l 226 913 l 226 369 q 286 142 226 211 q 446 74 346 74 q 610 142 549 74 q 671 369 671 211 l 671 913 l 769 913 l 769 369 q 681 74 769 165 q 446 -17 593 -17 m 306 997 q 260 1015 278 997 q 242 1061 242 1032 q 260 1106 242 1089 q 306 1124 278 1124 q 351 1106 333 1124 q 368 1061 368 1089 q 351 1015 368 1032 q 306 997 333 997 m 586 997 q 541 1015 558 997 q 524 1061 524 1032 q 541 1106 524 1089 q 586 1124 558 1124 q 632 1106 614 1124 q 650 1061 650 1089 q 632 1015 650 1032 q 586 997 614 997 z "},"Ù":{"ha":893,"x_min":124,"x_max":769,"o":"m 446 -17 q 211 74 299 -17 q 124 369 124 165 l 124 913 l 226 913 l 226 369 q 286 142 226 211 q 446 74 346 74 q 610 142 549 74 q 671 369 671 211 l 671 913 l 769 913 l 769 369 q 681 74 769 165 q 446 -17 593 -17 m 267 1131 l 325 1199 l 515 1022 l 471 971 l 267 1131 z "},"Ū":{"ha":893,"x_min":124,"x_max":769,"o":"m 446 -17 q 211 74 299 -17 q 124 369 124 165 l 124 913 l 226 913 l 226 369 q 286 142 226 211 q 446 74 346 74 q 610 142 549 74 q 671 369 671 211 l 671 913 l 769 913 l 769 369 q 681 74 769 165 q 446 -17 593 -17 m 264 1096 l 628 1096 l 628 1024 l 264 1024 l 264 1096 z "},"V":{"ha":707,"x_min":1,"x_max":706,"o":"m 1 913 l 111 913 l 264 410 q 296 301 286 331 q 353 107 319 213 l 358 107 q 422 318 374 153 l 449 410 l 601 913 l 706 913 l 414 0 l 296 0 l 1 913 z "},"Ṿ":{"ha":707,"x_min":1,"x_max":706,"o":"m 1 913 l 111 913 l 264 410 q 296 301 286 331 q 353 107 319 213 l 358 107 q 422 318 374 153 l 449 410 l 601 913 l 706 913 l 414 0 l 296 0 l 1 913 m 354 -282 q 304 -262 324 -282 q 285 -211 285 -243 q 304 -162 285 -181 q 354 -143 324 -143 q 404 -162 385 -143 q 424 -211 424 -181 q 404 -262 424 -243 q 354 -282 385 -282 z "},"W":{"ha":1086,"x_min":33,"x_max":1051,"o":"m 33 913 l 140 913 l 240 406 l 296 110 l 301 110 q 367 406 322 208 l 499 913 l 593 913 l 724 406 q 750 293 740 331 l 792 110 l 797 110 l 813 192 q 851 406 836 324 l 951 913 l 1051 913 l 858 0 l 736 0 l 590 568 q 580 615 585 594 q 572 651 575 636 q 546 775 561 701 l 540 775 l 493 568 l 351 0 l 231 0 l 33 913 z "},"X":{"ha":701,"x_min":22,"x_max":681,"o":"m 289 472 l 39 913 l 153 913 l 283 669 l 356 539 l 361 539 q 426 669 396 613 l 554 913 l 663 913 l 413 467 l 681 0 l 567 0 l 426 254 q 365 367 407 293 q 358 381 363 372 q 347 400 353 390 l 342 400 q 282 281 321 356 l 268 254 l 129 0 l 22 0 l 289 472 z "},"Y":{"ha":650,"x_min":0,"x_max":651,"o":"m 274 358 l 0 913 l 110 913 l 232 647 l 256 596 q 324 450 311 475 l 329 450 l 353 499 q 422 647 411 621 l 544 913 l 651 913 l 376 358 l 376 0 l 274 0 l 274 358 z "},"Ý":{"ha":650,"x_min":0,"x_max":651,"o":"m 274 358 l 0 913 l 110 913 l 232 647 l 256 596 q 324 450 311 475 l 329 450 l 353 499 q 422 647 411 621 l 544 913 l 651 913 l 376 358 l 376 0 l 274 0 l 274 358 m 256 1022 l 446 1199 l 504 1131 l 300 971 l 256 1022 z "},"Ÿ":{"ha":650,"x_min":0,"x_max":651,"o":"m 274 358 l 0 913 l 110 913 l 232 647 l 256 596 q 324 450 311 475 l 329 450 l 353 499 q 422 647 411 621 l 544 913 l 651 913 l 376 358 l 376 0 l 274 0 l 274 358 m 185 997 q 139 1015 157 997 q 121 1061 121 1032 q 139 1106 121 1089 q 185 1124 157 1124 q 230 1106 213 1124 q 247 1061 247 1089 q 230 1015 247 1032 q 185 997 213 997 m 465 997 q 420 1015 438 997 q 403 1061 403 1032 q 420 1106 403 1089 q 465 1124 438 1124 q 511 1106 493 1124 q 529 1061 529 1089 q 511 1015 529 1032 q 465 997 493 997 z "},"Z":{"ha":749,"x_min":64,"x_max":688,"o":"m 64 61 l 556 825 l 108 825 l 108 913 l 683 913 l 683 851 l 192 88 l 688 88 l 688 0 l 64 0 l 64 61 z "},"Ž":{"ha":749,"x_min":64,"x_max":688,"o":"m 64 61 l 556 825 l 108 825 l 108 913 l 683 913 l 683 851 l 192 88 l 688 88 l 688 0 l 64 0 l 64 61 m 189 1139 l 233 1172 l 386 1042 l 392 1042 l 544 1172 l 589 1139 l 442 982 l 336 982 l 189 1139 z "},"Ẓ":{"ha":749,"x_min":64,"x_max":688,"o":"m 64 61 l 556 825 l 108 825 l 108 913 l 683 913 l 683 851 l 192 88 l 688 88 l 688 0 l 64 0 l 64 61 m 392 -282 q 342 -262 361 -282 q 322 -211 322 -243 q 342 -162 322 -181 q 392 -143 361 -143 q 442 -162 422 -143 q 461 -211 461 -181 q 442 -262 461 -243 q 392 -282 422 -282 z "},"Ẕ":{"ha":749,"x_min":64,"x_max":688,"o":"m 64 61 l 556 825 l 108 825 l 108 913 l 683 913 l 683 851 l 192 88 l 688 88 l 688 0 l 64 0 l 64 61 m 211 -161 l 572 -161 l 572 -233 l 211 -233 l 211 -161 z "},"a":{"ha":696,"x_min":74,"x_max":593,"o":"m 271 -17 q 129 33 185 -17 q 74 174 74 83 q 174 342 74 283 q 493 425 274 401 q 460 555 493 504 q 349 606 428 606 q 144 532 253 606 l 104 601 q 365 690 238 690 q 538 617 482 690 q 593 417 593 544 l 593 0 l 510 0 l 501 82 l 497 82 q 271 -17 378 -17 m 297 65 q 392 88 346 65 q 493 160 439 111 l 493 357 q 247 293 319 336 q 174 179 174 250 q 208 94 174 122 q 297 65 243 65 z "},"á":{"ha":696,"x_min":74,"x_max":593,"o":"m 271 -17 q 129 33 185 -17 q 74 174 74 83 q 174 342 74 283 q 493 425 274 401 q 460 555 493 504 q 349 606 428 606 q 144 532 253 606 l 104 601 q 365 690 238 690 q 538 617 482 690 q 593 417 593 544 l 593 0 l 510 0 l 501 82 l 497 82 q 271 -17 378 -17 m 297 65 q 392 88 346 65 q 493 160 439 111 l 493 357 q 247 293 319 336 q 174 179 174 250 q 208 94 174 122 q 297 65 243 65 m 296 847 l 490 1075 l 563 1008 l 349 796 l 296 847 z "},"ă":{"ha":696,"x_min":74,"x_max":593,"o":"m 271 -17 q 129 33 185 -17 q 74 174 74 83 q 174 342 74 283 q 493 425 274 401 q 460 555 493 504 q 349 606 428 606 q 144 532 253 606 l 104 601 q 365 690 238 690 q 538 617 482 690 q 593 417 593 544 l 593 0 l 510 0 l 501 82 l 497 82 q 271 -17 378 -17 m 297 65 q 392 88 346 65 q 493 160 439 111 l 493 357 q 247 293 319 336 q 174 179 174 250 q 208 94 174 122 q 297 65 243 65 m 374 793 q 219 854 272 793 q 160 1001 167 915 l 225 1011 q 271 906 233 950 q 374 863 308 863 q 476 906 439 863 q 522 1011 514 950 l 588 1001 q 528 854 581 915 q 374 793 475 793 z "},"â":{"ha":696,"x_min":74,"x_max":593,"o":"m 271 -17 q 129 33 185 -17 q 74 174 74 83 q 174 342 74 283 q 493 425 274 401 q 460 555 493 504 q 349 606 428 606 q 144 532 253 606 l 104 601 q 365 690 238 690 q 538 617 482 690 q 593 417 593 544 l 593 0 l 510 0 l 501 82 l 497 82 q 271 -17 378 -17 m 297 65 q 392 88 346 65 q 493 160 439 111 l 493 357 q 247 293 319 336 q 174 179 174 250 q 208 94 174 122 q 297 65 243 65 m 164 831 l 324 1026 l 424 1026 l 583 831 l 539 790 l 376 951 l 371 951 l 208 790 l 164 831 z "},"ä":{"ha":696,"x_min":74,"x_max":593,"o":"m 271 -17 q 129 33 185 -17 q 74 174 74 83 q 174 342 74 283 q 493 425 274 401 q 460 555 493 504 q 349 606 428 606 q 144 532 253 606 l 104 601 q 365 690 238 690 q 538 617 482 690 q 593 417 593 544 l 593 0 l 510 0 l 501 82 l 497 82 q 271 -17 378 -17 m 297 65 q 392 88 346 65 q 493 160 439 111 l 493 357 q 247 293 319 336 q 174 179 174 250 q 208 94 174 122 q 297 65 243 65 m 243 819 q 197 838 215 819 q 178 883 178 856 q 197 930 178 911 q 243 949 215 949 q 289 930 271 949 q 307 883 307 911 q 288 838 307 857 q 243 819 269 819 m 504 819 q 459 838 478 819 q 440 883 440 857 q 458 930 440 911 q 504 949 476 949 q 551 930 532 949 q 569 883 569 911 q 551 838 569 856 q 504 819 532 819 z "},"ạ":{"ha":696,"x_min":74,"x_max":593,"o":"m 271 -17 q 129 33 185 -17 q 74 174 74 83 q 174 342 74 283 q 493 425 274 401 q 460 555 493 504 q 349 606 428 606 q 144 532 253 606 l 104 601 q 365 690 238 690 q 538 617 482 690 q 593 417 593 544 l 593 0 l 510 0 l 501 82 l 497 82 q 271 -17 378 -17 m 297 65 q 392 88 346 65 q 493 160 439 111 l 493 357 q 247 293 319 336 q 174 179 174 250 q 208 94 174 122 q 297 65 243 65 m 343 -282 q 293 -262 313 -282 q 274 -211 274 -243 q 293 -162 274 -181 q 343 -143 313 -143 q 393 -162 374 -143 q 413 -211 413 -181 q 393 -262 413 -243 q 343 -282 374 -282 z "},"à":{"ha":696,"x_min":74,"x_max":593,"o":"m 271 -17 q 129 33 185 -17 q 74 174 74 83 q 174 342 74 283 q 493 425 274 401 q 460 555 493 504 q 349 606 428 606 q 144 532 253 606 l 104 601 q 365 690 238 690 q 538 617 482 690 q 593 417 593 544 l 593 0 l 510 0 l 501 82 l 497 82 q 271 -17 378 -17 m 297 65 q 392 88 346 65 q 493 160 439 111 l 493 357 q 247 293 319 336 q 174 179 174 250 q 208 94 174 122 q 297 65 243 65 m 185 1008 l 257 1075 l 451 847 l 399 796 l 185 1008 z "},"ā":{"ha":696,"x_min":74,"x_max":593,"o":"m 271 -17 q 129 33 185 -17 q 74 174 74 83 q 174 342 74 283 q 493 425 274 401 q 460 555 493 504 q 349 606 428 606 q 144 532 253 606 l 104 601 q 365 690 238 690 q 538 617 482 690 q 593 417 593 544 l 593 0 l 510 0 l 501 82 l 497 82 q 271 -17 378 -17 m 297 65 q 392 88 346 65 q 493 160 439 111 l 493 357 q 247 293 319 336 q 174 179 174 250 q 208 94 174 122 q 297 65 243 65 m 193 908 l 554 908 l 554 836 l 193 836 l 193 908 z "},"å":{"ha":696,"x_min":74,"x_max":593,"o":"m 271 -17 q 129 33 185 -17 q 74 174 74 83 q 174 342 74 283 q 493 425 274 401 q 460 555 493 504 q 349 606 428 606 q 144 532 253 606 l 104 601 q 365 690 238 690 q 538 617 482 690 q 593 417 593 544 l 593 0 l 510 0 l 501 82 l 497 82 q 271 -17 378 -17 m 297 65 q 392 88 346 65 q 493 160 439 111 l 493 357 q 247 293 319 336 q 174 179 174 250 q 208 94 174 122 q 297 65 243 65 m 374 768 q 267 806 307 768 q 226 903 226 843 q 267 1001 226 963 q 374 1039 307 1039 q 481 1001 440 1039 q 521 903 521 963 q 481 806 521 843 q 374 768 440 768 m 374 815 q 432 840 408 815 q 456 903 456 864 q 432 967 456 943 q 374 992 408 992 q 315 967 339 992 q 292 903 292 943 q 315 840 292 864 q 374 815 339 815 z "},"ã":{"ha":696,"x_min":74,"x_max":611,"o":"m 271 -17 q 129 33 185 -17 q 74 174 74 83 q 174 342 74 283 q 493 425 274 401 q 460 555 493 504 q 349 606 428 606 q 144 532 253 606 l 104 601 q 365 690 238 690 q 538 617 482 690 q 593 417 593 544 l 593 0 l 510 0 l 501 82 l 497 82 q 271 -17 378 -17 m 297 65 q 392 88 346 65 q 493 160 439 111 l 493 357 q 247 293 319 336 q 174 179 174 250 q 208 94 174 122 q 297 65 243 65 m 475 803 q 413 820 439 803 q 353 871 386 838 q 310 910 326 897 q 272 922 293 922 q 206 808 213 922 l 136 813 q 173 947 140 897 q 274 997 206 997 q 336 979 310 997 q 394 928 363 961 q 436 890 418 903 q 475 876 454 876 q 522 908 506 876 q 542 992 539 939 l 611 986 q 574 853 607 903 q 475 803 542 803 z "},"ɐ":{"ha":706,"x_min":107,"x_max":626,"o":"m 374 -17 q 172 59 236 -17 q 107 267 107 135 l 107 674 l 190 674 l 200 576 l 203 576 q 317 660 254 629 q 446 690 381 690 q 576 644 526 690 q 626 515 626 599 q 526 336 626 400 q 208 247 426 272 q 249 119 208 171 q 386 67 289 67 q 579 142 478 67 l 621 71 q 374 -17 496 -17 m 208 317 q 454 383 381 338 q 528 503 528 428 q 497 581 528 556 q 415 607 465 607 q 208 497 313 607 l 208 317 z "},"æ":{"ha":1090,"x_min":83,"x_max":1038,"o":"m 281 -17 q 139 33 194 -17 q 83 172 83 83 q 183 342 83 282 q 496 425 282 401 q 353 606 496 606 q 154 532 263 606 l 114 601 q 364 690 247 690 q 488 651 439 690 q 558 540 536 611 q 656 651 597 611 q 782 690 714 690 q 970 606 903 690 q 1038 374 1038 521 q 1033 314 1038 339 l 590 314 q 620 185 592 242 q 698 98 649 129 q 807 67 747 67 q 893 81 854 67 q 974 124 932 96 l 1011 53 q 910 1 960 19 q 794 -17 860 -17 q 659 19 717 -17 q 557 113 601 54 q 418 17 490 50 q 281 -17 346 -17 m 947 382 q 903 550 947 492 q 781 608 860 608 q 653 546 706 608 q 590 382 600 483 l 947 382 m 307 65 q 415 94 357 65 q 522 175 474 124 q 496 322 496 235 l 494 357 q 256 293 329 336 q 183 179 183 250 q 218 94 183 122 q 307 65 253 65 z "},"b":{"ha":765,"x_min":118,"x_max":699,"o":"m 407 -17 q 308 6 360 -17 q 213 69 257 29 l 208 69 l 199 0 l 118 0 l 118 992 l 218 992 l 218 717 l 215 593 q 432 690 328 690 q 630 598 561 690 q 699 347 699 506 q 658 153 699 236 q 551 27 618 71 q 407 -17 485 -17 m 390 69 q 495 103 449 69 q 568 200 542 138 q 594 346 594 263 q 549 535 594 467 q 408 604 504 604 q 218 507 322 604 l 218 143 q 308 88 263 106 q 390 69 353 69 z "},"ḇ":{"ha":765,"x_min":118,"x_max":699,"o":"m 407 -17 q 308 6 360 -17 q 213 69 257 29 l 208 69 l 199 0 l 118 0 l 118 992 l 218 992 l 218 717 l 215 593 q 432 690 328 690 q 630 598 561 690 q 699 347 699 506 q 658 153 699 236 q 551 27 618 71 q 407 -17 485 -17 m 390 69 q 495 103 449 69 q 568 200 542 138 q 594 346 594 263 q 549 535 594 467 q 408 604 504 604 q 218 507 322 604 l 218 143 q 308 88 263 106 q 390 69 353 69 m 208 -161 l 569 -161 l 569 -233 l 208 -233 l 208 -161 z "},"c":{"ha":631,"x_min":65,"x_max":596,"o":"m 379 -17 q 219 26 290 -17 q 106 147 147 68 q 65 336 65 226 q 109 525 65 444 q 226 648 153 606 q 386 690 300 690 q 582 610 496 690 l 529 543 q 463 590 496 574 q 390 606 429 606 q 278 572 328 606 q 199 476 228 538 q 171 336 171 415 q 231 142 171 215 q 388 68 290 68 q 551 138 475 68 l 596 69 q 494 6 550 29 q 379 -17 439 -17 z "},"č":{"ha":631,"x_min":65,"x_max":596,"o":"m 379 -17 q 219 26 290 -17 q 106 147 147 68 q 65 336 65 226 q 109 525 65 444 q 226 648 153 606 q 386 690 300 690 q 582 610 496 690 l 529 543 q 463 590 496 574 q 390 606 429 606 q 278 572 328 606 q 199 476 228 538 q 171 336 171 415 q 231 142 171 215 q 388 68 290 68 q 551 138 475 68 l 596 69 q 494 6 550 29 q 379 -17 439 -17 m 168 992 l 213 1033 l 375 871 l 381 871 l 543 1033 l 588 992 l 428 797 l 328 797 l 168 992 z "},"ç":{"ha":631,"x_min":65,"x_max":596,"o":"m 379 -89 q 454 -124 429 -101 q 479 -187 479 -147 q 258 -311 479 -300 l 247 -258 q 366 -237 332 -253 q 400 -189 400 -221 q 375 -146 400 -161 q 292 -122 350 -131 l 343 -15 q 199 38 263 -7 q 101 158 136 82 q 65 336 65 235 q 109 525 65 444 q 226 648 153 606 q 386 690 300 690 q 582 610 496 690 l 529 543 q 463 590 496 574 q 390 606 429 606 q 278 572 328 606 q 199 476 228 538 q 171 336 171 415 q 231 142 171 215 q 388 68 290 68 q 551 138 475 68 l 596 69 q 411 -15 515 -3 l 379 -89 z "},"d":{"ha":767,"x_min":68,"x_max":649,"o":"m 344 -17 q 142 76 217 -17 q 68 336 68 169 q 108 522 68 442 q 216 647 149 603 q 361 690 283 690 q 458 671 415 690 q 553 611 501 651 l 549 728 l 549 992 l 649 992 l 649 0 l 565 0 l 557 82 l 553 82 q 456 10 510 38 q 344 -17 403 -17 m 367 69 q 459 93 415 69 q 549 165 503 117 l 549 531 q 463 587 504 569 q 376 604 421 604 q 273 569 319 604 q 199 474 226 535 q 172 336 172 413 q 223 140 172 211 q 367 69 274 69 z "},"ð":{"ha":753,"x_min":76,"x_max":668,"o":"m 481 842 q 668 356 668 650 q 631 160 668 244 q 527 30 594 76 q 372 -17 460 -17 q 226 23 294 -17 q 117 137 158 63 q 76 308 76 211 q 113 470 76 400 q 215 579 150 540 q 363 618 281 618 q 467 595 418 618 q 551 526 515 572 q 401 801 517 688 l 206 700 l 176 751 l 354 843 q 194 947 288 896 l 242 1013 q 433 885 357 950 l 631 986 l 660 933 l 481 842 m 375 68 q 520 145 471 68 q 569 351 569 222 q 567 433 569 381 q 476 516 524 493 q 376 539 429 539 q 226 474 281 539 q 172 308 172 410 q 200 183 172 238 q 274 99 228 129 q 375 68 319 68 z "},"ḍ":{"ha":767,"x_min":68,"x_max":649,"o":"m 344 -17 q 142 76 217 -17 q 68 336 68 169 q 108 522 68 442 q 216 647 149 603 q 361 690 283 690 q 458 671 415 690 q 553 611 501 651 l 549 728 l 549 992 l 649 992 l 649 0 l 565 0 l 557 82 l 553 82 q 456 10 510 38 q 344 -17 403 -17 m 367 69 q 459 93 415 69 q 549 165 503 117 l 549 531 q 463 587 504 569 q 376 604 421 604 q 273 569 319 604 q 199 474 226 535 q 172 336 172 413 q 223 140 172 211 q 367 69 274 69 m 408 -282 q 358 -262 378 -282 q 339 -211 339 -243 q 358 -162 339 -181 q 408 -143 378 -143 q 458 -162 439 -143 q 478 -211 478 -181 q 458 -262 478 -243 q 408 -282 439 -282 z "},"ḏ":{"ha":767,"x_min":68,"x_max":649,"o":"m 344 -17 q 142 76 217 -17 q 68 336 68 169 q 108 522 68 442 q 216 647 149 603 q 361 690 283 690 q 458 671 415 690 q 553 611 501 651 l 549 728 l 549 992 l 649 992 l 649 0 l 565 0 l 557 82 l 553 82 q 456 10 510 38 q 344 -17 403 -17 m 367 69 q 459 93 415 69 q 549 165 503 117 l 549 531 q 463 587 504 569 q 376 604 421 604 q 273 569 319 604 q 199 474 226 535 q 172 336 172 413 q 223 140 172 211 q 367 69 274 69 m 228 -161 l 589 -161 l 589 -233 l 228 -233 l 228 -161 z "},"e":{"ha":683,"x_min":65,"x_max":632,"o":"m 632 375 q 628 314 632 339 l 163 314 q 235 131 169 196 q 397 65 301 65 q 568 119 486 65 l 606 53 q 503 2 556 21 q 385 -17 450 -17 q 223 26 296 -17 q 108 149 150 68 q 65 336 65 229 q 108 522 65 442 q 219 647 150 603 q 367 690 289 690 q 562 606 492 690 q 632 375 632 522 m 542 388 q 496 551 542 494 q 368 608 450 608 q 235 551 293 608 q 165 388 176 494 l 542 388 z "},"é":{"ha":683,"x_min":65,"x_max":632,"o":"m 632 375 q 628 314 632 339 l 163 314 q 235 131 169 196 q 397 65 301 65 q 568 119 486 65 l 606 53 q 503 2 556 21 q 385 -17 450 -17 q 223 26 296 -17 q 108 149 150 68 q 65 336 65 229 q 108 522 65 442 q 219 647 150 603 q 367 690 289 690 q 562 606 492 690 q 632 375 632 522 m 542 388 q 496 551 542 494 q 368 608 450 608 q 235 551 293 608 q 165 388 176 494 l 542 388 m 292 847 l 486 1075 l 558 1008 l 344 796 l 292 847 z "},"ĕ":{"ha":683,"x_min":65,"x_max":632,"o":"m 632 375 q 628 314 632 339 l 163 314 q 235 131 169 196 q 397 65 301 65 q 568 119 486 65 l 606 53 q 503 2 556 21 q 385 -17 450 -17 q 223 26 296 -17 q 108 149 150 68 q 65 336 65 229 q 108 522 65 442 q 219 647 150 603 q 367 690 289 690 q 562 606 492 690 q 632 375 632 522 m 542 388 q 496 551 542 494 q 368 608 450 608 q 235 551 293 608 q 165 388 176 494 l 542 388 m 369 793 q 215 854 268 793 q 156 1001 163 915 l 221 1011 q 267 906 229 950 q 369 863 304 863 q 472 906 435 863 q 518 1011 510 950 l 583 1001 q 524 854 576 915 q 369 793 471 793 z "},"ê":{"ha":683,"x_min":65,"x_max":632,"o":"m 632 375 q 628 314 632 339 l 163 314 q 235 131 169 196 q 397 65 301 65 q 568 119 486 65 l 606 53 q 503 2 556 21 q 385 -17 450 -17 q 223 26 296 -17 q 108 149 150 68 q 65 336 65 229 q 108 522 65 442 q 219 647 150 603 q 367 690 289 690 q 562 606 492 690 q 632 375 632 522 m 542 388 q 496 551 542 494 q 368 608 450 608 q 235 551 293 608 q 165 388 176 494 l 542 388 m 160 831 l 319 1026 l 419 1026 l 579 831 l 535 790 l 372 951 l 367 951 l 204 790 l 160 831 z "},"ë":{"ha":683,"x_min":65,"x_max":632,"o":"m 632 375 q 628 314 632 339 l 163 314 q 235 131 169 196 q 397 65 301 65 q 568 119 486 65 l 606 53 q 503 2 556 21 q 385 -17 450 -17 q 223 26 296 -17 q 108 149 150 68 q 65 336 65 229 q 108 522 65 442 q 219 647 150 603 q 367 690 289 690 q 562 606 492 690 q 632 375 632 522 m 542 388 q 496 551 542 494 q 368 608 450 608 q 235 551 293 608 q 165 388 176 494 l 542 388 m 239 819 q 192 838 211 819 q 174 883 174 856 q 192 930 174 911 q 239 949 211 949 q 285 930 267 949 q 303 883 303 911 q 284 838 303 857 q 239 819 265 819 m 500 819 q 455 838 474 819 q 436 883 436 857 q 454 930 436 911 q 500 949 472 949 q 547 930 528 949 q 565 883 565 911 q 547 838 565 856 q 500 819 528 819 z "},"ẹ":{"ha":683,"x_min":65,"x_max":632,"o":"m 632 375 q 628 314 632 339 l 163 314 q 235 131 169 196 q 397 65 301 65 q 568 119 486 65 l 606 53 q 503 2 556 21 q 385 -17 450 -17 q 223 26 296 -17 q 108 149 150 68 q 65 336 65 229 q 108 522 65 442 q 219 647 150 603 q 367 690 289 690 q 562 606 492 690 q 632 375 632 522 m 542 388 q 496 551 542 494 q 368 608 450 608 q 235 551 293 608 q 165 388 176 494 l 542 388 m 356 -282 q 306 -262 325 -282 q 286 -211 286 -243 q 306 -162 286 -181 q 356 -143 325 -143 q 406 -162 386 -143 q 425 -211 425 -181 q 406 -262 425 -243 q 356 -282 386 -282 z "},"è":{"ha":683,"x_min":65,"x_max":632,"o":"m 632 375 q 628 314 632 339 l 163 314 q 235 131 169 196 q 397 65 301 65 q 568 119 486 65 l 606 53 q 503 2 556 21 q 385 -17 450 -17 q 223 26 296 -17 q 108 149 150 68 q 65 336 65 229 q 108 522 65 442 q 219 647 150 603 q 367 690 289 690 q 562 606 492 690 q 632 375 632 522 m 542 388 q 496 551 542 494 q 368 608 450 608 q 235 551 293 608 q 165 388 176 494 l 542 388 m 181 1008 l 253 1075 l 447 847 l 394 796 l 181 1008 z "},"ē":{"ha":683,"x_min":65,"x_max":632,"o":"m 632 375 q 628 314 632 339 l 163 314 q 235 131 169 196 q 397 65 301 65 q 568 119 486 65 l 606 53 q 503 2 556 21 q 385 -17 450 -17 q 223 26 296 -17 q 108 149 150 68 q 65 336 65 229 q 108 522 65 442 q 219 647 150 603 q 367 690 289 690 q 562 606 492 690 q 632 375 632 522 m 542 388 q 496 551 542 494 q 368 608 450 608 q 235 551 293 608 q 165 388 176 494 l 542 388 m 189 908 l 550 908 l 550 836 l 189 836 l 189 908 z "},"ę":{"ha":683,"x_min":65,"x_max":632,"o":"m 496 -285 q 408 -254 442 -285 q 374 -168 374 -224 q 399 -79 374 -121 q 458 -6 424 -37 q 385 -17 429 -17 q 223 26 296 -17 q 108 149 150 68 q 65 336 65 229 q 108 522 65 442 q 219 647 150 603 q 367 690 289 690 q 562 606 492 690 q 632 375 632 522 q 628 314 632 339 l 167 314 q 233 133 171 201 q 397 65 296 65 q 568 119 486 65 l 606 53 q 484 -56 518 -10 q 450 -149 450 -103 q 469 -198 450 -181 q 515 -215 488 -215 q 572 -197 549 -215 l 600 -249 q 551 -274 582 -264 q 496 -285 521 -285 m 542 388 q 496 551 542 494 q 368 608 450 608 q 233 549 290 608 q 165 388 175 489 l 542 388 z "},"ɛ":{"ha":606,"x_min":71,"x_max":578,"o":"m 343 -17 q 149 39 226 -17 q 71 185 71 94 q 113 294 71 253 q 221 354 156 336 l 221 360 q 138 420 168 379 q 107 510 107 461 q 176 643 107 596 q 347 690 246 690 q 550 622 454 690 l 508 554 q 429 594 467 581 q 350 608 392 608 q 248 580 288 608 q 208 499 208 551 q 250 417 208 447 q 374 388 292 388 l 447 388 l 447 314 l 354 314 q 219 283 267 314 q 172 193 172 251 q 222 100 172 135 q 354 65 272 65 q 445 80 403 65 q 533 129 488 94 l 578 61 q 466 1 521 19 q 343 -17 411 -17 z "},"ʃ":{"ha":336,"x_min":-53,"x_max":390,"o":"m 43 -306 q -53 -289 -6 -306 l -32 -211 q 33 -222 1 -222 q 100 -189 82 -222 q 118 -87 118 -156 l 118 793 q 163 956 118 900 q 308 1011 208 1011 q 390 993 351 1011 l 369 915 q 318 928 338 928 q 240 894 261 928 q 219 792 219 860 l 219 -89 q 177 -250 219 -194 q 43 -306 135 -306 z "},"ʒ":{"ha":582,"x_min":4,"x_max":558,"o":"m 275 -306 q 120 -276 183 -306 q 4 -199 57 -247 l 56 -133 q 148 -197 99 -174 q 268 -221 197 -221 q 362 -194 319 -221 q 430 -118 404 -167 q 456 -7 456 -69 q 405 134 456 83 q 261 185 354 185 q 217 180 233 185 q 172 161 201 175 l 131 221 l 404 590 l 61 590 l 61 674 l 528 674 l 528 619 l 258 256 q 304 258 292 258 q 490 185 421 258 q 558 -3 558 113 q 519 -165 558 -96 q 415 -269 479 -233 q 275 -306 350 -306 z "},"f":{"ha":394,"x_min":42,"x_max":432,"o":"m 332 925 q 235 789 235 925 l 235 674 l 381 674 l 381 590 l 235 590 l 235 0 l 133 0 l 133 590 l 42 590 l 42 667 l 133 674 l 133 790 q 181 951 133 894 q 324 1008 229 1008 q 432 986 378 1008 l 410 908 q 332 925 371 925 z "},"g":{"ha":694,"x_min":65,"x_max":678,"o":"m 343 -314 q 141 -265 217 -314 q 65 -132 65 -217 q 91 -49 65 -89 q 164 24 117 -8 l 164 29 q 121 74 138 46 q 104 139 104 101 q 126 210 104 178 q 178 264 147 243 l 178 269 q 117 346 142 299 q 92 450 92 393 q 125 576 92 521 q 215 660 158 631 q 340 690 272 690 q 433 674 386 690 l 667 674 l 667 594 l 524 594 q 567 531 550 569 q 583 449 583 492 q 551 326 583 379 q 464 243 519 272 q 340 214 408 214 q 238 238 285 214 q 203 201 215 219 q 192 154 192 182 q 219 98 192 118 q 311 78 246 78 l 446 78 q 621 39 564 78 q 678 -82 678 0 q 636 -197 678 -143 q 518 -282 594 -250 q 343 -314 442 -314 m 340 283 q 447 330 403 283 q 490 450 490 376 q 447 570 490 525 q 340 615 404 615 q 233 570 276 615 q 189 450 189 525 q 233 330 189 376 q 340 283 276 283 m 357 -242 q 472 -222 421 -242 q 550 -167 522 -201 q 578 -96 578 -133 q 543 -28 578 -49 q 438 -8 508 -8 l 314 -8 q 228 3 271 -8 q 154 -118 154 -49 q 208 -208 154 -175 q 357 -242 263 -242 z "},"ǧ":{"ha":694,"x_min":65,"x_max":678,"o":"m 343 -314 q 141 -265 217 -314 q 65 -132 65 -217 q 91 -49 65 -89 q 164 24 117 -8 l 164 29 q 121 74 138 46 q 104 139 104 101 q 126 210 104 178 q 178 264 147 243 l 178 269 q 117 346 142 299 q 92 450 92 393 q 125 576 92 521 q 215 660 158 631 q 340 690 272 690 q 433 674 386 690 l 667 674 l 667 594 l 524 594 q 567 531 550 569 q 583 449 583 492 q 551 326 583 379 q 464 243 519 272 q 340 214 408 214 q 238 238 285 214 q 203 201 215 219 q 192 154 192 182 q 219 98 192 118 q 311 78 246 78 l 446 78 q 621 39 564 78 q 678 -82 678 0 q 636 -197 678 -143 q 518 -282 594 -250 q 343 -314 442 -314 m 340 283 q 447 330 403 283 q 490 450 490 376 q 447 570 490 525 q 340 615 404 615 q 233 570 276 615 q 189 450 189 525 q 233 330 189 376 q 340 283 276 283 m 357 -242 q 472 -222 421 -242 q 550 -167 522 -201 q 578 -96 578 -133 q 543 -28 578 -49 q 438 -8 508 -8 l 314 -8 q 228 3 271 -8 q 154 -118 154 -49 q 208 -208 154 -175 q 357 -242 263 -242 m 149 992 l 193 1033 l 356 871 l 361 871 l 524 1033 l 568 992 l 408 797 l 308 797 l 149 992 z "},"ġ":{"ha":694,"x_min":65,"x_max":678,"o":"m 343 -314 q 141 -265 217 -314 q 65 -132 65 -217 q 91 -49 65 -89 q 164 24 117 -8 l 164 29 q 121 74 138 46 q 104 139 104 101 q 126 210 104 178 q 178 264 147 243 l 178 269 q 117 346 142 299 q 92 450 92 393 q 125 576 92 521 q 215 660 158 631 q 340 690 272 690 q 433 674 386 690 l 667 674 l 667 594 l 524 594 q 567 531 550 569 q 583 449 583 492 q 551 326 583 379 q 464 243 519 272 q 340 214 408 214 q 238 238 285 214 q 203 201 215 219 q 192 154 192 182 q 219 98 192 118 q 311 78 246 78 l 446 78 q 621 39 564 78 q 678 -82 678 0 q 636 -197 678 -143 q 518 -282 594 -250 q 343 -314 442 -314 m 340 283 q 447 330 403 283 q 490 450 490 376 q 447 570 490 525 q 340 615 404 615 q 233 570 276 615 q 189 450 189 525 q 233 330 189 376 q 340 283 276 283 m 357 -242 q 472 -222 421 -242 q 550 -167 522 -201 q 578 -96 578 -133 q 543 -28 578 -49 q 438 -8 508 -8 l 314 -8 q 228 3 271 -8 q 154 -118 154 -49 q 208 -208 154 -175 q 357 -242 263 -242 m 358 818 q 308 838 328 818 q 289 889 289 857 q 308 938 289 919 q 358 957 328 957 q 408 938 389 957 q 428 889 428 919 q 408 838 428 857 q 358 818 389 818 z "},"ʔ":{"ha":572,"x_min":-1,"x_max":544,"o":"m 207 451 q 387 588 332 522 q 442 743 442 654 q 394 875 442 826 q 261 924 347 924 q 144 896 193 924 q 53 821 94 868 l -1 888 q 267 1008 108 1008 q 467 940 389 1008 q 544 744 544 871 q 485 559 544 635 q 307 404 426 483 l 307 0 l 207 0 l 207 451 z "},"ʕ":{"ha":601,"x_min":40,"x_max":586,"o":"m 278 404 q 99 559 158 483 q 40 744 40 635 q 122 939 40 869 q 332 1008 204 1008 q 586 888 482 1008 l 532 821 q 448 896 494 868 q 339 924 401 924 q 195 875 247 924 q 143 743 143 826 q 198 588 143 654 q 379 451 253 522 l 379 0 l 278 0 l 278 404 z "},"ḡ":{"ha":694,"x_min":65,"x_max":678,"o":"m 343 -314 q 141 -265 217 -314 q 65 -132 65 -217 q 91 -49 65 -89 q 164 24 117 -8 l 164 29 q 121 74 138 46 q 104 139 104 101 q 126 210 104 178 q 178 264 147 243 l 178 269 q 117 346 142 299 q 92 450 92 393 q 125 576 92 521 q 215 660 158 631 q 340 690 272 690 q 433 674 386 690 l 667 674 l 667 594 l 524 594 q 567 531 550 569 q 583 449 583 492 q 551 326 583 379 q 464 243 519 272 q 340 214 408 214 q 238 238 285 214 q 203 201 215 219 q 192 154 192 182 q 219 98 192 118 q 311 78 246 78 l 446 78 q 621 39 564 78 q 678 -82 678 0 q 636 -197 678 -143 q 518 -282 594 -250 q 343 -314 442 -314 m 340 283 q 447 330 403 283 q 490 450 490 376 q 447 570 490 525 q 340 615 404 615 q 233 570 276 615 q 189 450 189 525 q 233 330 189 376 q 340 283 276 283 m 357 -242 q 472 -222 421 -242 q 550 -167 522 -201 q 578 -96 578 -133 q 543 -28 578 -49 q 438 -8 508 -8 l 314 -8 q 228 3 271 -8 q 154 -118 154 -49 q 208 -208 154 -175 q 357 -242 263 -242 m 178 908 l 539 908 l 539 836 l 178 836 l 178 908 z "},"h":{"ha":750,"x_min":118,"x_max":646,"o":"m 118 992 l 218 992 l 218 717 l 215 575 q 324 660 271 631 q 440 690 376 690 q 596 624 546 690 q 646 428 646 558 l 646 0 l 544 0 l 544 415 q 513 557 544 513 q 411 601 482 601 q 318 576 361 601 q 218 493 275 550 l 218 0 l 118 0 l 118 992 z "},"ħ":{"ha":750,"x_min":14,"x_max":646,"o":"m 440 638 q 596 572 546 638 q 646 375 646 506 l 646 0 l 544 0 l 544 363 q 513 504 544 460 q 411 549 482 549 q 318 523 361 549 q 218 440 275 497 l 218 0 l 118 0 l 118 797 l 14 797 l 14 851 l 118 857 l 118 992 l 218 992 l 218 857 l 474 857 l 474 797 l 218 797 l 218 664 l 215 522 q 324 608 271 578 q 440 638 376 638 z "},"ḫ":{"ha":750,"x_min":118,"x_max":646,"o":"m 118 992 l 218 992 l 218 717 l 215 575 q 324 660 271 631 q 440 690 376 690 q 596 624 546 690 q 646 428 646 558 l 646 0 l 544 0 l 544 415 q 513 557 544 513 q 411 601 482 601 q 318 576 361 601 q 218 493 275 550 l 218 0 l 118 0 l 118 992 m 397 -321 q 243 -260 296 -321 q 183 -112 190 -199 l 249 -103 q 294 -208 257 -164 q 397 -251 332 -251 q 500 -208 463 -251 q 546 -103 538 -164 l 611 -112 q 551 -260 604 -199 q 397 -321 499 -321 z "},"ḥ":{"ha":750,"x_min":118,"x_max":646,"o":"m 118 992 l 218 992 l 218 717 l 215 575 q 324 660 271 631 q 440 690 376 690 q 596 624 546 690 q 646 428 646 558 l 646 0 l 544 0 l 544 415 q 513 557 544 513 q 411 601 482 601 q 318 576 361 601 q 218 493 275 550 l 218 0 l 118 0 l 118 992 m 397 -282 q 347 -262 367 -282 q 328 -211 328 -243 q 347 -162 328 -181 q 397 -143 367 -143 q 447 -162 428 -143 q 467 -211 467 -181 q 447 -262 467 -243 q 397 -282 428 -282 z "},"ẖ":{"ha":750,"x_min":118,"x_max":646,"o":"m 118 992 l 218 992 l 218 717 l 215 575 q 324 660 271 631 q 440 690 376 690 q 596 624 546 690 q 646 428 646 558 l 646 0 l 544 0 l 544 415 q 513 557 544 513 q 411 601 482 601 q 318 576 361 601 q 218 493 275 550 l 218 0 l 118 0 l 118 992 m 217 -161 l 578 -161 l 578 -233 l 217 -233 l 217 -161 z "},"i":{"ha":336,"x_min":100,"x_max":239,"o":"m 118 674 l 218 674 l 218 0 l 118 0 l 118 674 m 169 818 q 119 838 139 818 q 100 889 100 857 q 119 938 100 919 q 169 957 139 957 q 219 938 200 957 q 239 889 239 919 q 219 838 239 857 q 169 818 200 818 z "},"ı":{"ha":336,"x_min":118,"x_max":218,"o":"m 118 674 l 218 674 l 218 0 l 118 0 l 118 674 z "},"í":{"ha":336,"x_min":92,"x_max":358,"o":"m 118 674 l 218 674 l 218 0 l 118 0 l 118 674 m 92 847 l 286 1075 l 358 1008 l 144 796 l 92 847 z "},"î":{"ha":336,"x_min":-40,"x_max":379,"o":"m 118 674 l 218 674 l 218 0 l 118 0 l 118 674 m -40 831 l 119 1026 l 219 1026 l 379 831 l 335 790 l 172 951 l 167 951 l 4 790 l -40 831 z "},"ï":{"ha":336,"x_min":-26,"x_max":365,"o":"m 118 674 l 218 674 l 218 0 l 118 0 l 118 674 m 39 819 q -8 838 11 819 q -26 883 -26 856 q -8 930 -26 911 q 39 949 11 949 q 85 930 67 949 q 103 883 103 911 q 84 838 103 857 q 39 819 65 819 m 300 819 q 255 838 274 819 q 236 883 236 857 q 254 930 236 911 q 300 949 272 949 q 347 930 328 949 q 365 883 365 911 q 347 838 365 856 q 300 819 328 819 z "},"ì":{"ha":336,"x_min":-19,"x_max":247,"o":"m 118 674 l 218 674 l 218 0 l 118 0 l 118 674 m -19 1008 l 53 1075 l 247 847 l 194 796 l -19 1008 z "},"ī":{"ha":336,"x_min":-11,"x_max":350,"o":"m 118 674 l 218 674 l 218 0 l 118 0 l 118 674 m -11 908 l 350 908 l 350 836 l -11 836 l -11 908 z "},"j":{"ha":336,"x_min":-50,"x_max":239,"o":"m 169 818 q 119 838 139 818 q 100 889 100 857 q 119 938 100 919 q 169 957 139 957 q 219 938 200 957 q 239 889 239 919 q 219 838 239 857 q 169 818 200 818 m 122 674 l 222 674 l 222 -89 q 180 -250 222 -194 q 46 -306 138 -306 q -50 -289 -6 -306 l -29 -211 q 36 -222 4 -222 q 103 -189 85 -222 q 121 -87 121 -156 l 122 674 z "},"k":{"ha":676,"x_min":118,"x_max":663,"o":"m 118 992 l 217 992 l 217 306 l 221 306 l 519 674 l 632 674 l 407 404 l 663 0 l 553 0 l 349 333 l 217 178 l 217 0 l 118 0 l 118 992 z "},"ḳ":{"ha":676,"x_min":118,"x_max":663,"o":"m 118 992 l 217 992 l 217 306 l 221 306 l 519 674 l 632 674 l 407 404 l 663 0 l 553 0 l 349 333 l 217 178 l 217 0 l 118 0 l 118 992 m 372 -282 q 322 -262 342 -282 q 303 -211 303 -243 q 322 -162 303 -181 q 372 -143 342 -143 q 422 -162 403 -143 q 442 -211 442 -181 q 422 -262 442 -243 q 372 -282 403 -282 z "},"ḵ":{"ha":676,"x_min":118,"x_max":663,"o":"m 118 992 l 217 992 l 217 306 l 221 306 l 519 674 l 632 674 l 407 404 l 663 0 l 553 0 l 349 333 l 217 178 l 217 0 l 118 0 l 118 992 m 192 -161 l 553 -161 l 553 -233 l 192 -233 l 192 -161 z "},"l":{"ha":347,"x_min":118,"x_max":289,"o":"m 228 -17 q 144 19 171 -17 q 118 124 118 54 l 118 992 l 218 992 l 218 115 q 227 80 218 92 q 250 68 236 68 q 275 71 261 68 l 289 -7 q 228 -17 263 -17 z "},"ł":{"ha":356,"x_min":1,"x_max":336,"o":"m 256 68 q 281 71 267 68 l 294 -7 q 233 -17 268 -17 q 150 19 176 -17 q 124 124 124 54 l 124 472 l 40 419 l 1 485 l 124 561 l 124 992 l 224 992 l 224 613 l 299 661 l 336 596 l 224 525 l 224 115 q 233 80 224 92 q 256 68 242 68 z "},"m":{"ha":1146,"x_min":118,"x_max":1038,"o":"m 118 674 l 201 674 l 210 574 l 214 574 q 424 690 321 690 q 610 560 567 690 q 722 657 668 624 q 833 690 776 690 q 1038 428 1038 690 l 1038 0 l 936 0 l 936 415 q 904 557 936 513 q 804 601 872 601 q 628 493 725 601 l 628 0 l 526 0 l 526 415 q 494 556 526 511 q 396 601 463 601 q 218 493 317 601 l 218 0 l 118 0 l 118 674 z "},"n":{"ha":754,"x_min":118,"x_max":646,"o":"m 118 674 l 201 674 l 210 574 l 214 574 q 323 660 269 629 q 440 690 376 690 q 596 624 546 690 q 646 428 646 558 l 646 0 l 544 0 l 544 415 q 513 557 544 513 q 411 601 482 601 q 318 576 361 601 q 218 493 275 550 l 218 0 l 118 0 l 118 674 z "},"ñ":{"ha":754,"x_min":118,"x_max":646,"o":"m 118 674 l 201 674 l 210 574 l 214 574 q 323 660 269 629 q 440 690 376 690 q 596 624 546 690 q 646 428 646 558 l 646 0 l 544 0 l 544 415 q 513 557 544 513 q 411 601 482 601 q 318 576 361 601 q 218 493 275 550 l 218 0 l 118 0 l 118 674 m 506 803 q 443 820 469 803 q 383 871 417 838 q 340 910 357 897 q 303 922 324 922 q 236 808 243 922 l 167 813 q 203 947 171 897 q 304 997 236 997 q 367 979 340 997 q 425 928 393 961 q 467 890 449 903 q 506 876 485 876 q 553 908 536 876 q 572 992 569 939 l 642 986 q 605 853 638 903 q 506 803 572 803 z "},"o":{"ha":750,"x_min":65,"x_max":685,"o":"m 375 -17 q 221 26 292 -17 q 108 148 150 68 q 65 336 65 228 q 108 525 65 444 q 221 648 150 606 q 375 690 292 690 q 529 648 458 690 q 642 525 600 606 q 685 336 685 444 q 642 148 685 228 q 529 26 600 68 q 375 -17 458 -17 m 375 68 q 481 101 435 68 q 554 196 528 135 q 581 336 581 257 q 554 476 581 415 q 481 572 528 538 q 375 606 435 606 q 269 572 315 606 q 197 476 222 538 q 171 336 171 415 q 228 142 171 215 q 375 68 285 68 z "},"ó":{"ha":750,"x_min":65,"x_max":685,"o":"m 375 -17 q 221 26 292 -17 q 108 148 150 68 q 65 336 65 228 q 108 525 65 444 q 221 648 150 606 q 375 690 292 690 q 529 648 458 690 q 642 525 600 606 q 685 336 685 444 q 642 148 685 228 q 529 26 600 68 q 375 -17 458 -17 m 375 68 q 481 101 435 68 q 554 196 528 135 q 581 336 581 257 q 554 476 581 415 q 481 572 528 538 q 375 606 435 606 q 269 572 315 606 q 197 476 222 538 q 171 336 171 415 q 228 142 171 215 q 375 68 285 68 m 297 847 l 492 1075 l 564 1008 l 350 796 l 297 847 z "},"ŏ":{"ha":750,"x_min":65,"x_max":685,"o":"m 375 -17 q 221 26 292 -17 q 108 148 150 68 q 65 336 65 228 q 108 525 65 444 q 221 648 150 606 q 375 690 292 690 q 529 648 458 690 q 642 525 600 606 q 685 336 685 444 q 642 148 685 228 q 529 26 600 68 q 375 -17 458 -17 m 375 68 q 481 101 435 68 q 554 196 528 135 q 581 336 581 257 q 554 476 581 415 q 481 572 528 538 q 375 606 435 606 q 269 572 315 606 q 197 476 222 538 q 171 336 171 415 q 228 142 171 215 q 375 68 285 68 m 375 793 q 221 854 274 793 q 161 1001 168 915 l 226 1011 q 272 906 235 950 q 375 863 310 863 q 478 906 440 863 q 524 1011 515 950 l 589 1001 q 529 854 582 915 q 375 793 476 793 z "},"ô":{"ha":750,"x_min":65,"x_max":685,"o":"m 375 -17 q 221 26 292 -17 q 108 148 150 68 q 65 336 65 228 q 108 525 65 444 q 221 648 150 606 q 375 690 292 690 q 529 648 458 690 q 642 525 600 606 q 685 336 685 444 q 642 148 685 228 q 529 26 600 68 q 375 -17 458 -17 m 375 68 q 481 101 435 68 q 554 196 528 135 q 581 336 581 257 q 554 476 581 415 q 481 572 528 538 q 375 606 435 606 q 269 572 315 606 q 197 476 222 538 q 171 336 171 415 q 228 142 171 215 q 375 68 285 68 m 165 831 l 325 1026 l 425 1026 l 585 831 l 540 790 l 378 951 l 372 951 l 210 790 l 165 831 z "},"ö":{"ha":750,"x_min":65,"x_max":685,"o":"m 375 -17 q 221 26 292 -17 q 108 148 150 68 q 65 336 65 228 q 108 525 65 444 q 221 648 150 606 q 375 690 292 690 q 529 648 458 690 q 642 525 600 606 q 685 336 685 444 q 642 148 685 228 q 529 26 600 68 q 375 -17 458 -17 m 375 68 q 481 101 435 68 q 554 196 528 135 q 581 336 581 257 q 554 476 581 415 q 481 572 528 538 q 375 606 435 606 q 269 572 315 606 q 197 476 222 538 q 171 336 171 415 q 228 142 171 215 q 375 68 285 68 m 244 819 q 198 838 217 819 q 179 883 179 856 q 198 930 179 911 q 244 949 217 949 q 290 930 272 949 q 308 883 308 911 q 290 838 308 857 q 244 819 271 819 m 506 819 q 460 838 479 819 q 442 883 442 857 q 460 930 442 911 q 506 949 478 949 q 552 930 533 949 q 571 883 571 911 q 552 838 571 856 q 506 819 533 819 z "},"ọ":{"ha":750,"x_min":65,"x_max":685,"o":"m 375 -17 q 221 26 292 -17 q 108 148 150 68 q 65 336 65 228 q 108 525 65 444 q 221 648 150 606 q 375 690 292 690 q 529 648 458 690 q 642 525 600 606 q 685 336 685 444 q 642 148 685 228 q 529 26 600 68 q 375 -17 458 -17 m 375 68 q 481 101 435 68 q 554 196 528 135 q 581 336 581 257 q 554 476 581 415 q 481 572 528 538 q 375 606 435 606 q 269 572 315 606 q 197 476 222 538 q 171 336 171 415 q 228 142 171 215 q 375 68 285 68 m 375 -282 q 325 -262 344 -282 q 306 -211 306 -243 q 325 -162 306 -181 q 375 -143 344 -143 q 425 -162 406 -143 q 444 -211 444 -181 q 425 -262 444 -243 q 375 -282 406 -282 z "},"ò":{"ha":750,"x_min":65,"x_max":685,"o":"m 375 -17 q 221 26 292 -17 q 108 148 150 68 q 65 336 65 228 q 108 525 65 444 q 221 648 150 606 q 375 690 292 690 q 529 648 458 690 q 642 525 600 606 q 685 336 685 444 q 642 148 685 228 q 529 26 600 68 q 375 -17 458 -17 m 375 68 q 481 101 435 68 q 554 196 528 135 q 581 336 581 257 q 554 476 581 415 q 481 572 528 538 q 375 606 435 606 q 269 572 315 606 q 197 476 222 538 q 171 336 171 415 q 228 142 171 215 q 375 68 285 68 m 186 1008 l 258 1075 l 453 847 l 400 796 l 186 1008 z "},"ō":{"ha":750,"x_min":65,"x_max":685,"o":"m 375 -17 q 221 26 292 -17 q 108 148 150 68 q 65 336 65 228 q 108 525 65 444 q 221 648 150 606 q 375 690 292 690 q 529 648 458 690 q 642 525 600 606 q 685 336 685 444 q 642 148 685 228 q 529 26 600 68 q 375 -17 458 -17 m 375 68 q 481 101 435 68 q 554 196 528 135 q 581 336 581 257 q 554 476 581 415 q 481 572 528 538 q 375 606 435 606 q 269 572 315 606 q 197 476 222 538 q 171 336 171 415 q 228 142 171 215 q 375 68 285 68 m 194 908 l 556 908 l 556 836 l 194 836 l 194 908 z "},"ɔ":{"ha":631,"x_min":35,"x_max":564,"o":"m 251 -17 q 136 6 192 -17 q 35 69 81 29 l 79 138 q 243 68 156 68 q 399 142 339 68 q 460 336 460 215 q 433 476 460 415 q 359 572 406 538 q 254 606 313 606 q 172 590 207 606 q 100 543 136 574 l 47 610 q 143 669 92 647 q 265 690 194 690 q 414 648 346 690 q 523 526 482 606 q 564 336 564 446 q 523 148 564 228 q 411 26 482 68 q 251 -17 340 -17 z "},"ø":{"ha":750,"x_min":64,"x_max":686,"o":"m 610 575 q 685 336 685 481 q 642 148 685 228 q 529 26 600 68 q 375 -17 458 -17 q 272 1 322 -17 q 182 54 222 19 l 111 -32 l 64 6 l 140 97 q 65 336 65 194 q 108 525 65 444 q 221 648 150 606 q 375 690 292 690 q 478 672 428 690 q 568 619 529 654 l 639 704 l 686 667 l 610 575 m 167 340 q 203 175 167 240 l 511 549 q 375 607 456 607 q 268 573 315 607 q 194 478 221 539 q 167 340 167 418 m 585 332 q 547 499 585 428 l 239 124 q 375 65 294 65 q 483 99 435 65 q 558 194 531 133 q 585 332 585 254 z "},"õ":{"ha":750,"x_min":65,"x_max":685,"o":"m 375 -17 q 221 26 292 -17 q 108 148 150 68 q 65 336 65 228 q 108 525 65 444 q 221 648 150 606 q 375 690 292 690 q 529 648 458 690 q 642 525 600 606 q 685 336 685 444 q 642 148 685 228 q 529 26 600 68 q 375 -17 458 -17 m 375 68 q 481 101 435 68 q 554 196 528 135 q 581 336 581 257 q 554 476 581 415 q 481 572 528 538 q 375 606 435 606 q 269 572 315 606 q 197 476 222 538 q 171 336 171 415 q 228 142 171 215 q 375 68 285 68 m 476 803 q 414 820 440 803 q 354 871 388 838 q 311 910 328 897 q 274 922 294 922 q 207 808 214 922 l 138 813 q 174 947 142 897 q 275 997 207 997 q 338 979 311 997 q 396 928 364 961 q 438 890 419 903 q 476 876 456 876 q 524 908 507 876 q 543 992 540 939 l 613 986 q 576 853 608 903 q 476 803 543 803 z "},"œ":{"ha":1168,"x_min":65,"x_max":1117,"o":"m 367 -17 q 216 26 285 -17 q 106 148 147 68 q 65 336 65 228 q 106 525 65 444 q 217 648 147 606 q 368 690 286 690 q 515 644 449 690 q 617 513 581 599 q 719 643 656 596 q 857 690 782 690 q 1048 605 979 690 q 1117 374 1117 519 q 1111 314 1117 336 l 663 314 q 694 185 664 242 q 773 98 724 129 q 882 67 822 67 q 969 81 929 67 q 1051 124 1010 96 l 1089 53 q 869 -17 983 -17 q 722 30 789 -17 q 618 158 656 76 q 515 28 579 72 q 367 -17 451 -17 m 1026 382 q 981 550 1026 492 q 854 608 935 608 q 726 546 781 608 q 663 382 672 483 l 1026 382 m 368 68 q 513 142 457 68 q 568 336 568 215 q 543 476 568 415 q 472 572 518 538 q 368 606 426 606 q 266 572 311 606 q 195 476 221 538 q 169 336 169 415 q 195 196 169 257 q 266 101 221 135 q 368 68 311 68 z "},"p":{"ha":767,"x_min":118,"x_max":699,"o":"m 118 674 l 201 674 l 210 593 l 214 593 q 432 690 332 690 q 630 598 561 690 q 699 347 699 506 q 658 153 699 236 q 551 27 618 71 q 407 -17 485 -17 q 215 63 317 -17 l 218 -57 l 218 -289 l 118 -289 l 118 674 m 390 69 q 495 103 449 69 q 568 200 542 138 q 594 346 594 263 q 549 535 594 467 q 408 604 504 604 q 218 507 324 604 l 218 143 q 308 87 264 104 q 390 69 353 69 z "},"þ":{"ha":767,"x_min":118,"x_max":699,"o":"m 118 992 l 218 992 l 218 718 l 217 600 q 428 690 331 690 q 628 598 558 690 q 699 347 699 506 q 658 153 699 236 q 551 27 618 71 q 407 -17 485 -17 q 217 60 315 -17 l 218 -57 l 218 -289 l 118 -289 l 118 992 m 390 69 q 495 103 449 69 q 568 200 542 138 q 594 346 594 263 q 549 535 594 467 q 408 604 504 604 q 218 507 324 604 l 218 143 q 308 87 264 104 q 390 69 353 69 z "},"q":{"ha":767,"x_min":68,"x_max":649,"o":"m 549 -44 l 553 81 q 344 -17 453 -17 q 142 76 217 -17 q 68 336 68 169 q 108 522 68 442 q 216 647 149 603 q 361 690 283 690 q 462 670 417 690 q 554 610 507 650 l 558 610 l 568 674 l 649 674 l 649 -289 l 549 -289 l 549 -44 m 367 69 q 459 93 415 69 q 549 165 503 117 l 549 531 q 463 587 504 569 q 376 604 421 604 q 273 569 319 604 q 199 474 226 535 q 172 336 172 413 q 223 140 172 211 q 367 69 274 69 z "},"r":{"ha":472,"x_min":118,"x_max":475,"o":"m 118 674 l 201 674 l 210 550 l 214 550 q 299 653 249 615 q 406 690 349 690 q 475 676 446 690 l 456 588 q 392 599 419 599 q 298 560 344 599 q 218 439 251 521 l 218 0 l 118 0 l 118 674 z "},"s":{"ha":578,"x_min":40,"x_max":532,"o":"m 290 -17 q 156 9 221 -17 q 40 76 90 35 l 92 144 q 189 83 142 104 q 294 63 236 63 q 397 94 361 63 q 433 175 433 126 q 392 253 433 224 q 276 308 351 282 q 126 384 181 343 q 72 501 72 425 q 134 637 72 583 q 301 690 196 690 q 411 669 358 690 q 506 615 464 649 l 457 550 q 381 594 417 579 q 301 610 344 610 q 204 580 238 610 q 171 507 171 550 q 191 454 171 476 q 240 419 211 432 q 322 385 269 406 q 433 338 393 358 q 503 278 474 317 q 532 181 532 240 q 503 81 532 126 q 420 10 475 36 q 290 -17 365 -17 z "},"ś":{"ha":578,"x_min":40,"x_max":532,"o":"m 290 -17 q 156 9 221 -17 q 40 76 90 35 l 92 144 q 189 83 142 104 q 294 63 236 63 q 397 94 361 63 q 433 175 433 126 q 392 253 433 224 q 276 308 351 282 q 126 384 181 343 q 72 501 72 425 q 134 637 72 583 q 301 690 196 690 q 411 669 358 690 q 506 615 464 649 l 457 550 q 381 594 417 579 q 301 610 344 610 q 204 580 238 610 q 171 507 171 550 q 191 454 171 476 q 240 419 211 432 q 322 385 269 406 q 433 338 393 358 q 503 278 474 317 q 532 181 532 240 q 503 81 532 126 q 420 10 475 36 q 290 -17 365 -17 m 226 847 l 421 1075 l 493 1008 l 279 796 l 226 847 z "},"š":{"ha":578,"x_min":40,"x_max":532,"o":"m 290 -17 q 156 9 221 -17 q 40 76 90 35 l 92 144 q 189 83 142 104 q 294 63 236 63 q 397 94 361 63 q 433 175 433 126 q 392 253 433 224 q 276 308 351 282 q 126 384 181 343 q 72 501 72 425 q 134 637 72 583 q 301 690 196 690 q 411 669 358 690 q 506 615 464 649 l 457 550 q 381 594 417 579 q 301 610 344 610 q 204 580 238 610 q 171 507 171 550 q 191 454 171 476 q 240 419 211 432 q 322 385 269 406 q 433 338 393 358 q 503 278 474 317 q 532 181 532 240 q 503 81 532 126 q 420 10 475 36 q 290 -17 365 -17 m 94 992 l 139 1033 l 301 871 l 307 871 l 469 1033 l 514 992 l 354 797 l 254 797 l 94 992 z "},"ṣ":{"ha":578,"x_min":40,"x_max":532,"o":"m 290 -17 q 156 9 221 -17 q 40 76 90 35 l 92 144 q 189 83 142 104 q 294 63 236 63 q 397 94 361 63 q 433 175 433 126 q 392 253 433 224 q 276 308 351 282 q 126 384 181 343 q 72 501 72 425 q 134 637 72 583 q 301 690 196 690 q 411 669 358 690 q 506 615 464 649 l 457 550 q 381 594 417 579 q 301 610 344 610 q 204 580 238 610 q 171 507 171 550 q 191 454 171 476 q 240 419 211 432 q 322 385 269 406 q 433 338 393 358 q 503 278 474 317 q 532 181 532 240 q 503 81 532 126 q 420 10 475 36 q 290 -17 365 -17 m 306 -282 q 256 -262 275 -282 q 236 -211 236 -243 q 256 -162 236 -181 q 306 -143 275 -143 q 356 -162 336 -143 q 375 -211 375 -181 q 356 -262 375 -243 q 306 -282 336 -282 z "},"ß":{"ha":788,"x_min":118,"x_max":747,"o":"m 531 -17 q 336 53 426 -17 l 378 124 q 452 78 417 93 q 528 63 488 63 q 619 97 586 63 q 651 181 651 132 q 633 246 651 219 q 590 290 615 272 q 519 332 565 307 q 443 377 472 357 q 394 429 414 397 q 374 508 374 461 q 390 584 374 551 q 439 658 407 617 q 485 728 469 699 q 500 797 500 758 q 469 888 500 853 q 379 922 438 922 q 260 866 303 922 q 218 700 218 810 l 218 0 l 118 0 l 118 721 q 188 928 118 851 q 381 1006 257 1006 q 540 949 482 1006 q 599 807 599 892 q 580 719 599 756 q 526 638 561 682 q 483 576 497 603 q 469 519 469 550 q 497 455 469 479 q 583 399 524 431 q 669 348 636 371 q 724 285 701 325 q 747 186 747 246 q 688 41 747 99 q 531 -17 628 -17 z "},"ə":{"ha":683,"x_min":51,"x_max":618,"o":"m 328 -17 q 126 70 201 -17 q 51 308 51 157 q 57 371 51 338 l 518 371 q 458 543 514 478 q 310 608 403 608 q 132 549 217 608 l 94 621 q 325 690 200 690 q 476 649 410 690 q 581 527 543 607 q 618 338 618 447 q 580 150 618 231 q 476 26 542 69 q 328 -17 410 -17 m 326 65 q 458 126 408 65 q 518 297 508 188 l 142 297 q 191 124 142 183 q 326 65 240 65 z "},"t":{"ha":460,"x_min":35,"x_max":443,"o":"m 322 -17 q 179 40 222 -17 q 136 203 136 97 l 136 590 l 35 590 l 35 667 l 140 674 l 153 864 l 238 864 l 238 674 l 422 674 l 422 590 l 238 590 l 238 200 q 262 100 238 133 q 344 67 286 67 q 422 85 374 67 l 443 8 q 322 -17 368 -17 z "},"ṭ":{"ha":460,"x_min":35,"x_max":443,"o":"m 322 -17 q 179 40 222 -17 q 136 203 136 97 l 136 590 l 35 590 l 35 667 l 140 674 l 153 864 l 238 864 l 238 674 l 422 674 l 422 590 l 238 590 l 238 200 q 262 100 238 133 q 344 67 286 67 q 422 85 374 67 l 443 8 q 322 -17 368 -17 m 285 -282 q 235 -262 254 -282 q 215 -211 215 -243 q 235 -162 215 -181 q 285 -143 254 -143 q 335 -162 315 -143 q 354 -211 354 -181 q 335 -262 354 -243 q 285 -282 315 -282 z "},"ʧ":{"ha":581,"x_min":35,"x_max":847,"o":"m 500 -306 q 406 -289 450 -306 l 425 -211 q 490 -222 461 -222 q 558 -188 539 -222 q 576 -87 576 -154 l 576 793 q 622 955 576 899 q 765 1011 667 1011 q 847 993 811 1011 l 828 915 q 775 928 796 928 q 698 894 719 928 q 676 792 676 860 l 676 -89 q 635 -250 676 -194 q 500 -306 593 -306 m 322 -17 q 179 40 222 -17 q 136 203 136 97 l 136 590 l 35 590 l 35 667 l 140 674 l 153 864 l 238 864 l 238 674 l 422 674 l 422 590 l 238 590 l 238 200 q 262 100 238 133 q 344 67 286 67 q 422 85 374 67 l 443 8 q 322 -17 368 -17 z "},"ṯ":{"ha":460,"x_min":35,"x_max":465,"o":"m 322 -17 q 179 40 222 -17 q 136 203 136 97 l 136 590 l 35 590 l 35 667 l 140 674 l 153 864 l 238 864 l 238 674 l 422 674 l 422 590 l 238 590 l 238 200 q 262 100 238 133 q 344 67 286 67 q 422 85 374 67 l 443 8 q 322 -17 368 -17 m 104 -161 l 465 -161 l 465 -233 l 104 -233 l 104 -161 z "},"u":{"ha":750,"x_min":108,"x_max":633,"o":"m 313 -17 q 158 49 208 -17 q 108 246 108 115 l 108 674 l 208 674 l 208 258 q 240 116 208 161 q 343 71 272 71 q 437 99 394 71 q 532 190 479 126 l 532 674 l 633 674 l 633 0 l 549 0 l 540 107 l 536 107 q 431 15 485 47 q 313 -17 378 -17 z "},"ú":{"ha":750,"x_min":108,"x_max":633,"o":"m 313 -17 q 158 49 208 -17 q 108 246 108 115 l 108 674 l 208 674 l 208 258 q 240 116 208 161 q 343 71 272 71 q 437 99 394 71 q 532 190 479 126 l 532 674 l 633 674 l 633 0 l 549 0 l 540 107 l 536 107 q 431 15 485 47 q 313 -17 378 -17 m 301 847 l 496 1075 l 568 1008 l 354 796 l 301 847 z "},"û":{"ha":750,"x_min":108,"x_max":633,"o":"m 313 -17 q 158 49 208 -17 q 108 246 108 115 l 108 674 l 208 674 l 208 258 q 240 116 208 161 q 343 71 272 71 q 437 99 394 71 q 532 190 479 126 l 532 674 l 633 674 l 633 0 l 549 0 l 540 107 l 536 107 q 431 15 485 47 q 313 -17 378 -17 m 169 831 l 329 1026 l 429 1026 l 589 831 l 544 790 l 382 951 l 376 951 l 214 790 l 169 831 z "},"ü":{"ha":750,"x_min":108,"x_max":633,"o":"m 313 -17 q 158 49 208 -17 q 108 246 108 115 l 108 674 l 208 674 l 208 258 q 240 116 208 161 q 343 71 272 71 q 437 99 394 71 q 532 190 479 126 l 532 674 l 633 674 l 633 0 l 549 0 l 540 107 l 536 107 q 431 15 485 47 q 313 -17 378 -17 m 249 819 q 202 838 221 819 q 183 883 183 856 q 202 930 183 911 q 249 949 221 949 q 294 930 276 949 q 313 883 313 911 q 294 838 313 857 q 249 819 275 819 m 510 819 q 465 838 483 819 q 446 883 446 857 q 464 930 446 911 q 510 949 482 949 q 556 930 538 949 q 575 883 575 911 q 556 838 575 856 q 510 819 538 819 z "},"ù":{"ha":750,"x_min":108,"x_max":633,"o":"m 313 -17 q 158 49 208 -17 q 108 246 108 115 l 108 674 l 208 674 l 208 258 q 240 116 208 161 q 343 71 272 71 q 437 99 394 71 q 532 190 479 126 l 532 674 l 633 674 l 633 0 l 549 0 l 540 107 l 536 107 q 431 15 485 47 q 313 -17 378 -17 m 190 1008 l 263 1075 l 457 847 l 404 796 l 190 1008 z "},"ū":{"ha":750,"x_min":108,"x_max":633,"o":"m 313 -17 q 158 49 208 -17 q 108 246 108 115 l 108 674 l 208 674 l 208 258 q 240 116 208 161 q 343 71 272 71 q 437 99 394 71 q 532 190 479 126 l 532 674 l 633 674 l 633 0 l 549 0 l 540 107 l 536 107 q 431 15 485 47 q 313 -17 378 -17 m 199 908 l 560 908 l 560 836 l 199 836 l 199 908 z "},"v":{"ha":638,"x_min":17,"x_max":621,"o":"m 17 674 l 121 674 l 254 281 l 318 83 l 324 83 l 388 281 l 521 674 l 621 674 l 379 0 l 263 0 l 17 674 z "},"ṿ":{"ha":638,"x_min":17,"x_max":621,"o":"m 17 674 l 121 674 l 254 281 l 318 83 l 324 83 l 388 281 l 521 674 l 621 674 l 379 0 l 263 0 l 17 674 m 321 -282 q 271 -262 290 -282 q 251 -211 251 -243 q 271 -162 251 -181 q 321 -143 290 -143 q 371 -162 351 -143 q 390 -211 390 -181 q 371 -262 390 -243 q 321 -282 351 -282 z "},"w":{"ha":986,"x_min":33,"x_max":953,"o":"m 33 674 l 138 674 l 243 272 l 256 213 q 283 86 275 129 l 289 86 q 336 272 315 194 l 444 674 l 546 674 l 656 272 l 703 86 l 708 86 l 753 272 l 856 674 l 953 674 l 769 0 l 644 0 l 542 376 l 515 486 q 496 569 513 497 l 490 569 q 442 374 460 432 l 342 0 l 224 0 l 33 674 z "},"x":{"ha":606,"x_min":19,"x_max":586,"o":"m 242 351 l 36 674 l 146 674 l 240 519 q 308 408 285 444 l 314 408 l 376 519 l 464 674 l 569 674 l 365 342 l 586 0 l 476 0 l 372 164 q 299 285 331 236 l 293 285 q 246 204 271 249 l 222 164 l 125 0 l 19 0 l 242 351 z "},"y":{"ha":638,"x_min":17,"x_max":621,"o":"m 119 -294 q 43 -281 78 -294 l 63 -199 q 115 -210 90 -210 q 210 -168 171 -210 q 272 -56 249 -126 l 289 -4 l 17 674 l 121 674 l 265 288 l 332 99 l 338 99 q 378 226 357 157 l 396 288 l 522 674 l 621 674 l 365 -62 q 269 -233 326 -171 q 119 -294 211 -294 z "},"ý":{"ha":638,"x_min":17,"x_max":621,"o":"m 119 -294 q 43 -281 78 -294 l 63 -199 q 115 -210 90 -210 q 210 -168 171 -210 q 272 -56 249 -126 l 289 -4 l 17 674 l 121 674 l 265 288 l 332 99 l 338 99 q 378 226 357 157 l 396 288 l 522 674 l 621 674 l 365 -62 q 269 -233 326 -171 q 119 -294 211 -294 m 257 847 l 451 1075 l 524 1008 l 310 796 l 257 847 z "},"ÿ":{"ha":638,"x_min":17,"x_max":621,"o":"m 119 -294 q 43 -281 78 -294 l 63 -199 q 115 -210 90 -210 q 210 -168 171 -210 q 272 -56 249 -126 l 289 -4 l 17 674 l 121 674 l 265 288 l 332 99 l 338 99 q 378 226 357 157 l 396 288 l 522 674 l 621 674 l 365 -62 q 269 -233 326 -171 q 119 -294 211 -294 m 204 819 q 158 838 176 819 q 139 883 139 856 q 158 930 139 911 q 204 949 176 949 q 250 930 232 949 q 268 883 268 911 q 249 838 268 857 q 204 819 231 819 m 465 819 q 420 838 439 819 q 401 883 401 857 q 419 930 401 911 q 465 949 438 949 q 512 930 493 949 q 531 883 531 911 q 512 838 531 856 q 465 819 493 819 z "},"ʎ":{"ha":638,"x_min":17,"x_max":621,"o":"m 289 778 q 384 947 326 885 q 533 1008 442 1008 q 610 994 575 1008 l 590 914 q 538 924 558 924 q 443 883 482 924 q 381 771 404 842 l 350 678 l 621 0 l 517 0 l 374 385 l 325 518 q 306 575 318 543 l 300 575 l 274 488 q 242 385 244 393 l 117 0 l 17 0 l 289 778 z "},"z":{"ha":582,"x_min":42,"x_max":547,"o":"m 42 54 l 407 590 l 82 590 l 82 674 l 535 674 l 535 619 l 169 83 l 547 83 l 547 0 l 42 0 l 42 54 z "},"ž":{"ha":582,"x_min":42,"x_max":547,"o":"m 42 54 l 407 590 l 82 590 l 82 674 l 535 674 l 535 619 l 169 83 l 547 83 l 547 0 l 42 0 l 42 54 m 108 992 l 153 1033 l 315 871 l 321 871 l 483 1033 l 528 992 l 368 797 l 268 797 l 108 992 z "},"ẓ":{"ha":582,"x_min":42,"x_max":547,"o":"m 42 54 l 407 590 l 82 590 l 82 674 l 535 674 l 535 619 l 169 83 l 547 83 l 547 0 l 42 0 l 42 54 m 313 -282 q 263 -262 282 -282 q 243 -211 243 -243 q 263 -162 243 -181 q 313 -143 282 -143 q 363 -162 343 -143 q 382 -211 382 -181 q 363 -262 382 -243 q 313 -282 343 -282 z "},"ẕ":{"ha":582,"x_min":42,"x_max":547,"o":"m 42 54 l 407 590 l 82 590 l 82 674 l 535 674 l 535 619 l 169 83 l 547 83 l 547 0 l 42 0 l 42 54 m 132 -161 l 493 -161 l 493 -233 l 132 -233 l 132 -161 z "},"ﬁ":{"ha":731,"x_min":42,"x_max":633,"o":"m 332 925 q 235 789 235 925 l 235 674 l 381 674 l 381 590 l 235 590 l 235 0 l 133 0 l 133 590 l 42 590 l 42 667 l 133 674 l 133 790 q 181 951 133 894 q 324 1008 229 1008 q 432 986 378 1008 l 410 908 q 332 925 371 925 m 513 674 l 613 674 l 613 0 l 513 0 l 513 674 m 564 818 q 514 838 533 818 q 494 889 494 857 q 514 938 494 919 q 564 957 533 957 q 614 938 594 957 q 633 889 633 919 q 614 838 633 857 q 564 818 594 818 z "},"ﬂ":{"ha":742,"x_min":42,"x_max":683,"o":"m 332 925 q 235 789 235 925 l 235 674 l 381 674 l 381 590 l 235 590 l 235 0 l 133 0 l 133 590 l 42 590 l 42 667 l 133 674 l 133 790 q 181 951 133 894 q 324 1008 229 1008 q 432 986 378 1008 l 410 908 q 332 925 371 925 m 622 -17 q 539 19 565 -17 q 513 124 513 54 l 513 992 l 613 992 l 613 115 q 622 80 613 92 q 644 68 631 68 q 669 71 656 68 l 683 -7 q 622 -17 657 -17 z "},"ª":{"ha":476,"x_min":54,"x_max":408,"o":"m 189 540 q 91 576 128 540 q 54 671 54 611 q 120 782 54 743 q 332 836 186 821 q 310 916 331 888 q 243 944 290 944 q 170 930 208 944 q 100 896 132 915 l 71 950 q 254 1008 169 1008 q 408 826 408 1008 l 408 551 l 347 551 l 338 604 l 332 604 q 189 540 260 540 m 213 604 q 332 663 272 604 l 332 786 q 177 747 224 774 q 131 676 131 719 q 213 604 131 604 z "},"º":{"ha":504,"x_min":42,"x_max":461,"o":"m 251 540 q 147 569 194 540 q 70 651 99 597 q 42 775 42 704 q 70 900 42 847 q 146 981 99 953 q 251 1008 193 1008 q 357 981 310 1008 q 433 900 404 953 q 461 775 461 847 q 433 651 461 704 q 356 569 404 597 q 251 540 308 540 m 251 606 q 346 652 311 606 q 381 775 381 699 q 346 898 381 851 q 251 944 311 944 q 157 898 192 944 q 122 775 122 851 q 158 652 122 699 q 251 606 193 606 z "},"θ":{"ha":719,"x_min":85,"x_max":635,"o":"m 360 1008 q 562 876 489 1008 q 635 500 635 744 q 563 110 635 238 q 360 -17 492 -17 q 156 110 228 -17 q 85 500 85 238 q 158 876 85 744 q 360 1008 231 1008 m 360 924 q 237 828 283 924 q 185 539 190 732 l 535 539 q 483 828 529 732 q 360 924 436 924 m 360 68 q 535 465 528 68 l 185 465 q 360 68 192 68 z "},"π":{"ha":803,"x_min":32,"x_max":769,"o":"m 665 -17 q 560 23 593 -17 q 528 143 528 63 l 531 333 l 535 588 l 283 588 q 273 319 283 460 q 243 -6 263 179 l 140 0 q 189 588 189 306 l 32 588 l 32 667 l 128 674 l 769 674 l 769 588 l 632 588 q 622 135 622 404 q 638 84 622 100 q 685 68 653 68 q 740 75 696 68 l 754 -3 q 665 -17 710 -17 z "},"χ":{"ha":658,"x_min":13,"x_max":667,"o":"m 13 -249 l 282 226 l 18 663 l 118 690 l 329 318 l 335 318 l 515 674 l 624 674 l 383 228 l 667 -239 l 569 -265 l 335 143 l 329 143 l 114 -265 l 13 -249 z "},"א":{"ha":778,"x_min":46,"x_max":729,"o":"m 613 0 l 297 474 l 149 0 l 46 0 l 197 478 l 235 569 l 107 771 l 217 771 l 340 576 l 471 383 l 503 499 l 586 771 l 690 771 l 533 289 l 729 0 l 613 0 z "},"ב":{"ha":731,"x_min":71,"x_max":676,"o":"m 676 85 l 676 0 l 471 0 l 71 0 l 71 85 l 471 85 l 471 517 q 432 647 471 607 q 321 686 393 686 l 71 686 l 71 771 l 344 771 q 578 513 578 771 l 578 85 l 676 85 z "},"ג":{"ha":517,"x_min":36,"x_max":453,"o":"m 350 0 l 315 189 q 216 61 275 113 q 75 -19 157 10 l 36 67 q 193 154 129 100 q 297 293 257 208 l 297 549 q 280 649 297 618 q 214 689 263 681 l 125 703 l 140 786 l 257 768 q 371 706 338 756 q 404 557 404 656 l 404 289 l 453 0 l 350 0 z "},"ד":{"ha":744,"x_min":74,"x_max":668,"o":"m 425 524 q 463 686 425 631 l 74 686 l 74 771 l 668 771 l 668 686 l 565 686 q 532 524 532 629 l 532 0 l 425 0 l 425 524 z "},"ה":{"ha":758,"x_min":83,"x_max":667,"o":"m 560 517 q 521 647 560 607 q 410 686 482 686 l 85 686 l 85 771 l 433 771 q 667 513 667 771 l 667 0 l 560 0 l 560 517 m 83 375 l 99 468 l 190 468 l 190 0 l 83 0 l 83 375 z "},"ו":{"ha":311,"x_min":90,"x_max":215,"o":"m 108 608 l 90 771 l 196 771 l 215 608 l 215 0 l 108 0 l 108 608 z "},"ז":{"ha":501,"x_min":76,"x_max":425,"o":"m 176 524 q 215 686 176 628 l 76 686 l 76 771 l 425 771 l 425 686 l 315 686 q 283 524 283 632 l 283 0 l 176 0 l 176 524 z "},"ח":{"ha":782,"x_min":88,"x_max":688,"o":"m 454 771 q 626 701 565 771 q 688 493 688 631 l 688 0 l 581 0 l 581 497 q 542 638 581 590 q 431 686 504 686 l 194 686 l 194 0 l 88 0 l 88 735 l 88 771 l 454 771 z "},"ט":{"ha":768,"x_min":68,"x_max":717,"o":"m 68 771 l 175 771 l 256 85 q 513 190 417 101 q 603 461 610 279 l 603 496 q 558 635 603 582 q 425 693 514 688 l 356 697 l 363 783 l 440 778 q 633 704 563 771 q 707 510 703 638 l 708 471 q 567 115 717 232 q 161 -14 417 -1 l 68 771 z "},"י":{"ha":311,"x_min":90,"x_max":215,"o":"m 108 608 l 90 771 l 196 771 l 215 608 l 215 401 l 214 314 l 108 292 l 108 608 z "},"ך":{"ha":699,"x_min":76,"x_max":603,"o":"m 496 517 q 457 647 496 607 q 346 686 418 686 l 76 686 l 76 771 l 369 771 q 603 513 603 771 l 603 -278 l 496 -278 l 496 517 z "},"כ":{"ha":654,"x_min":63,"x_max":579,"o":"m 63 85 l 246 85 q 415 150 358 85 q 472 342 472 215 l 472 429 q 415 621 472 556 q 246 686 358 686 l 63 686 l 63 771 l 267 771 q 498 682 417 771 q 579 425 579 593 l 579 346 q 498 89 579 178 q 267 0 417 0 l 63 0 l 63 85 z "},"ל":{"ha":661,"x_min":60,"x_max":597,"o":"m 597 771 l 597 681 l 329 0 l 222 0 l 490 686 l 60 686 l 60 996 l 158 996 l 158 771 l 597 771 z "},"ם":{"ha":806,"x_min":104,"x_max":711,"o":"m 478 771 q 711 513 711 771 l 711 0 l 604 0 l 131 0 l 104 0 l 104 771 l 211 771 l 478 771 m 604 85 l 604 517 q 565 647 604 607 q 454 686 526 686 l 211 686 l 211 85 l 604 85 z "},"מ":{"ha":840,"x_min":75,"x_max":769,"o":"m 769 393 q 687 90 769 196 q 450 -15 604 -15 q 336 -3 397 -15 l 347 82 q 442 71 393 71 q 612 151 557 71 q 667 389 667 231 q 468 692 667 692 q 347 649 393 692 q 285 536 301 606 l 186 0 l 79 0 l 182 540 l 75 771 l 186 771 l 256 604 q 344 735 283 692 q 483 779 406 779 q 692 688 615 779 q 769 393 769 597 z "},"ן":{"ha":311,"x_min":90,"x_max":215,"o":"m 108 608 l 90 771 l 196 771 l 215 608 l 215 -278 l 108 -278 l 108 608 z "},"נ":{"ha":511,"x_min":67,"x_max":415,"o":"m 67 85 l 308 85 l 308 547 q 281 648 308 615 q 200 689 254 681 l 107 703 l 122 786 l 243 768 q 371 699 326 754 q 415 550 415 644 l 415 0 l 67 0 l 67 85 z "},"ס":{"ha":785,"x_min":68,"x_max":726,"o":"m 713 446 q 163 -14 726 11 l 78 686 l 68 771 l 447 771 q 638 695 569 771 q 711 489 707 619 l 713 446 m 257 85 q 518 181 422 100 q 606 449 614 261 l 606 482 q 562 629 606 572 q 439 686 518 686 l 185 686 l 257 85 z "},"ע":{"ha":738,"x_min":36,"x_max":664,"o":"m 664 771 q 642 344 664 485 q 541 122 621 204 q 285 6 461 40 l 51 -40 l 36 46 l 282 93 l 103 771 l 210 771 l 379 121 q 503 228 465 156 q 549 415 540 301 q 558 771 557 528 l 664 771 z "},"ף":{"ha":760,"x_min":83,"x_max":664,"o":"m 386 771 q 591 683 519 771 q 664 426 663 594 l 664 -278 l 557 -278 l 557 429 q 364 686 557 686 l 218 686 l 192 558 q 183 481 183 515 q 202 405 183 433 q 261 367 221 376 l 235 297 q 119 353 156 310 q 83 471 83 396 q 93 563 83 515 l 138 771 l 386 771 z "},"פ":{"ha":751,"x_min":89,"x_max":678,"o":"m 106 85 l 333 85 q 506 145 442 85 q 571 344 571 206 l 571 429 q 522 621 571 556 q 375 686 474 686 l 229 686 l 193 532 q 185 463 185 493 q 210 389 185 415 q 296 351 236 363 l 274 278 q 133 333 176 288 q 89 458 89 378 q 97 540 89 497 l 150 771 l 393 771 q 602 682 528 771 q 678 426 676 593 l 678 349 q 588 84 678 168 q 351 0 497 0 l 106 0 l 106 85 z "},"ץ":{"ha":647,"x_min":64,"x_max":614,"o":"m 368 167 l 515 -278 l 410 -278 l 64 771 l 168 771 l 324 300 l 513 771 l 614 771 l 368 167 z "},"צ":{"ha":718,"x_min":54,"x_max":651,"o":"m 651 0 l 542 0 l 54 0 l 54 85 l 492 85 l 82 771 l 193 771 l 390 439 l 532 771 l 640 771 l 449 342 l 651 0 z "},"ק":{"ha":763,"x_min":78,"x_max":692,"o":"m 306 85 q 429 119 379 93 q 513 211 479 146 q 554 394 546 276 l 578 686 l 78 686 l 78 771 l 692 771 l 688 694 l 665 415 q 563 110 656 214 q 317 0 471 6 l 306 85 m 81 394 l 96 489 l 188 489 l 188 -278 l 81 -278 l 81 394 z "},"ר":{"ha":657,"x_min":57,"x_max":560,"o":"m 453 517 q 414 647 453 607 q 303 686 375 686 l 57 686 l 57 771 l 326 771 q 560 513 560 771 l 560 0 l 453 0 l 453 517 z "},"ש":{"ha":875,"x_min":68,"x_max":801,"o":"m 800 572 q 644 133 801 278 q 165 -14 486 -11 l 68 771 l 171 771 l 218 378 q 315 449 281 411 q 366 543 350 488 q 385 686 382 599 l 386 768 l 489 768 l 488 688 q 426 445 485 535 q 228 294 368 356 l 254 81 q 585 213 475 94 q 693 568 694 332 l 692 771 l 799 771 l 800 572 z "},"ת":{"ha":840,"x_min":31,"x_max":749,"o":"m 31 57 q 144 103 113 64 q 175 224 175 143 l 175 771 l 515 771 q 749 513 749 771 l 749 0 l 642 0 l 642 517 q 603 647 642 607 q 492 686 564 686 l 282 686 l 282 235 q 225 52 282 113 q 42 -19 168 -8 l 31 57 z "},"שׁ":{"ha":875,"x_min":68,"x_max":800,"o":"m 800 572 q 644 133 801 278 q 165 -14 486 -11 l 68 771 l 171 771 l 218 378 q 315 449 281 411 q 366 543 350 488 q 385 686 382 599 l 386 768 l 489 768 l 488 688 q 426 445 485 535 q 228 294 368 356 l 254 81 q 585 213 475 94 q 693 568 694 332 l 692 771 l 799 771 l 800 572 m 740 953 q 769 940 758 953 q 781 908 781 926 q 769 877 781 890 q 740 864 758 864 q 710 877 722 864 q 699 908 699 890 q 710 940 699 926 q 740 953 722 953 z "},"שׂ":{"ha":875,"x_min":63,"x_max":800,"o":"m 800 572 q 644 133 801 278 q 165 -14 486 -11 l 68 771 l 171 771 l 218 378 q 315 449 281 411 q 366 543 350 488 q 385 686 382 599 l 386 768 l 489 768 l 488 688 q 426 445 485 535 q 228 294 368 356 l 254 81 q 585 213 475 94 q 693 568 694 332 l 692 771 l 799 771 l 800 572 m 104 953 q 133 940 122 953 q 144 908 144 926 q 133 877 144 890 q 104 864 122 864 q 74 877 86 864 q 63 908 63 890 q 74 940 63 926 q 104 953 86 953 z "},"שּׁ":{"ha":875,"x_min":68,"x_max":800,"o":"m 800 572 q 644 133 801 278 q 165 -14 486 -11 l 68 771 l 171 771 l 218 378 q 315 449 281 411 q 366 543 350 488 q 385 686 382 599 l 386 768 l 489 768 l 488 688 q 426 445 485 535 q 228 294 368 356 l 254 81 q 585 213 475 94 q 693 568 694 332 l 692 771 l 799 771 l 800 572 m 517 432 q 546 419 535 432 q 557 388 557 406 q 546 356 557 369 q 517 343 535 343 q 487 356 499 343 q 475 388 475 369 q 487 419 475 406 q 517 432 499 432 m 740 953 q 769 940 758 953 q 781 908 781 926 q 769 877 781 890 q 740 864 758 864 q 710 877 722 864 q 699 908 699 890 q 710 940 699 926 q 740 953 722 953 z "},"שּׂ":{"ha":875,"x_min":63,"x_max":800,"o":"m 800 572 q 644 133 801 278 q 165 -14 486 -11 l 68 771 l 171 771 l 218 378 q 315 449 281 411 q 366 543 350 488 q 385 686 382 599 l 386 768 l 489 768 l 488 688 q 426 445 485 535 q 228 294 368 356 l 254 81 q 585 213 475 94 q 693 568 694 332 l 692 771 l 799 771 l 800 572 m 517 432 q 546 419 535 432 q 557 388 557 406 q 546 356 557 369 q 517 343 535 343 q 487 356 499 343 q 475 388 475 369 q 487 419 475 406 q 517 432 499 432 m 104 953 q 133 940 122 953 q 144 908 144 926 q 133 877 144 890 q 104 864 122 864 q 74 877 86 864 q 63 908 63 890 q 74 940 63 926 q 104 953 86 953 z "},"אַ":{"ha":778,"x_min":46,"x_max":729,"o":"m 613 0 l 297 474 l 149 0 l 46 0 l 197 478 l 235 569 l 107 771 l 217 771 l 340 576 l 471 383 l 503 499 l 586 771 l 690 771 l 533 289 l 729 0 l 613 0 m 503 -131 l 283 -131 l 283 -82 l 503 -82 l 503 -131 z "},"אָ":{"ha":778,"x_min":46,"x_max":729,"o":"m 613 0 l 297 474 l 149 0 l 46 0 l 197 478 l 235 569 l 107 771 l 217 771 l 340 576 l 471 383 l 503 499 l 586 771 l 690 771 l 533 289 l 729 0 l 613 0 m 503 -131 l 410 -131 l 419 -269 l 365 -269 l 375 -131 l 283 -131 l 283 -82 l 503 -82 l 503 -131 z "},"אּ":{"ha":778,"x_min":46,"x_max":729,"o":"m 613 0 l 297 474 l 149 0 l 46 0 l 197 478 l 235 569 l 107 771 l 217 771 l 340 576 l 471 383 l 503 499 l 586 771 l 690 771 l 533 289 l 729 0 l 613 0 m 347 210 q 376 197 365 210 q 388 165 388 183 q 376 134 388 147 q 347 121 365 121 q 317 134 329 121 q 306 165 306 147 q 317 197 306 183 q 347 210 329 210 z "},"בּ":{"ha":731,"x_min":71,"x_max":676,"o":"m 676 85 l 676 0 l 471 0 l 71 0 l 71 85 l 471 85 l 471 517 q 432 647 471 607 q 321 686 393 686 l 71 686 l 71 771 l 344 771 q 578 513 578 771 l 578 85 l 676 85 m 254 457 q 283 444 272 457 q 294 413 294 431 q 283 381 294 394 q 254 368 272 368 q 224 381 236 368 q 213 413 213 394 q 224 444 213 431 q 254 457 236 457 z "},"גּ":{"ha":517,"x_min":36,"x_max":453,"o":"m 350 0 l 315 189 q 216 61 275 113 q 75 -19 157 10 l 36 67 q 193 154 129 100 q 297 293 257 208 l 297 549 q 280 649 297 618 q 214 689 263 681 l 125 703 l 140 786 l 257 768 q 371 706 338 756 q 404 557 404 656 l 404 289 l 453 0 l 350 0 m 131 465 q 160 452 149 465 q 171 421 171 439 q 160 390 171 403 q 131 376 149 376 q 101 390 113 376 q 89 421 89 403 q 101 452 89 439 q 131 465 113 465 z "},"דּ":{"ha":744,"x_min":74,"x_max":668,"o":"m 425 524 q 463 686 425 631 l 74 686 l 74 771 l 668 771 l 668 686 l 565 686 q 532 524 532 629 l 532 0 l 425 0 l 425 524 m 243 457 q 272 444 261 457 q 283 413 283 431 q 272 381 283 394 q 243 368 261 368 q 213 381 225 368 q 201 413 201 394 q 213 444 201 431 q 243 457 225 457 z "},"הּ":{"ha":758,"x_min":83,"x_max":667,"o":"m 560 517 q 521 647 560 607 q 410 686 482 686 l 85 686 l 85 771 l 433 771 q 667 513 667 771 l 667 0 l 560 0 l 560 517 m 83 375 l 99 468 l 190 468 l 190 0 l 83 0 l 83 375 m 371 457 q 400 444 389 457 q 411 413 411 431 q 400 381 411 394 q 371 368 389 368 q 341 381 353 368 q 329 413 329 394 q 341 444 329 431 q 371 457 353 457 z "},"וּ":{"ha":311,"x_min":-46,"x_max":215,"o":"m 108 608 l 90 771 l 196 771 l 215 608 l 215 0 l 108 0 l 108 608 m -4 457 q 25 444 14 457 q 36 413 36 431 q 25 381 36 394 q -4 368 14 368 q -34 381 -22 368 q -46 413 -46 394 q -34 444 -46 431 q -4 457 -22 457 z "},"זּ":{"ha":501,"x_min":26,"x_max":425,"o":"m 176 524 q 215 686 176 628 l 76 686 l 76 771 l 425 771 l 425 686 l 315 686 q 283 524 283 632 l 283 0 l 176 0 l 176 524 m 68 457 q 97 444 86 457 q 108 413 108 431 q 97 381 108 394 q 68 368 86 368 q 38 381 50 368 q 26 413 26 394 q 38 444 26 431 q 68 457 50 457 z "},"טּ":{"ha":768,"x_min":68,"x_max":708,"o":"m 68 771 l 175 771 l 256 85 q 513 190 417 101 q 603 461 610 279 l 603 496 q 558 635 603 582 q 425 693 514 688 l 356 697 l 363 783 l 440 778 q 633 704 563 771 q 707 510 703 638 l 708 471 q 567 115 717 232 q 161 -14 417 -1 l 68 771 m 397 465 q 426 452 415 465 q 438 421 438 439 q 426 390 438 403 q 397 376 415 376 q 367 390 379 376 q 356 421 356 403 q 367 452 356 439 q 397 465 379 465 z "},"יּ":{"ha":311,"x_min":-36,"x_max":215,"o":"m 108 608 l 90 771 l 196 771 l 215 608 l 215 401 l 214 314 l 108 292 l 108 608 m 6 585 q 35 572 24 585 q 46 540 46 558 q 35 509 46 522 q 6 496 24 496 q -24 509 -12 496 q -36 540 -36 522 q -24 572 -36 558 q 6 585 -12 585 z "},"ךּ":{"ha":699,"x_min":76,"x_max":603,"o":"m 496 517 q 457 647 496 607 q 346 686 418 686 l 76 686 l 76 771 l 369 771 q 603 513 603 771 l 603 -278 l 496 -278 l 496 517 m 256 457 q 285 444 274 457 q 296 413 296 431 q 285 381 296 394 q 256 368 274 368 q 226 381 238 368 q 214 413 214 394 q 226 444 214 431 q 256 457 238 457 z "},"כּ":{"ha":654,"x_min":63,"x_max":579,"o":"m 63 85 l 246 85 q 415 150 358 85 q 472 342 472 215 l 472 429 q 415 621 472 556 q 246 686 358 686 l 63 686 l 63 771 l 267 771 q 498 682 417 771 q 579 425 579 593 l 579 346 q 498 89 579 178 q 267 0 417 0 l 63 0 l 63 85 m 240 447 q 269 434 258 447 q 281 403 281 421 q 269 372 281 385 q 240 358 258 358 q 210 372 222 358 q 199 403 199 385 q 210 434 199 421 q 240 447 222 447 z "},"לּ":{"ha":661,"x_min":60,"x_max":597,"o":"m 597 771 l 597 681 l 329 0 l 222 0 l 490 686 l 60 686 l 60 996 l 158 996 l 158 771 l 597 771 m 182 457 q 211 444 200 457 q 222 413 222 431 q 211 381 222 394 q 182 368 200 368 q 152 381 164 368 q 140 413 140 394 q 152 444 140 431 q 182 457 164 457 z "},"מּ":{"ha":840,"x_min":75,"x_max":769,"o":"m 769 393 q 687 90 769 196 q 450 -15 604 -15 q 336 -3 397 -15 l 347 82 q 442 71 393 71 q 612 151 557 71 q 667 389 667 231 q 468 692 667 692 q 347 649 393 692 q 285 536 301 606 l 186 0 l 79 0 l 182 540 l 75 771 l 186 771 l 256 604 q 344 735 283 692 q 483 779 406 779 q 692 688 615 779 q 769 393 769 597 m 458 457 q 488 444 476 457 q 499 413 499 431 q 488 381 499 394 q 458 368 476 368 q 428 381 440 368 q 417 413 417 394 q 428 444 417 431 q 458 457 440 457 z "},"נּ":{"ha":511,"x_min":67,"x_max":415,"o":"m 67 85 l 308 85 l 308 547 q 281 648 308 615 q 200 689 254 681 l 107 703 l 122 786 l 243 768 q 371 699 326 754 q 415 550 415 644 l 415 0 l 67 0 l 67 85 m 142 457 q 171 444 160 457 q 182 413 182 431 q 171 381 182 394 q 142 368 160 368 q 112 381 124 368 q 100 413 100 394 q 112 444 100 431 q 142 457 124 457 z "},"סּ":{"ha":785,"x_min":68,"x_max":713,"o":"m 713 446 q 163 -14 726 11 l 78 686 l 68 771 l 447 771 q 638 695 569 771 q 711 489 707 619 l 713 446 m 257 85 q 518 181 422 100 q 606 449 614 261 l 606 482 q 562 629 606 572 q 439 686 518 686 l 185 686 l 257 85 m 394 461 q 424 448 413 461 q 435 417 435 435 q 424 385 435 399 q 394 372 413 372 q 365 385 376 372 q 353 417 353 399 q 365 448 353 435 q 394 461 376 461 z "},"ףּ":{"ha":760,"x_min":83,"x_max":664,"o":"m 386 771 q 591 683 519 771 q 664 426 663 594 l 664 -278 l 557 -278 l 557 429 q 364 686 557 686 l 218 686 l 192 558 q 183 481 183 515 q 202 405 183 433 q 261 367 221 376 l 235 297 q 119 353 156 310 q 83 471 83 396 q 93 563 83 515 l 138 771 l 386 771 m 400 457 q 429 444 418 457 q 440 413 440 431 q 429 381 440 394 q 400 368 418 368 q 370 381 382 368 q 358 413 358 394 q 370 444 358 431 q 400 457 382 457 z "},"פּ":{"ha":751,"x_min":89,"x_max":678,"o":"m 106 85 l 333 85 q 506 145 442 85 q 571 344 571 206 l 571 429 q 522 621 571 556 q 375 686 474 686 l 229 686 l 193 532 q 185 463 185 493 q 210 389 185 415 q 296 351 236 363 l 274 278 q 133 333 176 288 q 89 458 89 378 q 97 540 89 497 l 150 771 l 393 771 q 602 682 528 771 q 678 426 676 593 l 678 349 q 588 84 678 168 q 351 0 497 0 l 106 0 l 106 85 m 399 453 q 428 440 417 453 q 439 408 439 426 q 428 377 439 390 q 399 364 417 364 q 369 377 381 364 q 357 408 357 390 q 369 440 357 426 q 399 453 381 453 z "},"צּ":{"ha":718,"x_min":54,"x_max":651,"o":"m 651 0 l 542 0 l 54 0 l 54 85 l 492 85 l 82 771 l 193 771 l 390 439 l 532 771 l 640 771 l 449 342 l 651 0 m 246 258 q 235 227 246 240 q 206 214 224 214 q 176 227 188 214 q 164 258 164 240 q 176 290 164 276 q 206 303 188 303 q 235 290 224 303 q 246 258 246 276 z "},"קּ":{"ha":763,"x_min":78,"x_max":692,"o":"m 306 85 q 429 119 379 93 q 513 211 479 146 q 554 394 546 276 l 578 686 l 78 686 l 78 771 l 692 771 l 688 694 l 665 415 q 563 110 656 214 q 317 0 471 6 l 306 85 m 81 394 l 96 489 l 188 489 l 188 -278 l 81 -278 l 81 394 m 381 465 q 410 452 399 465 q 421 421 421 439 q 410 390 421 403 q 381 376 399 376 q 351 390 363 376 q 339 421 339 403 q 351 452 339 439 q 381 465 363 465 z "},"רּ":{"ha":657,"x_min":57,"x_max":560,"o":"m 453 517 q 414 647 453 607 q 303 686 375 686 l 57 686 l 57 771 l 326 771 q 560 513 560 771 l 560 0 l 453 0 l 453 517 m 222 457 q 251 444 240 457 q 263 413 263 431 q 251 381 263 394 q 222 368 240 368 q 192 381 204 368 q 181 413 181 394 q 192 444 181 431 q 222 457 204 457 z "},"שּ":{"ha":875,"x_min":68,"x_max":800,"o":"m 800 572 q 644 133 801 278 q 165 -14 486 -11 l 68 771 l 171 771 l 218 378 q 315 449 281 411 q 366 543 350 488 q 385 686 382 599 l 386 768 l 489 768 l 488 688 q 426 445 485 535 q 228 294 368 356 l 254 81 q 585 213 475 94 q 693 568 694 332 l 692 771 l 799 771 l 800 572 m 517 432 q 546 419 535 432 q 557 388 557 406 q 546 356 557 369 q 517 343 535 343 q 487 356 499 343 q 475 388 475 369 q 487 419 475 406 q 517 432 499 432 z "},"תּ":{"ha":840,"x_min":31,"x_max":749,"o":"m 31 57 q 144 103 113 64 q 175 224 175 143 l 175 771 l 515 771 q 749 513 749 771 l 749 0 l 642 0 l 642 517 q 603 647 642 607 q 492 686 564 686 l 282 686 l 282 235 q 225 52 282 113 q 42 -19 168 -8 l 31 57 m 457 457 q 486 444 475 457 q 497 413 497 431 q 486 381 497 394 q 457 368 475 368 q 427 381 439 368 q 415 413 415 394 q 427 444 415 431 q 457 457 439 457 z "},"וֹ":{"ha":311,"x_min":85,"x_max":215,"o":"m 108 608 l 90 771 l 196 771 l 215 608 l 215 0 l 108 0 l 108 608 m 126 947 q 156 935 144 947 q 167 904 167 922 q 156 873 167 886 q 126 860 144 860 q 97 873 108 860 q 85 904 85 886 q 97 934 85 921 q 126 947 108 947 z "},"ℊ":{"ha":772,"x_min":69,"x_max":651,"o":"m 360 -306 q 234 -286 296 -306 q 119 -231 172 -267 l 158 -160 q 360 -222 250 -222 q 501 -173 453 -222 q 551 -35 549 -124 l 553 99 q 458 31 511 57 q 347 4 406 4 q 144 95 219 4 q 69 346 69 186 q 110 527 69 449 q 219 648 151 606 q 365 690 288 690 q 464 671 419 690 q 554 611 508 651 l 558 611 l 567 674 l 651 674 l 651 -40 q 575 -235 651 -164 q 360 -306 499 -306 m 368 89 q 460 113 417 89 q 551 188 504 138 l 551 531 q 465 587 507 569 q 379 604 424 604 q 275 571 322 604 q 201 478 228 538 q 174 346 174 419 q 225 158 174 228 q 368 89 276 89 z "},"⁄":{"ha":118,"x_min":-231,"x_max":344,"o":"m 274 929 l 344 929 l -160 -17 l -231 -17 l 274 929 z "},"½":{"ha":1115,"x_min":104,"x_max":1047,"o":"m 221 821 l 104 821 l 104 874 q 177 895 147 882 q 235 929 207 908 l 301 929 l 301 388 l 221 388 l 221 821 m 739 929 l 810 929 l 306 -17 l 235 -17 l 739 929 m 681 47 q 883 246 825 178 q 940 372 940 314 q 911 458 940 426 q 832 490 882 490 q 768 468 799 490 q 713 410 738 446 l 664 454 q 742 530 696 501 q 842 558 789 558 q 972 513 924 558 q 1019 383 1019 468 q 994 286 1019 333 q 930 196 968 239 q 810 68 892 153 l 1047 68 l 1047 0 l 681 0 l 681 47 z "},"¼":{"ha":1096,"x_min":104,"x_max":1047,"o":"m 221 388 l 221 821 l 104 821 l 104 874 q 177 895 147 882 q 235 929 207 908 l 301 929 l 301 388 l 221 388 m 833 929 l 329 -17 l 258 -17 l 763 929 l 833 929 m 1047 149 l 967 149 l 967 0 l 893 0 l 893 149 l 647 149 l 647 189 l 879 542 l 967 542 l 967 207 l 1047 207 l 1047 149 m 893 207 l 893 311 l 900 460 l 894 460 l 822 346 l 732 207 l 893 207 z "},"¾":{"ha":1115,"x_min":51,"x_max":1067,"o":"m 439 532 q 385 415 439 458 q 250 371 331 371 q 135 400 188 371 q 51 476 83 429 l 106 518 q 168 457 132 479 q 246 435 204 435 q 326 463 293 435 q 358 536 358 490 q 313 610 358 585 q 185 636 268 636 l 185 689 q 297 718 256 689 q 338 792 338 747 q 310 857 338 832 q 235 882 282 882 q 176 863 206 882 q 122 814 147 844 l 74 857 q 246 946 149 946 q 368 906 318 946 q 418 801 418 867 q 392 720 418 754 q 319 667 365 686 q 405 619 371 654 q 439 532 439 585 m 882 929 l 378 -17 l 307 -17 l 811 929 l 882 929 m 1067 149 l 986 149 l 986 0 l 913 0 l 913 149 l 667 149 l 667 189 l 899 542 l 986 542 l 986 207 l 1067 207 l 1067 149 m 913 207 l 913 311 l 919 460 l 914 460 l 842 346 l 751 207 l 913 207 z "},"*":{"ha":572,"x_min":85,"x_max":488,"o":"m 139 635 l 217 764 l 85 818 l 104 876 l 243 840 l 256 989 l 317 989 l 329 843 l 468 876 l 488 818 l 356 764 l 433 635 l 382 599 l 288 717 l 190 599 l 139 635 z "},"\\":{"ha":489,"x_min":17,"x_max":475,"o":"m 17 986 l 92 986 l 475 -222 l 400 -222 l 17 986 z "},"·":{"ha":336,"x_min":92,"x_max":244,"o":"m 168 367 q 114 390 136 367 q 92 447 92 413 q 114 506 92 483 q 168 529 136 529 q 222 506 200 529 q 244 447 244 483 q 222 390 244 413 q 168 367 200 367 z "},"•":{"ha":414,"x_min":56,"x_max":358,"o":"m 207 201 q 101 248 146 201 q 56 365 56 294 q 101 483 56 438 q 207 529 146 529 q 314 483 269 529 q 358 365 358 438 q 314 248 358 294 q 207 201 269 201 z "},":":{"ha":336,"x_min":92,"x_max":244,"o":"m 168 492 q 114 515 136 492 q 92 572 92 538 q 114 631 92 608 q 168 654 136 654 q 222 631 200 654 q 244 572 244 608 q 222 515 244 538 q 168 492 200 492 m 168 -17 q 114 6 136 -17 q 92 64 92 29 q 114 123 92 100 q 168 146 136 146 q 222 123 200 146 q 244 64 244 100 q 222 6 244 29 q 168 -17 200 -17 z "},",":{"ha":336,"x_min":65,"x_max":264,"o":"m 174 146 q 240 113 215 146 q 264 21 264 79 q 217 -130 264 -64 q 92 -231 171 -196 l 65 -169 q 153 -101 122 -144 q 186 -1 185 -58 q 172 -3 182 -3 q 117 17 139 -3 q 94 72 94 38 q 118 126 94 106 q 174 146 142 146 z "},"…":{"ha":1386,"x_min":154,"x_max":1235,"o":"m 231 -17 q 176 6 199 -17 q 154 64 154 29 q 176 123 154 100 q 231 146 199 146 q 285 123 263 146 q 307 64 307 100 q 285 6 307 29 q 231 -17 263 -17 m 694 -17 q 640 6 663 -17 q 618 64 618 29 q 640 123 618 100 q 694 146 663 146 q 749 123 726 146 q 771 64 771 100 q 749 6 771 29 q 694 -17 726 -17 m 1158 -17 q 1104 6 1126 -17 q 1082 64 1082 29 q 1104 123 1082 100 q 1158 146 1126 146 q 1213 123 1190 146 q 1235 64 1235 100 q 1213 6 1235 29 q 1158 -17 1190 -17 z "},"!":{"ha":392,"x_min":119,"x_max":272,"o":"m 147 808 l 144 931 l 247 931 l 244 808 l 231 269 l 161 269 l 147 808 m 196 -17 q 142 6 164 -17 q 119 64 119 29 q 142 123 119 100 q 196 146 164 146 q 250 123 228 146 q 272 64 272 100 q 250 6 272 29 q 196 -17 228 -17 z "},"¡":{"ha":392,"x_min":119,"x_max":272,"o":"m 196 528 q 142 551 164 528 q 119 610 119 574 q 142 667 119 644 q 196 690 164 690 q 250 667 228 690 q 272 610 272 644 q 250 551 272 574 q 196 528 228 528 m 147 -136 l 161 404 l 231 404 l 244 -136 l 247 -257 l 144 -257 l 147 -136 z "},"#":{"ha":683,"x_min":49,"x_max":642,"o":"m 161 288 l 49 288 l 49 360 l 169 360 l 196 572 l 76 572 l 76 644 l 204 644 l 238 903 l 304 903 l 272 644 l 463 644 l 496 903 l 563 903 l 531 644 l 642 644 l 642 572 l 522 572 l 496 360 l 614 360 l 614 288 l 488 288 l 453 0 l 385 0 l 419 288 l 229 288 l 194 0 l 126 0 l 161 288 m 428 360 l 454 572 l 264 572 l 238 360 l 428 360 z "},".":{"ha":336,"x_min":92,"x_max":244,"o":"m 168 -17 q 114 6 136 -17 q 92 64 92 29 q 114 123 92 100 q 168 146 136 146 q 222 123 200 146 q 244 64 244 100 q 222 6 244 29 q 168 -17 200 -17 z "},"?":{"ha":582,"x_min":53,"x_max":515,"o":"m 222 269 q 219 308 219 297 q 247 428 219 376 q 328 546 275 481 q 394 638 372 599 q 415 721 415 676 q 379 822 415 782 q 275 863 343 863 q 187 841 229 863 q 111 781 144 819 l 53 835 q 286 947 153 947 q 453 888 390 947 q 515 728 515 828 q 490 625 515 671 q 414 515 465 579 q 338 406 364 454 q 311 299 311 358 q 313 269 311 279 l 222 269 m 271 -17 q 217 6 239 -17 q 194 64 194 29 q 217 123 194 100 q 271 146 239 146 q 325 123 303 146 q 347 64 347 100 q 325 6 347 29 q 271 -17 303 -17 z "},"¿":{"ha":582,"x_min":67,"x_max":529,"o":"m 311 528 q 257 551 279 528 q 235 610 235 574 q 257 667 235 644 q 311 690 279 690 q 365 667 343 690 q 388 610 388 644 q 365 551 388 574 q 311 528 343 528 m 296 -274 q 129 -214 192 -274 q 67 -56 67 -154 q 92 49 67 3 q 168 158 117 94 q 245 269 219 222 q 271 375 271 315 q 269 404 271 394 l 360 404 q 363 365 363 376 q 335 244 363 297 q 254 129 307 192 q 188 34 210 72 q 167 -49 167 -4 q 203 -149 167 -110 q 307 -189 239 -189 q 395 -167 353 -189 q 471 -108 438 -146 l 529 -161 q 296 -274 429 -274 z "},"\"":{"ha":568,"x_min":113,"x_max":454,"o":"m 115 840 l 113 960 l 221 960 l 218 840 l 199 615 l 135 615 l 115 840 m 349 840 l 346 960 l 454 960 l 451 840 l 432 615 l 368 615 l 349 840 z "},"'":{"ha":336,"x_min":113,"x_max":221,"o":"m 115 840 l 113 960 l 221 960 l 218 840 l 199 615 l 135 615 l 115 840 z "},";":{"ha":336,"x_min":65,"x_max":264,"o":"m 168 492 q 114 515 136 492 q 92 572 92 538 q 114 631 92 608 q 168 654 136 654 q 222 631 200 654 q 244 572 244 608 q 222 515 244 538 q 168 492 200 492 m 174 146 q 240 113 215 146 q 264 21 264 79 q 217 -130 264 -64 q 92 -231 171 -196 l 65 -169 q 153 -101 122 -144 q 186 -1 185 -58 q 172 -3 182 -3 q 117 17 139 -3 q 94 72 94 38 q 118 126 94 106 q 174 146 142 146 z "},"/":{"ha":489,"x_min":14,"x_max":474,"o":"m 399 986 l 474 986 l 89 -222 l 14 -222 l 399 986 z "},"_":{"ha":694,"x_min":17,"x_max":678,"o":"m 17 -101 l 678 -101 l 678 -172 l 17 -172 l 17 -101 z "},"{":{"ha":413,"x_min":47,"x_max":374,"o":"m 315 -211 q 193 -172 231 -211 q 156 -28 156 -132 q 161 114 156 25 q 167 244 167 197 q 140 322 167 292 q 47 354 113 353 l 47 418 q 140 450 113 419 q 167 526 167 481 q 161 660 167 574 q 156 800 156 749 q 193 944 156 904 q 315 983 231 983 l 374 983 l 374 925 l 336 925 q 258 894 279 925 q 238 793 238 864 q 242 674 238 735 q 244 614 242 656 q 246 538 246 572 q 228 436 246 471 q 165 389 210 401 l 165 383 q 227 335 208 371 q 246 235 246 300 q 244 158 246 200 q 242 99 242 117 q 238 -21 238 39 q 258 -122 238 -92 q 336 -153 279 -153 l 374 -153 l 374 -211 l 315 -211 z "},"}":{"ha":413,"x_min":39,"x_max":365,"o":"m 39 -153 l 76 -153 q 154 -122 133 -153 q 175 -21 175 -92 q 171 99 175 39 q 169 158 171 117 q 167 235 167 200 q 185 335 167 300 q 247 383 204 371 l 247 389 q 185 436 204 401 q 167 538 167 471 q 169 614 167 572 q 171 674 171 656 q 175 793 175 735 q 154 894 175 864 q 76 925 133 925 l 39 925 l 39 983 l 97 983 q 219 944 182 983 q 257 800 257 904 q 251 660 257 749 q 246 526 246 574 q 273 450 246 481 q 365 418 300 419 l 365 354 q 273 322 300 353 q 246 244 246 292 q 251 114 246 197 q 257 -28 257 25 q 219 -172 257 -132 q 97 -211 182 -211 l 39 -211 l 39 -153 z "},"[":{"ha":413,"x_min":132,"x_max":374,"o":"m 132 983 l 374 983 l 374 925 l 208 925 l 208 -153 l 374 -153 l 374 -211 l 132 -211 l 132 983 z "},"]":{"ha":413,"x_min":39,"x_max":281,"o":"m 39 -153 l 204 -153 l 204 925 l 39 925 l 39 983 l 281 983 l 281 -211 l 39 -211 l 39 -153 z "},"(":{"ha":413,"x_min":115,"x_max":361,"o":"m 299 -244 q 162 56 208 -97 q 115 386 115 210 q 162 716 115 563 q 299 1017 208 869 l 361 986 q 241 701 282 856 q 200 386 200 547 q 241 71 200 225 q 361 -214 282 -83 l 299 -244 z "},")":{"ha":413,"x_min":51,"x_max":297,"o":"m 51 -214 q 172 71 131 -83 q 213 386 213 225 q 172 701 213 547 q 51 986 131 856 l 114 1017 q 251 716 204 869 q 297 386 297 563 q 251 56 297 210 q 114 -244 204 -97 l 51 -214 z "},"—":{"ha":1111,"x_min":57,"x_max":1054,"o":"m 57 385 l 1054 385 l 1054 313 l 57 313 l 57 385 z "},"–":{"ha":667,"x_min":57,"x_max":610,"o":"m 57 385 l 610 385 l 610 313 l 57 313 l 57 385 z "},"-":{"ha":428,"x_min":57,"x_max":372,"o":"m 57 388 l 372 388 l 372 308 l 57 308 l 57 388 z "},"‐":{"ha":428,"x_min":57,"x_max":372,"o":"m 57 388 l 372 388 l 372 308 l 57 308 l 57 388 z "},"­":{"ha":428,"x_min":57,"x_max":372,"o":"m 57 388 l 372 388 l 372 308 l 57 308 l 57 388 z "},"«":{"ha":586,"x_min":61,"x_max":511,"o":"m 61 311 l 61 389 l 251 607 l 297 568 l 132 350 l 297 131 l 251 93 l 61 311 m 275 311 l 275 389 l 465 607 l 511 568 l 346 350 l 511 131 l 465 93 l 275 311 z "},"»":{"ha":586,"x_min":75,"x_max":524,"o":"m 75 131 l 240 350 l 75 568 l 121 607 l 310 389 l 310 311 l 121 93 l 75 131 m 289 131 l 454 350 l 289 568 l 335 607 l 524 389 l 524 311 l 335 93 l 289 131 z "},"‹":{"ha":372,"x_min":61,"x_max":297,"o":"m 61 311 l 61 389 l 251 607 l 297 568 l 132 350 l 297 131 l 251 93 l 61 311 z "},"›":{"ha":372,"x_min":75,"x_max":310,"o":"m 75 131 l 240 350 l 75 568 l 121 607 l 310 389 l 310 311 l 121 93 l 75 131 z "},"„":{"ha":568,"x_min":85,"x_max":490,"o":"m 175 160 q 235 129 214 160 q 257 42 257 99 q 115 -197 257 -114 l 85 -149 q 163 -72 139 -111 q 188 24 188 -33 q 175 22 183 22 q 127 40 147 22 q 107 88 107 58 q 126 140 107 121 q 175 160 144 160 m 408 160 q 469 129 447 160 q 490 42 490 99 q 349 -197 490 -114 l 318 -149 q 397 -72 372 -111 q 421 24 421 -33 q 408 22 417 22 q 360 40 381 22 q 340 88 340 58 q 359 140 340 121 q 408 160 378 160 z "},"“":{"ha":568,"x_min":79,"x_max":483,"o":"m 160 750 q 209 733 189 750 q 229 685 229 715 q 210 632 229 651 q 160 613 190 613 q 101 643 122 613 q 79 731 79 674 q 219 969 79 885 l 250 921 q 173 844 197 883 q 149 749 149 806 q 160 750 151 750 m 393 750 q 442 733 422 750 q 463 685 463 715 q 443 632 463 651 q 393 613 424 613 q 334 643 356 613 q 313 731 313 674 q 453 969 313 885 l 483 921 q 406 844 431 883 q 382 749 382 806 q 393 750 385 750 z "},"”":{"ha":568,"x_min":85,"x_max":490,"o":"m 175 971 q 235 940 214 971 q 257 853 257 910 q 115 614 257 697 l 85 663 q 163 739 139 700 q 188 835 188 778 q 175 833 183 833 q 127 851 147 833 q 107 899 107 869 q 126 951 107 932 q 175 971 144 971 m 408 971 q 469 940 447 971 q 490 853 490 910 q 349 614 490 697 l 318 663 q 397 739 372 700 q 421 835 421 778 q 408 833 417 833 q 360 851 381 833 q 340 899 340 869 q 359 951 340 932 q 408 971 378 971 z "},"‘":{"ha":336,"x_min":79,"x_max":250,"o":"m 160 750 q 209 733 189 750 q 229 685 229 715 q 210 632 229 651 q 160 613 190 613 q 101 643 122 613 q 79 731 79 674 q 219 969 79 885 l 250 921 q 173 844 197 883 q 149 749 149 806 q 160 750 151 750 z "},"’":{"ha":336,"x_min":85,"x_max":257,"o":"m 175 971 q 235 940 214 971 q 257 853 257 910 q 115 614 257 697 l 85 663 q 163 739 139 700 q 188 835 188 778 q 175 833 183 833 q 127 851 147 833 q 107 899 107 869 q 126 951 107 932 q 175 971 144 971 z "},"‚":{"ha":336,"x_min":85,"x_max":257,"o":"m 175 160 q 235 129 214 160 q 257 42 257 99 q 115 -197 257 -114 l 85 -149 q 163 -72 139 -111 q 188 24 188 -33 q 175 22 183 22 q 127 40 147 22 q 107 88 107 58 q 126 140 107 121 q 175 160 144 160 z "},"׀":{"ha":278,"x_min":107,"x_max":172,"o":"m 107 896 l 172 896 l 172 -139 l 107 -139 l 107 896 z "},"׃":{"ha":346,"x_min":93,"x_max":251,"o":"m 93 576 l 174 654 l 251 576 l 174 496 l 93 576 m 93 104 l 174 183 l 251 104 l 174 24 l 93 104 z "},"׳":{"ha":296,"x_min":69,"x_max":263,"o":"m 69 724 l 190 963 l 263 925 l 126 697 l 69 724 z "},"״":{"ha":539,"x_min":69,"x_max":467,"o":"m 69 724 l 190 963 l 263 925 l 126 697 l 69 724 m 274 724 l 393 963 l 467 925 l 331 697 l 274 724 z "},"־":{"ha":438,"x_min":63,"x_max":375,"o":"m 63 771 l 375 771 l 375 686 l 63 686 l 63 771 z "}," ":{"ha":281,"x_min":0,"x_max":0,"o":""},"‎":{"ha":0,"x_min":-158,"x_max":200,"o":"m 19 1100 l 107 1192 l -158 1192 l -158 1242 l 107 1242 l 19 1329 l 54 1367 l 200 1215 l 54 1065 l 19 1100 z "},"‏":{"ha":0,"x_min":-200,"x_max":161,"o":"m -200 1215 l -54 1367 l -19 1331 l -107 1242 l 161 1242 l 161 1192 l -106 1192 l -19 1100 l -54 1067 l -200 1215 z "},"‭":{"ha":0,"x_min":-217,"x_max":238,"o":"m -79 1100 l 8 1192 l -217 1192 l -217 1242 l 6 1242 l -79 1329 l -43 1367 l 101 1215 l -43 1065 l -79 1100 m 57 1100 l 171 1215 l 57 1329 l 92 1367 l 238 1215 l 92 1065 l 57 1100 z "},"‮":{"ha":0,"x_min":-237,"x_max":218,"o":"m -237 1269 l -92 1418 l -57 1382 l -168 1269 l -57 1154 l -92 1118 l -237 1269 m -99 1269 l 43 1418 l 82 1382 l -6 1290 l 218 1290 l 218 1243 l -6 1243 l 82 1154 l 43 1118 l -99 1269 z "},"¢":{"ha":683,"x_min":85,"x_max":625,"o":"m 625 188 q 533 127 583 150 q 428 101 482 104 l 428 -43 l 361 -43 l 361 103 q 160 203 235 117 q 85 431 85 289 q 162 655 85 569 q 361 757 239 740 l 361 907 l 428 907 l 428 761 q 610 681 532 756 l 560 617 q 428 676 497 672 l 428 185 q 579 253 507 190 l 625 188 m 186 431 q 233 270 186 333 q 361 190 279 207 l 361 671 q 233 589 281 653 q 186 431 186 525 z "},"¤":{"ha":683,"x_min":39,"x_max":646,"o":"m 39 203 l 128 294 q 76 457 76 364 q 126 621 76 550 l 39 713 l 93 769 l 186 674 q 258 714 218 700 q 342 728 299 728 q 425 714 385 728 q 497 674 465 700 l 590 769 l 646 713 l 556 621 q 607 457 607 551 q 556 294 607 364 l 646 203 l 590 146 l 497 242 q 425 201 465 215 q 342 188 385 188 q 186 242 256 188 l 93 146 l 39 203 m 342 264 q 463 318 413 264 q 513 457 513 372 q 490 557 513 513 q 427 626 467 601 q 342 651 388 651 q 256 626 296 651 q 194 557 217 601 q 171 457 171 513 q 221 318 171 372 q 342 264 271 264 z "},"$":{"ha":683,"x_min":75,"x_max":600,"o":"m 600 225 q 542 63 600 126 q 386 -14 483 -1 l 386 -153 l 310 -153 l 310 -15 q 182 20 244 -10 q 75 92 119 50 l 122 161 q 340 68 231 68 q 460 108 418 68 q 501 218 501 149 q 476 310 501 272 q 415 371 451 347 q 315 426 378 394 q 208 488 249 460 q 138 562 167 517 q 110 672 110 607 q 165 826 110 764 q 310 900 219 888 l 310 1039 l 386 1039 l 386 901 q 492 869 447 896 q 581 799 538 843 l 526 738 q 445 799 482 781 q 354 818 408 818 q 249 779 289 818 q 210 678 210 740 q 232 600 210 632 q 288 547 254 568 q 379 499 321 526 q 495 433 451 463 q 569 353 539 404 q 600 225 600 301 z "},"€":{"ha":683,"x_min":32,"x_max":676,"o":"m 676 113 q 439 -17 578 -17 q 229 75 314 -17 q 121 329 144 167 l 32 329 l 32 386 l 115 392 q 114 443 114 408 q 115 488 114 474 l 32 488 l 32 544 l 121 550 q 233 809 143 715 q 458 903 322 903 q 572 873 518 903 q 663 794 626 843 l 603 738 q 535 799 571 778 q 456 821 499 821 q 301 750 361 821 q 225 550 242 679 l 588 550 l 588 488 l 219 488 q 218 446 218 474 q 219 392 218 410 l 532 392 l 532 329 l 226 329 q 301 135 244 206 q 444 65 358 65 q 537 90 496 65 q 615 167 578 115 l 676 113 z "},"ƒ":{"ha":683,"x_min":22,"x_max":635,"o":"m 532 846 q 401 654 422 846 l 392 567 l 571 567 l 571 488 l 382 488 l 344 149 q 278 -62 329 11 q 121 -135 228 -135 q 22 -114 61 -135 l 43 -37 q 113 -53 71 -50 q 208 3 176 -51 q 251 168 239 57 l 286 488 l 161 488 l 161 560 l 257 567 l 294 567 l 303 646 q 371 858 318 788 q 528 929 424 929 q 635 904 582 929 l 613 825 q 573 840 590 835 q 532 846 556 846 z "},"₪":{"ha":1019,"x_min":96,"x_max":940,"o":"m 96 771 l 435 771 q 597 703 544 771 q 649 493 649 635 l 649 279 l 563 279 l 563 497 q 533 640 563 594 q 432 686 504 686 l 203 686 l 203 0 l 96 0 l 96 771 m 333 506 l 419 506 l 419 94 q 676 152 586 100 q 801 303 767 204 q 833 568 835 403 l 831 771 l 938 771 l 939 568 q 881 240 940 364 q 690 59 822 117 q 333 0 558 1 l 333 506 z "},"£":{"ha":683,"x_min":74,"x_max":621,"o":"m 621 88 l 621 0 l 75 0 l 75 61 q 184 168 146 100 q 222 317 222 236 q 213 399 222 353 l 74 399 l 74 465 l 167 469 l 193 469 q 178 519 190 481 q 160 592 167 558 q 154 653 154 625 q 224 835 154 768 q 407 903 293 903 q 618 800 535 903 l 558 742 q 413 818 496 818 q 296 772 338 818 q 254 650 254 726 q 262 581 254 615 q 283 497 269 546 q 290 469 285 490 l 513 469 l 513 399 l 306 399 q 314 315 314 360 q 292 190 314 242 q 225 93 271 139 l 225 88 l 621 88 z "},"¥":{"ha":683,"x_min":35,"x_max":650,"o":"m 290 222 l 65 222 l 65 283 l 290 283 l 290 376 l 65 376 l 65 436 l 264 436 l 35 886 l 140 886 l 254 640 l 340 453 l 346 453 q 367 498 358 478 q 383 533 376 518 q 433 640 417 607 l 547 886 l 650 886 l 418 436 l 619 436 l 619 376 l 392 376 l 392 283 l 619 283 l 619 222 l 392 222 l 392 0 l 290 0 l 290 222 z "},"≈":{"ha":683,"x_min":51,"x_max":632,"o":"m 464 507 q 393 524 425 507 q 321 574 361 542 q 265 613 289 600 q 217 626 242 626 q 110 542 156 626 l 51 581 q 130 674 86 643 q 219 704 174 704 q 290 688 258 704 q 364 638 321 671 q 420 598 397 611 q 467 585 443 585 q 574 669 531 585 l 632 628 q 553 537 597 567 q 464 507 510 507 m 464 213 q 393 230 425 213 q 321 279 361 247 q 265 319 289 306 q 217 332 242 332 q 110 247 156 332 l 51 286 q 130 379 86 349 q 219 410 174 410 q 290 393 258 410 q 364 343 321 376 q 420 303 397 317 q 467 290 443 290 q 574 375 531 290 l 632 333 q 553 242 597 272 q 464 213 510 213 z "},"~":{"ha":683,"x_min":51,"x_max":632,"o":"m 464 360 q 393 377 425 360 q 321 426 361 394 q 265 466 289 453 q 217 479 242 479 q 110 394 156 479 l 51 433 q 130 526 86 496 q 219 557 174 557 q 290 540 258 557 q 364 490 321 524 q 420 451 397 464 q 467 438 443 438 q 574 522 531 438 l 632 481 q 553 390 597 419 q 464 360 510 360 z "},"∙":{"ha":692,"x_min":264,"x_max":417,"o":"m 340 371 q 286 394 308 371 q 264 451 264 417 q 286 510 264 488 q 340 533 308 533 q 394 510 372 533 q 417 451 417 488 q 394 394 417 417 q 340 371 372 371 z "},"÷":{"ha":683,"x_min":47,"x_max":636,"o":"m 342 638 q 292 658 313 638 q 272 708 272 678 q 292 758 272 739 q 342 778 313 778 q 391 758 371 778 q 411 708 411 739 q 391 658 411 678 q 342 638 371 638 m 47 497 l 636 497 l 636 419 l 47 419 l 47 497 m 342 138 q 292 158 313 138 q 272 208 272 178 q 292 258 272 239 q 342 278 313 278 q 391 258 371 278 q 411 208 411 239 q 391 158 411 178 q 342 138 371 138 z "},"∕":{"ha":118,"x_min":-231,"x_max":344,"o":"m 274 929 l 344 929 l -160 -17 l -231 -17 l 274 929 z "},"=":{"ha":683,"x_min":47,"x_max":636,"o":"m 47 644 l 636 644 l 636 567 l 47 567 l 47 644 m 47 350 l 636 350 l 636 272 l 47 272 l 47 350 z "},">":{"ha":683,"x_min":47,"x_max":636,"o":"m 47 276 l 533 458 l 533 464 l 47 646 l 47 735 l 636 503 l 636 419 l 47 188 l 47 276 z "},"≥":{"ha":683,"x_min":47,"x_max":636,"o":"m 47 301 l 346 408 l 533 471 l 533 476 l 346 539 l 47 646 l 47 735 l 636 521 l 636 426 l 47 213 l 47 301 m 47 78 l 636 78 l 636 0 l 47 0 l 47 78 z "},"∞":{"ha":1079,"x_min":56,"x_max":1024,"o":"m 789 211 q 643 253 707 211 q 510 382 579 296 l 504 382 q 393 276 447 317 q 263 236 339 236 q 160 265 207 236 q 84 344 113 294 q 56 451 56 393 q 118 619 56 556 q 278 682 181 682 q 409 640 353 682 q 514 533 465 599 l 519 533 q 643 658 578 611 q 790 704 708 704 q 910 674 857 704 q 994 588 964 643 q 1024 465 1024 533 q 994 333 1024 390 q 910 243 964 275 q 789 211 857 211 m 790 308 q 901 352 860 308 q 943 461 943 396 q 899 579 943 533 q 781 625 856 625 q 666 586 719 625 q 558 471 613 547 q 675 347 622 386 q 790 308 728 308 m 272 315 q 465 447 376 315 q 368 549 415 514 q 269 585 321 585 q 174 550 211 585 q 136 456 136 515 q 176 355 136 394 q 272 315 215 315 z "},"∫":{"ha":450,"x_min":74,"x_max":415,"o":"m 139 -219 q 74 -210 97 -219 l 86 -133 q 135 -139 111 -139 q 210 -85 190 -139 q 229 89 229 -31 q 223 219 229 150 q 210 352 217 288 q 200 436 203 417 q 177 636 185 557 q 169 782 169 715 q 208 1015 169 933 q 353 1096 247 1096 q 415 1088 393 1096 l 403 1010 q 354 1015 386 1015 q 281 960 300 1015 q 263 786 263 906 q 292 440 263 674 q 313 240 306 318 q 319 94 319 163 q 281 -138 319 -57 q 139 -219 243 -219 z "},"<":{"ha":683,"x_min":47,"x_max":636,"o":"m 47 419 l 47 503 l 636 735 l 636 646 l 151 464 l 151 458 l 636 276 l 636 188 l 47 419 z "},"≤":{"ha":683,"x_min":47,"x_max":636,"o":"m 47 426 l 47 521 l 636 735 l 636 646 l 338 539 l 151 476 l 151 471 l 338 408 l 636 301 l 636 213 l 47 426 m 47 78 l 636 78 l 636 0 l 47 0 l 47 78 z "},"¬":{"ha":683,"x_min":47,"x_max":636,"o":"m 554 419 l 47 419 l 47 497 l 636 497 l 636 146 l 554 146 l 554 419 z "},"−":{"ha":683,"x_min":47,"x_max":636,"o":"m 47 497 l 636 497 l 636 419 l 47 419 l 47 497 z "},"×":{"ha":683,"x_min":71,"x_max":614,"o":"m 71 235 l 288 458 l 71 681 l 125 738 l 342 513 l 558 738 l 614 681 l 397 458 l 614 235 l 558 178 l 342 403 l 125 178 l 71 235 z "},"≠":{"ha":683,"x_min":47,"x_max":636,"o":"m 193 272 l 47 272 l 47 350 l 238 350 l 368 567 l 47 567 l 47 644 l 414 644 l 521 821 l 597 821 l 490 644 l 636 644 l 636 567 l 446 567 l 315 350 l 636 350 l 636 272 l 271 272 l 164 96 l 86 96 l 193 272 z "},"∂":{"ha":722,"x_min":54,"x_max":667,"o":"m 378 929 q 590 825 513 929 q 667 510 667 721 q 622 235 667 354 q 494 49 576 115 q 304 -17 411 -17 q 180 16 238 -17 q 88 108 122 49 q 54 249 54 168 q 90 410 54 340 q 194 520 126 481 q 356 560 263 560 q 468 533 413 560 q 567 458 524 506 q 568 508 568 475 q 368 844 568 844 q 210 774 278 844 l 163 838 q 378 929 254 929 m 314 68 q 472 149 408 68 q 558 371 536 229 q 363 478 471 478 q 205 416 258 478 q 151 256 151 354 q 199 120 151 172 q 314 68 246 68 z "},"%":{"ha":1135,"x_min":50,"x_max":1085,"o":"m 254 363 q 105 439 160 363 q 50 651 50 515 q 105 862 50 786 q 254 938 160 938 q 403 862 349 938 q 458 651 458 786 q 403 439 458 515 q 254 363 349 363 m 782 929 l 853 929 l 349 -17 l 278 -17 l 782 929 m 254 426 q 347 485 313 426 q 381 651 381 543 q 347 817 381 760 q 254 874 313 874 q 162 817 196 874 q 128 651 128 760 q 162 485 128 543 q 254 426 196 426 m 881 -17 q 731 60 786 -17 q 676 272 676 136 q 731 483 676 407 q 881 558 786 558 q 1030 483 975 558 q 1085 272 1085 407 q 1030 60 1085 136 q 881 -17 975 -17 m 881 47 q 972 106 938 47 q 1006 272 1006 164 q 972 438 1006 381 q 881 494 939 494 q 788 438 822 494 q 754 272 754 381 q 788 106 754 164 q 881 47 822 47 z "},"‰":{"ha":1643,"x_min":58,"x_max":1585,"o":"m 263 360 q 113 436 168 360 q 58 649 58 513 q 113 860 58 785 q 263 935 168 935 q 412 860 357 935 q 467 649 467 785 q 412 436 467 513 q 263 360 357 360 m 779 929 l 850 929 l 346 -17 l 275 -17 l 779 929 m 263 425 q 355 483 321 425 q 389 649 389 540 q 355 814 389 757 q 263 871 321 871 q 170 814 204 871 q 136 649 136 757 q 170 483 136 540 q 263 425 204 425 m 876 -17 q 727 60 782 -17 q 672 272 672 136 q 727 483 672 407 q 876 558 782 558 q 1026 483 971 558 q 1081 272 1081 407 q 1026 60 1081 136 q 876 -17 971 -17 m 1381 -17 q 1231 60 1286 -17 q 1176 272 1176 136 q 1231 483 1176 407 q 1381 558 1286 558 q 1530 483 1475 558 q 1585 272 1585 407 q 1530 60 1585 136 q 1381 -17 1475 -17 m 876 47 q 967 106 933 47 q 1001 272 1001 164 q 968 438 1001 381 q 876 494 935 494 q 784 438 818 494 q 750 272 750 381 q 784 106 750 164 q 876 47 818 47 m 1381 47 q 1473 106 1439 47 q 1507 272 1507 164 q 1473 438 1507 381 q 1381 494 1439 494 q 1288 438 1322 494 q 1254 272 1254 381 q 1288 106 1254 164 q 1381 47 1322 47 z "},"+":{"ha":683,"x_min":47,"x_max":636,"o":"m 300 419 l 47 419 l 47 497 l 300 497 l 300 771 l 383 771 l 383 497 l 636 497 l 636 419 l 383 419 l 383 146 l 300 146 l 300 419 z "},"±":{"ha":683,"x_min":47,"x_max":636,"o":"m 300 424 l 47 424 l 47 501 l 300 501 l 300 771 l 383 771 l 383 501 l 636 501 l 636 424 l 383 424 l 383 169 l 300 169 l 300 424 m 47 78 l 636 78 l 636 0 l 47 0 l 47 78 z "},"∏":{"ha":928,"x_min":125,"x_max":803,"o":"m 125 886 l 803 886 l 803 -167 l 699 -167 l 699 797 l 228 797 l 228 -167 l 125 -167 l 125 886 z "},"√":{"ha":767,"x_min":60,"x_max":772,"o":"m 183 463 l 85 418 l 60 476 l 236 554 l 401 64 l 424 -21 l 429 -21 l 435 8 q 446 64 436 21 l 697 1139 l 772 1139 l 471 -136 l 392 -136 l 183 463 z "},"∑":{"ha":694,"x_min":29,"x_max":692,"o":"m 29 -100 l 367 360 l 44 819 l 44 886 l 651 886 l 651 799 l 172 799 l 172 793 l 476 361 l 158 -74 l 158 -79 l 692 -79 l 692 -167 l 29 -167 l 29 -100 z "},"◌":{"ha":833,"x_min":65,"x_max":750,"o":"m 450 679 q 485 665 471 679 q 500 629 500 651 q 486 592 500 606 q 450 578 472 578 q 417 592 431 578 q 404 629 404 606 q 417 665 404 651 q 450 679 431 679 m 260 653 q 294 640 281 653 q 307 603 307 626 q 294 567 307 581 q 260 554 281 554 q 226 567 240 554 q 213 603 213 581 q 226 640 213 626 q 260 653 240 653 m 586 483 q 554 497 568 483 q 540 535 540 511 q 543 551 540 540 q 540 568 540 563 q 553 605 540 592 q 586 618 567 618 q 621 605 607 618 q 635 568 635 592 q 632 551 635 563 q 635 535 635 540 q 622 497 635 511 q 586 483 608 483 m 150 540 q 185 528 172 540 q 199 492 199 515 q 186 453 199 467 q 150 440 174 440 q 117 454 131 440 q 104 492 104 468 q 117 528 104 515 q 150 540 131 540 m 161 338 q 148 300 161 314 q 111 286 135 286 q 79 300 93 286 q 65 338 65 314 q 78 373 65 360 q 111 386 92 386 q 147 374 133 386 q 161 338 161 361 m 701 386 q 735 373 721 386 q 750 338 750 360 q 736 300 750 314 q 701 286 722 286 q 667 300 681 286 q 654 338 654 314 q 667 374 654 361 q 701 386 681 386 m 150 235 q 185 222 172 235 q 199 185 199 208 q 185 148 199 161 q 150 135 172 135 q 117 149 131 135 q 104 185 104 163 q 117 222 104 208 q 150 235 131 235 m 664 235 q 698 222 685 235 q 711 185 711 208 q 699 148 711 161 q 664 135 686 135 q 631 149 644 135 q 617 185 617 163 q 631 222 617 208 q 664 235 644 235 m 260 119 q 294 107 281 119 q 307 74 307 94 q 294 35 307 49 q 260 21 281 21 q 226 35 240 21 q 213 74 213 49 q 226 107 213 94 q 260 119 240 119 m 553 119 q 588 107 574 119 q 601 74 601 94 q 589 34 601 47 q 553 21 576 21 q 520 35 533 21 q 507 74 507 49 q 521 107 507 94 q 553 119 535 119 m 407 82 q 442 69 429 82 q 456 33 456 57 q 442 -3 456 10 q 407 -17 428 -17 q 374 -3 388 -17 q 360 33 360 10 q 374 69 360 56 q 407 82 388 82 z "},"◊":{"ha":711,"x_min":79,"x_max":632,"o":"m 79 458 l 308 931 l 404 931 l 632 458 l 404 -14 l 308 -14 l 79 458 m 358 71 l 542 458 l 447 657 l 358 846 l 353 846 l 171 458 l 264 258 l 353 71 l 358 71 z "},"|":{"ha":329,"x_min":128,"x_max":201,"o":"m 128 1042 l 201 1042 l 201 -347 l 128 -347 l 128 1042 z "},"¦":{"ha":329,"x_min":128,"x_max":201,"o":"m 201 813 l 201 163 l 201 -110 l 128 -110 l 128 528 l 128 813 l 201 813 z "},"@":{"ha":1165,"x_min":71,"x_max":1094,"o":"m 554 -212 q 307 -155 417 -212 q 134 15 197 -97 q 71 282 71 126 q 149 601 71 461 q 359 817 228 740 q 643 893 490 893 q 883 836 781 893 q 1040 676 985 779 q 1094 438 1094 574 q 1053 240 1094 324 q 950 114 1013 157 q 822 71 888 71 q 725 98 764 71 q 681 176 686 125 l 678 176 q 598 107 642 133 q 510 81 554 81 q 390 132 438 81 q 343 275 343 183 q 376 424 343 349 q 470 547 410 499 q 608 594 531 594 q 721 528 682 594 l 724 528 l 738 583 l 807 583 l 754 310 q 743 233 743 263 q 832 142 743 142 q 920 177 876 142 q 992 279 964 213 q 1021 433 1021 346 q 976 637 1021 549 q 844 774 931 725 q 635 824 757 824 q 397 756 510 824 q 216 566 285 689 q 147 286 147 443 q 200 57 147 154 q 347 -92 253 -40 q 561 -143 442 -143 q 789 -79 681 -143 l 817 -140 q 554 -212 699 -212 m 526 151 q 661 236 589 151 l 701 463 q 659 509 681 496 q 608 522 638 522 q 514 485 556 522 q 449 392 472 449 q 426 281 426 336 q 453 183 426 214 q 526 151 481 151 z "},"&":{"ha":833,"x_min":46,"x_max":814,"o":"m 786 -17 q 581 90 689 11 q 321 -17 464 -17 q 179 15 242 -17 q 81 105 117 47 q 46 235 46 163 q 94 378 46 318 q 228 500 142 439 q 167 715 167 618 q 224 868 167 807 q 372 929 282 929 q 499 881 453 929 q 544 753 544 832 q 516 650 544 697 q 446 566 488 603 q 338 482 404 529 q 444 338 382 408 q 574 211 506 268 q 707 489 663 325 l 801 489 q 642 158 743 292 q 814 68 736 92 l 786 -17 m 256 718 q 300 550 256 643 q 420 649 379 604 q 461 750 461 693 q 439 825 461 794 q 372 856 417 856 q 288 817 319 856 q 256 718 256 778 m 144 240 q 199 114 144 163 q 332 65 253 65 q 514 144 424 65 q 268 429 363 276 q 176 338 208 382 q 144 240 144 293 z "},"¶":{"ha":761,"x_min":57,"x_max":628,"o":"m 406 321 q 151 394 246 321 q 57 618 57 468 q 147 842 57 771 q 389 913 236 913 l 450 913 l 450 321 l 406 321 m 525 913 l 628 913 l 628 -111 l 525 -111 l 525 913 z "},"©":{"ha":1033,"x_min":69,"x_max":964,"o":"m 517 -15 q 293 42 396 -15 q 130 206 190 100 q 69 449 69 311 q 130 690 69 586 q 292 851 190 794 q 517 907 394 907 q 740 850 638 907 q 903 689 843 793 q 964 449 964 585 q 903 206 964 311 q 740 42 843 100 q 517 -15 638 -15 m 517 39 q 710 90 622 39 q 851 235 799 142 q 903 449 903 329 q 851 660 903 568 q 710 803 799 753 q 517 854 622 854 q 322 803 411 854 q 181 660 233 753 q 129 449 129 568 q 181 235 129 329 q 322 90 233 142 q 517 39 411 39 m 526 174 q 400 207 457 174 q 310 302 343 240 q 276 449 276 364 q 312 586 276 526 q 405 678 347 646 q 531 710 463 710 q 625 690 585 710 q 703 632 665 669 l 658 582 q 599 626 628 613 q 535 640 571 640 q 408 587 457 640 q 360 449 360 533 q 406 299 360 354 q 529 244 453 244 q 607 260 572 244 q 676 307 642 276 l 714 253 q 628 194 671 214 q 526 174 585 174 z "},"®":{"ha":581,"x_min":31,"x_max":549,"o":"m 290 446 q 160 480 219 446 q 65 576 100 514 q 31 717 31 638 q 65 858 31 796 q 160 956 100 921 q 290 990 219 990 q 420 956 361 990 q 514 858 479 921 q 549 717 549 796 q 514 576 549 638 q 420 480 479 514 q 290 446 361 446 m 290 493 q 396 522 349 493 q 470 601 443 550 q 497 717 497 651 q 470 833 497 782 q 396 914 443 885 q 290 943 349 943 q 185 914 232 943 q 110 833 138 885 q 83 717 83 782 q 110 601 83 651 q 185 522 138 550 q 290 493 232 493 m 190 863 l 294 863 q 372 842 342 863 q 401 774 401 821 q 387 726 401 747 q 349 696 372 704 l 414 579 l 354 579 l 303 679 l 244 679 l 244 579 l 190 579 l 190 863 m 281 722 q 328 734 311 722 q 344 769 344 746 q 285 818 344 818 l 244 818 l 244 722 l 281 722 z "},"§":{"ha":683,"x_min":65,"x_max":619,"o":"m 619 394 q 589 290 619 332 q 501 215 558 249 q 543 101 543 167 q 482 -32 543 21 q 326 -85 421 -85 q 194 -60 254 -85 q 90 11 133 -35 l 153 68 q 231 13 189 32 q 326 -6 272 -6 q 417 24 383 -6 q 450 96 450 53 q 410 176 450 146 q 289 240 371 206 q 172 297 217 271 q 97 369 128 324 q 65 479 65 414 q 97 583 65 538 q 185 660 129 629 q 140 774 140 707 q 194 898 140 846 q 344 950 247 950 q 554 871 457 950 l 504 806 q 430 853 467 836 q 349 869 393 869 q 262 843 290 869 q 233 778 233 817 q 272 703 233 732 q 392 638 310 674 q 510 578 465 606 q 588 506 556 551 q 619 394 619 461 m 440 264 q 509 313 488 286 q 531 386 531 340 q 506 463 531 431 q 446 515 482 494 q 347 563 410 535 q 244 613 272 596 q 177 559 200 589 q 154 486 154 529 q 178 413 154 443 q 238 362 203 382 q 335 315 274 342 q 440 264 404 286 z "},"™":{"ha":875,"x_min":4,"x_max":835,"o":"m 144 869 l 4 869 l 4 939 l 361 939 l 361 869 l 219 869 l 219 510 l 144 510 l 144 869 m 431 939 l 524 939 l 592 774 l 631 663 l 636 663 l 675 774 l 742 939 l 835 939 l 835 510 l 764 510 l 764 708 l 772 851 l 767 851 l 663 575 l 601 575 l 497 851 l 492 851 l 501 708 l 501 510 l 431 510 l 431 939 z "},"°":{"ha":453,"x_min":57,"x_max":397,"o":"m 226 603 q 106 651 156 603 q 57 775 57 699 q 106 903 57 854 q 226 951 156 951 q 347 903 297 951 q 397 775 397 854 q 347 651 397 699 q 226 603 297 603 m 226 661 q 303 694 274 661 q 333 775 333 726 q 303 859 333 826 q 226 892 274 892 q 150 859 179 892 q 121 775 121 826 q 151 693 121 725 q 226 661 181 661 z "},"℮":{"ha":1111,"x_min":64,"x_max":1047,"o":"m 556 -17 q 309 46 422 -17 q 130 215 196 108 q 64 450 64 322 q 130 685 64 578 q 309 854 196 792 q 556 917 422 917 q 802 854 689 917 q 981 685 915 792 q 1047 450 1047 578 l 1047 439 l 250 439 q 244 433 244 439 l 244 178 q 256 150 244 167 q 391 48 313 85 q 558 11 469 11 q 733 53 650 11 q 875 167 815 94 l 947 167 q 774 33 876 82 q 556 -17 672 -17 m 861 464 q 869 472 869 464 l 869 728 q 856 758 869 744 q 719 854 796 819 q 558 889 642 889 q 393 853 471 889 q 256 753 315 817 q 244 722 244 736 l 244 472 q 250 464 244 464 l 861 464 z "},"^":{"ha":683,"x_min":85,"x_max":599,"o":"m 296 931 l 388 931 l 599 396 l 510 396 l 344 835 l 339 835 l 271 650 l 175 396 l 85 396 l 296 931 z "},"†":{"ha":618,"x_min":76,"x_max":542,"o":"m 271 693 l 76 688 l 76 775 l 271 769 l 265 989 l 353 989 l 347 769 l 542 775 l 542 688 l 347 693 l 353 -111 l 265 -111 l 271 693 z "},"‡":{"ha":618,"x_min":76,"x_max":542,"o":"m 271 108 l 76 103 l 76 190 l 271 183 l 265 439 l 271 694 l 76 688 l 76 775 l 271 769 l 265 989 l 353 989 l 347 769 l 542 775 l 542 688 l 347 694 l 353 439 l 347 183 l 542 190 l 542 103 l 347 108 l 353 -111 l 265 -111 l 271 108 z "},"̈":{"ha":0,"x_min":-196,"x_max":196,"o":"m -131 819 q -177 838 -158 819 q -196 883 -196 856 q -177 930 -196 911 q -131 949 -158 949 q -85 930 -103 949 q -67 883 -67 911 q -85 838 -67 857 q -131 819 -104 819 m 131 819 q 85 838 104 819 q 67 883 67 857 q 85 930 67 911 q 131 949 103 949 q 177 930 158 949 q 196 883 196 911 q 177 838 196 856 q 131 819 158 819 z "},"̇":{"ha":0,"x_min":-69,"x_max":69,"o":"m 0 818 q -50 838 -31 818 q -69 889 -69 857 q -50 938 -69 919 q 0 957 -31 957 q 50 938 31 957 q 69 889 69 919 q 50 838 69 857 q 0 818 31 818 z "},"̀":{"ha":0,"x_min":-189,"x_max":78,"o":"m -189 1008 l -117 1075 l 78 847 l 25 796 l -189 1008 z "},"́":{"ha":0,"x_min":-78,"x_max":189,"o":"m -78 847 l 117 1075 l 189 1008 l -25 796 l -78 847 z "},"̋":{"ha":0,"x_min":-128,"x_max":269,"o":"m -128 815 l -7 1054 l 65 1017 l -71 789 l -128 815 m 76 815 l 197 1054 l 269 1017 l 133 789 l 76 815 z "},"̂":{"ha":0,"x_min":-210,"x_max":210,"o":"m -210 831 l -50 1026 l 50 1026 l 210 831 l 165 790 l 3 951 l -3 951 l -165 790 l -210 831 z "},"̌":{"ha":0,"x_min":-210,"x_max":210,"o":"m -210 992 l -165 1033 l -3 871 l 3 871 l 165 1033 l 210 992 l 50 797 l -50 797 l -210 992 z "},"̆":{"ha":0,"x_min":-214,"x_max":214,"o":"m 0 793 q -154 854 -101 793 q -214 1001 -207 915 l -149 1011 q -103 906 -140 950 q 0 863 -65 863 q 103 906 65 863 q 149 1011 140 950 l 214 1001 q 154 854 207 915 q 0 793 101 793 z "},"̊":{"ha":0,"x_min":-147,"x_max":147,"o":"m 0 768 q -107 806 -67 768 q -147 903 -147 843 q -107 1001 -147 963 q 0 1039 -67 1039 q 107 1001 67 1039 q 147 903 147 963 q 107 806 147 843 q 0 768 67 768 m 0 815 q 58 840 35 815 q 82 903 82 864 q 58 967 82 943 q 0 992 35 992 q -58 967 -35 992 q -82 903 -82 943 q -58 840 -82 864 q 0 815 -35 815 z "},"̃":{"ha":0,"x_min":-237,"x_max":238,"o":"m 101 803 q 39 820 65 803 q -21 871 13 838 q -64 910 -47 897 q -101 922 -81 922 q -168 808 -161 922 l -237 813 q -201 947 -233 897 q -100 997 -168 997 q -37 979 -64 997 q 21 928 -11 961 q 63 890 44 903 q 101 876 81 876 q 149 908 132 876 q 168 992 165 939 l 238 986 q 201 853 233 903 q 101 803 168 803 z "},"̄":{"ha":0,"x_min":-181,"x_max":181,"o":"m -181 908 l 181 908 l 181 836 l -181 836 l -181 908 z "},"̞":{"ha":0,"x_min":-131,"x_max":131,"o":"m -32 -197 l -131 -197 l -131 -136 l 131 -136 l 131 -197 l 32 -197 l 32 -343 l -32 -343 l -32 -197 z "},"̣":{"ha":0,"x_min":-69,"x_max":69,"o":"m 0 -282 q -50 -262 -31 -282 q -69 -211 -69 -243 q -50 -162 -69 -181 q 0 -143 -31 -143 q 50 -162 31 -143 q 69 -211 69 -181 q 50 -262 69 -243 q 0 -282 31 -282 z "},"̧":{"ha":0,"x_min":-128,"x_max":104,"o":"m -128 -258 q -9 -237 -43 -253 q 25 -189 25 -221 q 0 -146 25 -161 q -83 -122 -25 -131 l -24 4 l 44 4 l 4 -89 q 79 -124 54 -101 q 104 -187 104 -147 q -117 -311 104 -300 l -128 -258 z "},"̮":{"ha":0,"x_min":-214,"x_max":214,"o":"m 0 -321 q -154 -260 -101 -321 q -214 -112 -207 -199 l -149 -103 q -103 -208 -140 -164 q 0 -251 -65 -251 q 103 -208 65 -251 q 149 -103 140 -164 l 214 -112 q 154 -260 207 -199 q 0 -321 101 -321 z "},"̱":{"ha":0,"x_min":-181,"x_max":181,"o":"m -181 -161 l 181 -161 l 181 -233 l -181 -233 l -181 -161 z "},"͡":{"ha":0,"x_min":-631,"x_max":631,"o":"m -631 819 q 0 996 -342 996 q 631 819 342 996 l 600 767 q 316 885 472 846 q 0 924 160 924 q -316 885 -160 924 q -600 767 -472 846 l -631 819 z "},"ː":{"ha":336,"x_min":114,"x_max":222,"o":"m 118 517 l 218 517 l 222 339 l 114 339 l 118 517 m 114 301 l 222 301 l 218 121 l 118 121 l 114 301 z "},"ʹ":{"ha":336,"x_min":0,"x_max":0,"o":""},"ˈ":{"ha":153,"x_min":32,"x_max":119,"o":"m 32 1008 l 119 1008 l 111 739 l 40 739 l 32 1008 z "},"´":{"ha":750,"x_min":297,"x_max":564,"o":"m 297 847 l 492 1075 l 564 1008 l 350 796 l 297 847 z "},"˘":{"ha":750,"x_min":161,"x_max":589,"o":"m 375 793 q 221 854 274 793 q 161 1001 168 915 l 226 1011 q 272 906 235 950 q 375 863 310 863 q 478 906 440 863 q 524 1011 515 950 l 589 1001 q 529 854 582 915 q 375 793 476 793 z "},"ˇ":{"ha":750,"x_min":165,"x_max":585,"o":"m 165 992 l 210 1033 l 372 871 l 378 871 l 540 1033 l 585 992 l 425 797 l 325 797 l 165 992 z "},"¸":{"ha":750,"x_min":247,"x_max":479,"o":"m 247 -258 q 366 -237 332 -253 q 400 -189 400 -221 q 375 -146 400 -161 q 292 -122 350 -131 l 351 4 l 419 4 l 379 -89 q 454 -124 429 -101 q 479 -187 479 -147 q 258 -311 479 -300 l 247 -258 z "},"ˆ":{"ha":750,"x_min":165,"x_max":585,"o":"m 165 831 l 325 1026 l 425 1026 l 585 831 l 540 790 l 378 951 l 372 951 l 210 790 l 165 831 z "},"¨":{"ha":750,"x_min":179,"x_max":571,"o":"m 244 819 q 198 838 217 819 q 179 883 179 856 q 198 930 179 911 q 244 949 217 949 q 290 930 272 949 q 308 883 308 911 q 290 838 308 857 q 244 819 271 819 m 506 819 q 460 838 479 819 q 442 883 442 857 q 460 930 442 911 q 506 949 478 949 q 552 930 533 949 q 571 883 571 911 q 552 838 571 856 q 506 819 533 819 z "},"˙":{"ha":750,"x_min":306,"x_max":444,"o":"m 375 818 q 325 838 344 818 q 306 889 306 857 q 325 938 306 919 q 375 957 344 957 q 425 938 406 957 q 444 889 444 919 q 425 838 444 857 q 375 818 406 818 z "},"`":{"ha":750,"x_min":186,"x_max":453,"o":"m 186 1008 l 258 1075 l 453 847 l 400 796 l 186 1008 z "},"˝":{"ha":750,"x_min":247,"x_max":644,"o":"m 247 815 l 368 1054 l 440 1017 l 304 789 l 247 815 m 451 815 l 572 1054 l 644 1017 l 508 789 l 451 815 z "},"¯":{"ha":750,"x_min":194,"x_max":556,"o":"m 194 908 l 556 908 l 556 836 l 194 836 l 194 908 z "},"˛":{"ha":750,"x_min":0,"x_max":0,"o":""},"˚":{"ha":750,"x_min":228,"x_max":522,"o":"m 375 768 q 268 806 308 768 q 228 903 228 843 q 268 1001 228 963 q 375 1039 308 1039 q 482 1001 442 1039 q 522 903 522 963 q 482 806 522 843 q 375 768 442 768 m 375 815 q 433 840 410 815 q 457 903 457 864 q 433 967 457 943 q 375 992 410 992 q 317 967 340 992 q 293 903 293 943 q 317 840 293 864 q 375 815 340 815 z "},"˜":{"ha":750,"x_min":138,"x_max":613,"o":"m 476 803 q 414 820 440 803 q 354 871 388 838 q 311 910 328 897 q 274 922 294 922 q 207 808 214 922 l 138 813 q 174 947 142 897 q 275 997 207 997 q 338 979 311 997 q 396 928 364 961 q 438 890 419 903 q 476 876 456 876 q 524 908 507 876 q 543 992 540 939 l 613 986 q 576 853 608 903 q 476 803 543 803 z "},"ְ":{"ha":0,"x_min":47,"x_max":129,"o":"m 89 -104 q 118 -117 107 -104 q 129 -147 129 -129 q 118 -178 129 -165 q 89 -190 107 -190 q 59 -177 71 -190 q 47 -147 47 -164 q 59 -117 47 -131 q 89 -104 71 -104 m 89 -235 q 118 -249 107 -235 q 129 -281 129 -262 q 118 -311 129 -299 q 89 -324 107 -324 q 59 -310 71 -324 q 47 -281 47 -297 q 59 -249 47 -262 q 89 -235 71 -235 z "},"ֱ":{"ha":0,"x_min":47,"x_max":418,"o":"m 89 -104 q 118 -117 107 -104 q 129 -147 129 -129 q 118 -178 129 -165 q 89 -190 107 -190 q 59 -177 71 -190 q 47 -147 47 -164 q 59 -117 47 -131 q 89 -104 71 -104 m 233 -104 q 263 -117 251 -104 q 274 -147 274 -129 q 263 -178 274 -165 q 233 -190 251 -190 q 203 -177 215 -190 q 192 -147 192 -164 q 203 -117 192 -131 q 233 -104 215 -104 m 378 -104 q 407 -117 396 -104 q 418 -147 418 -129 q 407 -178 418 -165 q 378 -190 396 -190 q 348 -177 360 -190 q 336 -147 336 -164 q 348 -117 336 -131 q 378 -104 360 -104 m 160 -235 q 189 -249 178 -235 q 200 -281 200 -262 q 189 -311 200 -299 q 160 -324 178 -324 q 131 -310 143 -324 q 118 -281 118 -297 q 131 -249 118 -264 q 160 -235 143 -235 m 378 -235 q 407 -249 396 -235 q 418 -281 418 -262 q 407 -311 418 -299 q 378 -324 396 -324 q 348 -310 360 -324 q 336 -281 336 -297 q 348 -249 336 -262 q 378 -235 360 -235 z "},"ֲ":{"ha":0,"x_min":47,"x_max":403,"o":"m 363 -104 q 392 -117 381 -104 q 403 -147 403 -129 q 392 -178 403 -165 q 363 -190 381 -190 q 333 -177 344 -190 q 321 -147 321 -164 q 333 -117 321 -131 q 363 -104 344 -104 m 267 -167 l 47 -167 l 47 -118 l 267 -118 l 267 -167 m 363 -235 q 392 -249 381 -235 q 403 -281 403 -262 q 392 -311 403 -299 q 363 -324 381 -324 q 333 -310 344 -324 q 321 -281 321 -297 q 333 -249 321 -262 q 363 -235 344 -235 z "},"ֳ":{"ha":0,"x_min":47,"x_max":403,"o":"m 363 -104 q 392 -117 381 -104 q 403 -147 403 -129 q 392 -178 403 -165 q 363 -190 381 -190 q 333 -177 344 -190 q 321 -147 321 -164 q 333 -117 321 -131 q 363 -104 344 -104 m 267 -167 l 174 -167 l 183 -306 l 129 -306 l 139 -167 l 47 -167 l 47 -118 l 267 -118 l 267 -167 m 363 -235 q 392 -249 381 -235 q 403 -281 403 -262 q 392 -311 403 -299 q 363 -324 381 -324 q 333 -310 344 -324 q 321 -281 321 -297 q 333 -249 321 -262 q 363 -235 344 -235 z "},"ִ":{"ha":0,"x_min":47,"x_max":129,"o":"m 89 -104 q 118 -117 107 -104 q 129 -147 129 -129 q 118 -178 129 -165 q 89 -190 107 -190 q 59 -177 71 -190 q 47 -147 47 -164 q 59 -117 47 -131 q 89 -104 71 -104 z "},"ֵ":{"ha":0,"x_min":47,"x_max":278,"o":"m 89 -104 q 118 -117 107 -104 q 129 -147 129 -129 q 118 -178 129 -165 q 89 -190 107 -190 q 59 -177 71 -190 q 47 -147 47 -164 q 59 -117 47 -131 q 89 -104 71 -104 m 238 -104 q 267 -117 256 -104 q 278 -147 278 -129 q 267 -178 278 -165 q 238 -190 256 -190 q 208 -177 221 -190 q 196 -147 196 -164 q 208 -117 196 -131 q 238 -104 221 -104 z "},"ֶ":{"ha":0,"x_min":47,"x_max":278,"o":"m 89 -104 q 118 -117 107 -104 q 129 -147 129 -129 q 118 -178 129 -165 q 89 -190 107 -190 q 59 -177 71 -190 q 47 -147 47 -164 q 59 -117 47 -131 q 89 -104 71 -104 m 238 -104 q 267 -117 256 -104 q 278 -147 278 -129 q 267 -178 278 -165 q 238 -190 256 -190 q 208 -177 221 -190 q 196 -147 196 -164 q 208 -117 196 -131 q 238 -104 221 -104 m 163 -222 q 192 -235 181 -222 q 203 -265 203 -247 q 192 -297 203 -283 q 163 -310 181 -310 q 133 -297 144 -310 q 121 -265 121 -283 q 133 -235 121 -249 q 163 -222 144 -222 z "},"ַ":{"ha":0,"x_min":47,"x_max":267,"o":"m 267 -144 l 47 -144 l 47 -96 l 267 -96 l 267 -144 z "},"ָ":{"ha":0,"x_min":47,"x_max":267,"o":"m 267 -144 l 174 -144 l 183 -283 l 129 -283 l 139 -144 l 47 -144 l 47 -96 l 267 -96 l 267 -144 z "},"ֹ":{"ha":0,"x_min":47,"x_max":129,"o":"m 89 797 q 118 785 107 797 q 129 754 129 772 q 118 723 129 736 q 89 710 107 710 q 59 723 71 710 q 47 754 47 736 q 59 784 47 771 q 89 797 71 797 z "},"ֺ":{"ha":0,"x_min":47,"x_max":129,"o":"m 89 710 q 59 723 71 710 q 47 754 47 736 q 59 784 47 771 q 89 797 71 797 q 118 785 107 797 q 129 754 129 772 q 118 723 129 736 q 89 710 107 710 z "},"ֻ":{"ha":0,"x_min":47,"x_max":314,"o":"m 89 -104 q 118 -117 107 -104 q 129 -147 129 -129 q 118 -178 129 -165 q 89 -190 107 -190 q 59 -177 71 -190 q 47 -147 47 -164 q 59 -117 47 -131 q 89 -104 71 -104 m 181 -187 q 210 -201 199 -187 q 222 -232 222 -214 q 210 -262 222 -249 q 181 -275 199 -275 q 151 -262 164 -275 q 139 -232 139 -249 q 151 -201 139 -214 q 181 -187 163 -187 m 274 -272 q 303 -285 292 -272 q 314 -317 314 -299 q 303 -347 314 -335 q 274 -360 292 -360 q 243 -347 256 -360 q 231 -317 231 -333 q 243 -285 231 -299 q 274 -272 256 -272 z "},"ּ":{"ha":0,"x_min":47,"x_max":129,"o":"m 89 447 q 118 434 107 447 q 129 403 129 421 q 118 372 129 385 q 89 358 107 358 q 59 372 71 358 q 47 403 47 385 q 59 434 47 421 q 89 447 71 447 z "},"ֿ":{"ha":0,"x_min":44,"x_max":307,"o":"m 307 739 l 44 739 l 44 793 l 307 793 l 307 739 z "},"ׁ":{"ha":0,"x_min":47,"x_max":129,"o":"m 89 814 q 118 801 107 814 q 129 769 129 788 q 118 738 129 751 q 89 725 107 725 q 59 738 71 725 q 47 769 47 751 q 59 801 47 788 q 89 814 71 814 z "},"ׂ":{"ha":0,"x_min":47,"x_max":129,"o":"m 89 814 q 118 801 107 814 q 129 769 129 788 q 118 738 129 751 q 89 725 107 725 q 59 738 71 725 q 47 769 47 751 q 59 801 47 788 q 89 814 71 814 z "},"ׇ":{"ha":0,"x_min":47,"x_max":178,"o":"m 178 -144 l 122 -144 l 139 -283 l 85 -283 l 103 -144 l 47 -144 l 47 -96 l 178 -96 l 178 -144 z "},"":{"ha":321,"x_min":-50,"x_max":222,"o":"m 46 -306 q -50 -289 -6 -306 l -29 -211 q 36 -222 4 -222 q 103 -189 85 -222 q 121 -87 121 -156 l 122 674 l 222 674 l 222 -89 q 180 -250 222 -194 q 46 -306 138 -306 z "}}}
